<svg xmlns="http://www.w3.org/2000/svg" xmlns:xlink="http://www.w3.org/1999/xlink" width="1920" viewBox="0 0 1440 809.999993" height="1080" preserveAspectRatio="xMidYMid meet"><defs><clipPath id="7e7e5395d0"><path d="M 985.246094 240.375 L 1380.496094 240.375 L 1380.496094 569.625 L 985.246094 569.625 Z M 985.246094 240.375 " clip-rule="nonzero"></path></clipPath></defs><g clip-path="url(#7e7e5395d0)"><path fill="#25a8e0" d="M 1359.851562 257.136719 L 1005.894531 257.136719 C 1003.605469 257.136719 1001.761719 258.988281 1001.761719 261.265625 L 1001.761719 485.015625 C 1001.761719 487.292969 1003.605469 489.144531 1005.894531 489.144531 L 1359.84375 489.144531 C 1362.128906 489.144531 1363.972656 487.292969 1363.972656 485.015625 L 1363.972656 261.265625 C 1363.980469 258.980469 1362.128906 257.136719 1359.851562 257.136719 Z M 1355.71875 480.890625 L 1010.023438 480.890625 L 1010.023438 265.390625 L 1355.71875 265.390625 Z M 1369.59375 240.628906 L 996.105469 240.628906 C 990.121094 240.628906 985.246094 245.539062 985.246094 251.5625 L 985.246094 494.75 C 985.246094 500.757812 990.121094 505.644531 996.105469 505.644531 L 1142.914062 505.644531 L 1125.722656 544.902344 L 1099.925781 544.902344 C 1096.667969 544.902344 1093.609375 546.164062 1091.296875 548.464844 C 1088.972656 550.796875 1087.695312 553.859375 1087.695312 557.113281 C 1087.695312 563.828125 1093.183594 569.285156 1099.917969 569.285156 L 1265.804688 569.285156 C 1269.027344 569.285156 1272.089844 568.039062 1274.46875 565.722656 C 1276.761719 563.433594 1278.027344 560.375 1278.027344 557.113281 C 1278.027344 550.375 1272.539062 544.902344 1265.804688 544.902344 L 1239.988281 544.902344 L 1222.832031 505.644531 L 1369.601562 505.644531 C 1375.605469 505.644531 1380.503906 500.757812 1380.503906 494.75 L 1380.503906 251.5625 C 1380.496094 245.539062 1375.605469 240.628906 1369.59375 240.628906 Z M 1265.820312 553.15625 C 1268.007812 553.15625 1269.789062 554.929688 1269.789062 557.121094 C 1269.789062 558.175781 1269.378906 559.164062 1268.6875 559.855469 C 1267.90625 560.621094 1266.882812 561.039062 1265.828125 561.039062 L 1099.933594 561.039062 C 1097.746094 561.039062 1095.964844 559.28125 1095.964844 557.121094 C 1095.964844 556.066406 1096.390625 555.070312 1097.148438 554.300781 C 1097.886719 553.566406 1098.878906 553.15625 1099.933594 553.15625 Z M 1230.976562 544.902344 L 1134.746094 544.902344 L 1151.933594 505.644531 L 1213.816406 505.644531 Z M 1372.234375 494.75 C 1372.234375 496.230469 1371.074219 497.390625 1369.59375 497.390625 L 1216.648438 497.390625 C 1216.601562 497.390625 1216.554688 497.367188 1216.507812 497.367188 L 1149.238281 497.367188 C 1149.191406 497.367188 1149.144531 497.382812 1149.097656 497.390625 L 996.105469 497.390625 C 994.671875 497.390625 993.5 496.207031 993.5 494.75 L 993.5 251.5625 C 993.5 250.105469 994.695312 248.882812 996.105469 248.882812 L 1369.59375 248.882812 C 1371.050781 248.882812 1372.234375 250.082031 1372.234375 251.5625 Z M 1217.050781 357.234375 L 1225.675781 357.234375 C 1226.792969 361.136719 1228.339844 364.875 1230.316406 368.414062 L 1224.210938 374.515625 C 1221.949219 376.777344 1221.925781 380.476562 1224.203125 382.808594 L 1236.75 395.328125 C 1238.96875 397.535156 1242.828125 397.527344 1245.019531 395.320312 L 1251.125 389.210938 C 1254.667969 391.179688 1258.410156 392.734375 1262.324219 393.851562 L 1262.324219 402.46875 C 1262.324219 405.695312 1264.953125 408.328125 1268.191406 408.328125 L 1285.902344 408.328125 C 1289.132812 408.328125 1291.769531 405.695312 1291.769531 402.46875 L 1291.769531 393.851562 C 1295.671875 392.734375 1299.425781 391.1875 1302.964844 389.210938 L 1309.082031 395.320312 C 1311.296875 397.527344 1315.15625 397.511719 1317.351562 395.320312 L 1329.9375 382.761719 C 1332.167969 380.46875 1332.152344 376.777344 1329.898438 374.515625 L 1323.78125 368.40625 C 1325.75 364.859375 1327.308594 361.121094 1328.425781 357.226562 L 1337.050781 357.226562 C 1340.28125 357.226562 1342.917969 354.601562 1342.917969 351.378906 L 1342.917969 333.664062 C 1342.917969 330.433594 1340.289062 327.800781 1337.050781 327.800781 L 1328.425781 327.800781 C 1327.308594 323.914062 1325.757812 320.175781 1323.78125 316.628906 L 1329.9375 310.496094 C 1332.167969 308.203125 1332.152344 304.511719 1329.898438 302.25 L 1317.359375 289.71875 C 1315.148438 287.515625 1311.304688 287.5 1309.082031 289.714844 L 1302.964844 295.820312 C 1299.410156 293.847656 1295.664062 292.300781 1291.777344 291.191406 L 1291.777344 282.582031 C 1291.777344 279.351562 1289.148438 276.71875 1285.910156 276.71875 L 1268.199219 276.71875 C 1264.96875 276.71875 1262.332031 279.351562 1262.332031 282.582031 L 1262.332031 291.207031 C 1258.441406 292.316406 1254.699219 293.863281 1251.140625 295.835938 L 1245.035156 289.734375 C 1242.828125 287.53125 1238.976562 287.515625 1236.757812 289.726562 L 1224.21875 302.257812 C 1221.957031 304.519531 1221.933594 308.21875 1224.21875 310.550781 L 1230.324219 316.636719 C 1228.355469 320.175781 1226.800781 323.914062 1225.683594 327.816406 L 1217.050781 327.816406 C 1213.816406 327.816406 1211.183594 330.449219 1211.183594 333.679688 L 1211.183594 351.394531 C 1211.191406 354.617188 1213.816406 357.234375 1217.050781 357.234375 Z M 1219.453125 336.070312 L 1228.898438 336.070312 C 1230.835938 336.070312 1232.519531 334.722656 1232.929688 332.835938 C 1234.078125 327.617188 1236.121094 322.699219 1238.996094 318.230469 C 1240.050781 316.597656 1239.820312 314.453125 1238.441406 313.074219 L 1231.75 306.40625 L 1240.898438 297.269531 L 1247.585938 303.953125 C 1248.964844 305.332031 1251.101562 305.554688 1252.730469 304.511719 C 1257.25 301.621094 1262.171875 299.585938 1267.347656 298.460938 C 1269.246094 298.050781 1270.601562 296.371094 1270.601562 294.429688 L 1270.601562 284.972656 L 1283.523438 284.972656 L 1283.523438 294.429688 C 1283.523438 296.371094 1284.878906 298.050781 1286.777344 298.460938 C 1291.953125 299.585938 1296.867188 301.613281 1301.394531 304.511719 C 1303.019531 305.546875 1305.160156 305.324219 1306.539062 303.953125 L 1313.226562 297.269531 L 1322.371094 306.40625 L 1315.683594 313.074219 C 1314.3125 314.445312 1314.070312 316.589844 1315.117188 318.214844 C 1318.007812 322.722656 1320.046875 327.636719 1321.1875 332.828125 C 1321.605469 334.714844 1323.277344 336.0625 1325.214844 336.0625 L 1334.664062 336.0625 L 1334.664062 348.980469 L 1325.214844 348.980469 C 1323.277344 348.980469 1321.597656 350.324219 1321.1875 352.222656 C 1320.046875 357.410156 1318 362.328125 1315.117188 366.835938 C 1314.070312 368.46875 1314.304688 370.605469 1315.675781 371.976562 L 1322.371094 378.664062 L 1313.21875 387.792969 L 1306.53125 381.113281 C 1305.160156 379.742188 1303.011719 379.515625 1301.378906 380.554688 C 1296.90625 383.425781 1291.984375 385.472656 1286.761719 386.609375 C 1284.863281 387.027344 1283.515625 388.699219 1283.515625 390.636719 L 1283.515625 400.074219 L 1270.59375 400.074219 L 1270.59375 390.636719 C 1270.59375 388.699219 1269.246094 387.019531 1267.347656 386.609375 C 1262.125 385.464844 1257.203125 383.425781 1252.730469 380.554688 C 1251.097656 379.507812 1248.949219 379.734375 1247.578125 381.113281 L 1240.890625 387.792969 L 1231.742188 378.671875 L 1238.441406 371.984375 C 1239.8125 370.613281 1240.042969 368.46875 1238.988281 366.835938 C 1236.113281 362.359375 1234.078125 357.449219 1232.921875 352.230469 C 1232.503906 350.332031 1230.828125 348.988281 1228.890625 348.988281 L 1219.453125 348.988281 Z M 1277.050781 376.4375 C 1295.765625 376.4375 1310.988281 361.226562 1310.988281 342.527344 C 1310.988281 323.84375 1295.765625 308.636719 1277.050781 308.636719 C 1258.34375 308.636719 1243.121094 323.835938 1243.121094 342.527344 C 1243.121094 361.21875 1258.34375 376.4375 1277.050781 376.4375 Z M 1277.050781 316.890625 C 1291.210938 316.890625 1302.726562 328.390625 1302.726562 342.527344 C 1302.726562 356.675781 1291.210938 368.179688 1277.050781 368.179688 C 1262.890625 368.179688 1251.375 356.675781 1251.375 342.527344 C 1251.382812 328.390625 1262.898438 316.890625 1277.050781 316.890625 Z M 1040.535156 433.664062 C 1041.644531 437.628906 1045.292969 440.402344 1049.394531 440.402344 L 1165.433594 440.402344 C 1169.542969 440.402344 1173.191406 437.628906 1174.308594 433.648438 L 1194.421875 360.375 L 1194.421875 360.367188 C 1195.179688 357.574219 1194.605469 354.65625 1192.855469 352.355469 C 1191.101562 350.0625 1188.445312 348.746094 1185.554688 348.746094 L 1176.78125 348.746094 L 1176.78125 327.5 C 1176.78125 322.699219 1172.9375 318.796875 1168.203125 318.796875 L 1106.9375 318.71875 L 1095.027344 306.738281 C 1093.421875 305.136719 1091.214844 304.214844 1088.964844 304.214844 L 1046.660156 304.214844 C 1041.914062 304.214844 1038.0625 308.109375 1038.0625 312.894531 L 1038.0625 348.746094 L 1029.28125 348.746094 C 1026.398438 348.746094 1023.742188 350.0625 1021.988281 352.355469 C 1020.230469 354.65625 1019.65625 357.574219 1020.417969 360.375 Z M 1046.316406 312.894531 C 1046.316406 312.65625 1046.464844 312.46875 1046.660156 312.46875 L 1089.167969 312.5625 L 1101.109375 324.582031 C 1102.738281 326.175781 1104.875 327.050781 1107.132812 327.050781 L 1168.195312 327.050781 C 1168.324219 327.050781 1168.511719 327.226562 1168.511719 327.5 L 1168.511719 348.746094 L 1046.316406 348.746094 Z M 1028.546875 357.363281 C 1028.679688 357.195312 1028.910156 356.992188 1029.28125 356.992188 L 1185.554688 356.992188 C 1185.933594 356.992188 1186.167969 357.195312 1186.289062 357.355469 C 1186.398438 357.496094 1186.5625 357.789062 1186.453125 358.191406 L 1166.347656 431.441406 C 1166.234375 431.859375 1165.859375 432.148438 1165.433594 432.148438 L 1049.394531 432.148438 C 1048.976562 432.148438 1048.605469 431.859375 1048.496094 431.457031 L 1028.375 358.191406 C 1028.277344 357.804688 1028.4375 357.503906 1028.546875 357.363281 Z M 1059.640625 394.570312 C 1059.640625 393.183594 1060.335938 391.890625 1061.492188 391.125 L 1084.882812 375.675781 C 1086.78125 374.421875 1089.34375 374.941406 1090.601562 376.847656 C 1091.855469 378.742188 1091.335938 381.304688 1089.4375 382.558594 L 1071.257812 394.5625 L 1089.4375 406.5625 C 1091.335938 407.820312 1091.863281 410.382812 1090.601562 412.277344 C 1089.800781 413.480469 1088.492188 414.128906 1087.152344 414.128906 C 1086.371094 414.128906 1085.578125 413.90625 1084.882812 413.449219 L 1061.492188 398 C 1060.335938 397.25 1059.640625 395.957031 1059.640625 394.570312 Z M 1125.390625 406.570312 L 1143.570312 394.570312 L 1125.390625 382.566406 C 1123.492188 381.3125 1122.964844 378.75 1124.226562 376.855469 C 1125.484375 374.949219 1128.042969 374.4375 1129.949219 375.683594 L 1153.335938 391.132812 C 1154.492188 391.898438 1155.191406 393.191406 1155.191406 394.578125 C 1155.191406 395.964844 1154.492188 397.257812 1153.335938 398.023438 L 1129.949219 413.472656 C 1129.242188 413.933594 1128.453125 414.152344 1127.675781 414.152344 C 1126.335938 414.152344 1125.027344 413.5 1124.226562 412.300781 C 1122.972656 410.390625 1123.492188 407.828125 1125.390625 406.570312 Z M 1095.074219 407.980469 L 1112.566406 377.09375 C 1113.6875 375.113281 1116.207031 374.40625 1118.191406 375.539062 C 1120.183594 376.660156 1120.878906 379.175781 1119.75 381.160156 L 1102.257812 412.046875 C 1101.496094 413.386719 1100.101562 414.136719 1098.660156 414.136719 C 1097.972656 414.136719 1097.273438 413.964844 1096.628906 413.601562 C 1094.644531 412.480469 1093.949219 409.964844 1095.074219 407.980469 Z M 1342.917969 425.242188 C 1342.917969 427.515625 1341.074219 429.367188 1338.785156 429.367188 L 1277.050781 429.367188 C 1274.765625 429.367188 1272.917969 427.515625 1272.917969 425.242188 C 1272.917969 422.964844 1274.765625 421.113281 1277.050781 421.113281 L 1338.785156 421.113281 C 1341.074219 421.113281 1342.917969 422.964844 1342.917969 425.242188 Z M 1342.917969 456.445312 C 1342.917969 458.722656 1341.074219 460.570312 1338.785156 460.570312 L 1237.285156 460.570312 C 1235 460.570312 1233.15625 458.722656 1233.15625 456.445312 C 1233.15625 454.167969 1235 452.316406 1237.285156 452.316406 L 1338.785156 452.316406 C 1341.074219 452.316406 1342.917969 454.167969 1342.917969 456.445312 Z M 1342.917969 456.445312 " fill-opacity="1" fill-rule="nonzero"></path></g></svg>