<svg xmlns="http://www.w3.org/2000/svg" xmlns:xlink="http://www.w3.org/1999/xlink" width="1920" viewBox="0 0 1440 809.999993" height="1080" preserveAspectRatio="xMidYMid meet"><defs><clipPath id="0bf9a830cb"><path d="M 1068.363281 240.035156 L 1380 240.035156 L 1380 570.035156 L 1068.363281 570.035156 Z M 1068.363281 240.035156 " clip-rule="nonzero"></path></clipPath></defs><rect x="-144" width="1728" fill="#ffffff" y="-80.999999" height="971.999992" fill-opacity="1"></rect><rect x="-144" width="1728" fill="#ffffff" y="-80.999999" height="971.999992" fill-opacity="1"></rect><g clip-path="url(#0bf9a830cb)"><path fill="#25a8e0" d="M 1115.902344 525.652344 C 1146.253906 555.171875 1185.359375 570.035156 1224.464844 570.035156 C 1310.011719 570.035156 1379.875 500.410156 1379.875 414.703125 C 1379.875 375.414062 1365.207031 337.953125 1338.527344 309.046875 C 1312.25 280.75 1276.605469 263.242188 1238.113281 259.78125 C 1233.222656 250.824219 1229.355469 245.53125 1225.890625 241.050781 C 1225.078125 240.035156 1223.445312 240.035156 1222.835938 241.050781 C 1220.1875 244.511719 1216.113281 250.007812 1210.613281 259.78125 C 1172.121094 263.242188 1136.679688 280.546875 1110.199219 309.046875 C 1083.722656 337.75 1068.855469 375.210938 1068.855469 414.5 C 1068.855469 457.863281 1086.777344 497.152344 1115.496094 525.246094 C 1115.699219 525.449219 1115.699219 525.652344 1115.902344 525.652344 Z M 1171.507812 517.308594 C 1171.507812 514.457031 1173.75 512.015625 1176.398438 512.015625 C 1178.230469 512.015625 1272.738281 512.015625 1272.738281 512.015625 C 1275.386719 512.015625 1277.625 514.457031 1277.625 517.308594 C 1277.625 520.15625 1275.386719 522.601562 1272.738281 522.601562 L 1176.398438 522.601562 C 1173.75 522.394531 1171.507812 520.15625 1171.507812 517.308594 Z M 1206.132812 278.917969 L 1243 278.917969 C 1251.148438 300.089844 1254 322.277344 1251.148438 343.246094 C 1249.3125 356.683594 1245.035156 367.878906 1243.609375 370.730469 C 1243 371.953125 1241.574219 372.765625 1240.148438 372.765625 C 1207.355469 372.765625 1206.746094 373.582031 1205.523438 370.730469 C 1198.597656 358.3125 1189.636719 320.855469 1206.132812 278.917969 Z M 1275.589844 444.019531 C 1275.589844 444.019531 1275.386719 444.019531 1275.589844 444.019531 C 1275.386719 444.019531 1275.179688 444.019531 1275.179688 444.019531 L 1172.121094 444.019531 C 1172.121094 444.019531 1171.914062 444.019531 1171.914062 444.019531 C 1164.992188 443.613281 1159.695312 437.910156 1159.695312 430.988281 C 1159.695312 423.863281 1165.601562 417.960938 1172.730469 417.960938 C 1173.136719 417.960938 1173.75 417.960938 1174.15625 417.960938 C 1175.175781 417.960938 1175.988281 417.351562 1176.191406 416.332031 C 1177.414062 409.816406 1184.542969 406.355469 1190.449219 409.207031 C 1191.0625 409.410156 1191.671875 409.410156 1192.082031 409.207031 C 1192.691406 409.003906 1193.097656 408.394531 1193.097656 407.78125 C 1194.117188 403.097656 1199.003906 400.25 1203.28125 401.472656 C 1204.503906 401.878906 1205.929688 400.65625 1205.726562 399.230469 C 1205.726562 396.992188 1206.542969 394.957031 1207.96875 393.53125 L 1240.757812 393.53125 C 1242.183594 394.957031 1243 397.195312 1243 399.230469 C 1242.796875 400.65625 1244.019531 401.878906 1245.445312 401.472656 C 1249.722656 400.25 1254.609375 402.894531 1255.628906 407.78125 C 1255.832031 409.003906 1257.257812 409.613281 1258.277344 409.003906 C 1263.980469 406.152344 1271.3125 409.410156 1272.328125 416.128906 C 1272.535156 417.144531 1273.347656 417.757812 1274.367188 417.757812 C 1282.308594 416.941406 1288.828125 423.050781 1288.828125 430.785156 C 1288.828125 437.910156 1282.921875 443.816406 1275.792969 443.816406 C 1275.996094 444.019531 1275.792969 444.019531 1275.589844 444.019531 Z M 1194.523438 346.503906 C 1195.746094 354.445312 1197.988281 362.585938 1201.042969 370.324219 C 1193.914062 372.359375 1188.820312 377.246094 1185.96875 384.777344 C 1182.914062 380.300781 1181.285156 375.003906 1181.285156 369.710938 C 1181.285156 359.941406 1186.378906 351.1875 1194.523438 346.503906 Z M 1185.359375 390.070312 C 1186.378906 391.292969 1188.210938 390.679688 1188.617188 389.257812 C 1190.859375 380.503906 1195.542969 375.414062 1203.078125 373.785156 C 1204.503906 375.414062 1206.746094 376.429688 1208.984375 376.429688 L 1213.058594 376.429688 L 1206.949219 389.867188 C 1204.300781 391.699219 1202.671875 394.550781 1202.058594 397.804688 C 1196.96875 397.398438 1192.082031 400.453125 1190.042969 405.136719 C 1182.914062 402.894531 1175.175781 406.96875 1172.933594 414.09375 C 1172.933594 414.09375 1172.933594 414.09375 1172.730469 414.09375 C 1163.359375 414.09375 1155.824219 421.625 1155.824219 430.988281 C 1155.824219 436.28125 1158.269531 440.964844 1162.140625 444.019531 L 1129.550781 444.019531 L 1129.550781 355.664062 L 1180.675781 355.664062 C 1178.433594 359.941406 1177.210938 364.625 1177.210938 369.710938 C 1177.414062 377.246094 1180.265625 384.371094 1185.359375 390.070312 Z M 1217.132812 376.429688 L 1232 376.429688 L 1238.113281 389.867188 L 1211.023438 389.867188 Z M 1293.105469 430.988281 C 1293.105469 421.828125 1285.773438 414.09375 1275.996094 414.09375 C 1273.753906 406.96875 1266.015625 402.894531 1258.886719 405.136719 C 1256.851562 400.453125 1251.960938 397.398438 1246.871094 397.804688 C 1246.460938 394.550781 1244.628906 391.902344 1241.980469 389.867188 L 1236.074219 376.632812 L 1240.148438 376.632812 C 1242.390625 376.632812 1244.628906 375.617188 1246.054688 373.988281 C 1253.386719 375.617188 1258.277344 380.707031 1260.515625 389.460938 C 1260.71875 390.273438 1261.535156 390.886719 1262.351562 390.886719 C 1262.960938 390.886719 1263.367188 390.679688 1263.777344 390.273438 C 1268.867188 384.574219 1271.71875 377.449219 1271.71875 369.710938 C 1271.71875 364.828125 1270.496094 359.941406 1268.257812 355.664062 L 1319.378906 355.664062 L 1319.378906 444.019531 L 1286.996094 444.019531 C 1290.660156 440.964844 1293.105469 436.078125 1293.105469 430.988281 Z M 1267.644531 369.507812 C 1267.644531 375.003906 1266.015625 380.300781 1262.960938 384.574219 C 1260.109375 376.839844 1255.015625 371.953125 1247.886719 370.121094 C 1250.945312 362.585938 1253.386719 354.039062 1254.40625 346.300781 C 1262.554688 351.1875 1267.644531 359.941406 1267.644531 369.507812 Z M 1193.914062 342.433594 C 1189.636719 344.671875 1185.96875 347.929688 1183.117188 351.796875 L 1127.71875 351.796875 C 1126.699219 351.796875 1125.882812 352.613281 1125.882812 353.628906 L 1125.882812 445.851562 C 1125.882812 446.867188 1126.699219 447.683594 1127.71875 447.683594 L 1321.214844 447.683594 C 1322.230469 447.683594 1323.046875 446.867188 1323.046875 445.851562 L 1323.046875 353.628906 C 1323.046875 352.613281 1322.230469 351.796875 1321.214844 351.796875 L 1265.8125 351.796875 C 1262.960938 347.929688 1259.292969 344.671875 1255.015625 342.433594 C 1255.015625 342.433594 1255.015625 342.230469 1255.015625 342.230469 L 1324.878906 342.230469 C 1328.75 342.230469 1331.804688 345.691406 1331.804688 349.761719 L 1331.804688 457.453125 L 1116.921875 457.453125 L 1116.921875 349.761719 C 1116.921875 345.691406 1119.976562 342.230469 1123.847656 342.230469 L 1193.914062 342.433594 C 1193.914062 342.230469 1193.914062 342.230469 1193.914062 342.433594 Z M 1116.921875 477.8125 L 1116.921875 461.121094 L 1332.007812 461.121094 L 1332.007812 477.8125 C 1332.007812 482.085938 1328.75 485.34375 1325.082031 485.34375 L 1123.847656 485.34375 C 1120.179688 485.34375 1116.921875 482.085938 1116.921875 477.8125 Z M 1256.035156 489.214844 L 1264.589844 508.144531 L 1184.339844 508.144531 L 1192.894531 489.214844 Z M 1176.398438 526.265625 L 1327.121094 526.265625 C 1298.605469 552.324219 1261.941406 566.164062 1224.871094 566.164062 C 1185.96875 566.164062 1149.917969 551.304688 1122.421875 526.265625 Z M 1376.207031 414.5 C 1376.207031 456.640625 1358.894531 494.914062 1330.988281 522.394531 L 1279.664062 522.394531 C 1280.679688 520.972656 1281.292969 519.140625 1281.292969 517.101562 C 1281.292969 512.015625 1277.421875 507.941406 1272.535156 507.941406 L 1268.664062 507.941406 L 1260.109375 489.007812 L 1324.878906 489.007812 C 1330.785156 489.007812 1335.675781 483.921875 1335.675781 477.609375 L 1335.675781 349.761719 C 1335.675781 343.453125 1330.785156 338.363281 1324.878906 338.363281 L 1255.425781 338.363281 C 1257.867188 312.507812 1251.960938 286.449219 1240.351562 263.851562 C 1316.730469 271.792969 1376.207031 337.34375 1376.207031 414.5 Z M 1224.464844 245.328125 C 1230.371094 253.265625 1236.6875 264.054688 1241.371094 275.050781 L 1207.558594 275.050781 C 1211.835938 265.074219 1216.523438 256.523438 1224.464844 245.328125 Z M 1072.722656 414.5 C 1072.722656 337.34375 1131.996094 271.792969 1208.578125 263.851562 C 1206.746094 267.515625 1204.707031 271.996094 1203.078125 276.269531 C 1195.746094 293.574219 1191.671875 316.578125 1193.507812 338.363281 L 1123.847656 338.363281 C 1117.941406 338.363281 1113.050781 343.453125 1113.050781 349.761719 C 1113.050781 441.167969 1113.050781 472.925781 1113.050781 477.8125 C 1113.050781 484.125 1117.941406 489.214844 1123.847656 489.214844 L 1188.617188 489.214844 L 1180.0625 508.144531 L 1176.191406 508.144531 C 1171.304688 508.144531 1167.433594 512.21875 1167.433594 517.308594 C 1167.433594 519.34375 1168.046875 521.175781 1169.0625 522.601562 L 1117.941406 522.601562 C 1090.035156 494.914062 1072.722656 456.84375 1072.722656 414.5 Z M 1072.722656 414.5 " fill-opacity="1" fill-rule="nonzero"></path></g><path fill="#25a8e0" d="M 1171.507812 539.902344 L 1217.949219 539.902344 C 1218.964844 539.902344 1219.78125 539.089844 1219.78125 538.070312 C 1219.78125 537.054688 1218.964844 536.238281 1217.949219 536.238281 L 1171.507812 536.238281 C 1170.488281 536.238281 1169.675781 537.054688 1169.675781 538.070312 C 1169.675781 539.089844 1170.488281 539.902344 1171.507812 539.902344 Z M 1171.507812 539.902344 " fill-opacity="1" fill-rule="nonzero"></path><path fill="#25a8e0" d="M 1225.484375 539.902344 L 1233.222656 539.902344 C 1234.242188 539.902344 1235.054688 539.089844 1235.054688 538.070312 C 1235.054688 537.054688 1234.242188 536.238281 1233.222656 536.238281 L 1225.484375 536.238281 C 1224.464844 536.238281 1223.652344 537.054688 1223.652344 538.070312 C 1223.652344 539.089844 1224.464844 539.902344 1225.484375 539.902344 Z M 1225.484375 539.902344 " fill-opacity="1" fill-rule="nonzero"></path><path fill="#25a8e0" d="M 1239.742188 539.902344 L 1244.832031 539.902344 C 1245.851562 539.902344 1246.667969 539.089844 1246.667969 538.070312 C 1246.667969 537.054688 1245.851562 536.238281 1244.832031 536.238281 L 1239.742188 536.238281 C 1238.722656 536.238281 1237.90625 537.054688 1237.90625 538.070312 C 1237.90625 539.089844 1238.722656 539.902344 1239.742188 539.902344 Z M 1239.742188 539.902344 " fill-opacity="1" fill-rule="nonzero"></path><path fill="#25a8e0" d="M 1228.945312 547.234375 C 1228.945312 548.25 1229.761719 549.066406 1230.78125 549.066406 L 1277.21875 549.066406 C 1278.238281 549.066406 1279.050781 548.25 1279.050781 547.234375 C 1279.050781 546.214844 1278.238281 545.402344 1277.21875 545.402344 L 1230.78125 545.402344 C 1229.761719 545.402344 1228.945312 546.214844 1228.945312 547.234375 Z M 1228.945312 547.234375 " fill-opacity="1" fill-rule="nonzero"></path><path fill="#25a8e0" d="M 1213.875 547.234375 C 1213.875 548.25 1214.6875 549.066406 1215.707031 549.066406 L 1223.445312 549.066406 C 1224.464844 549.066406 1225.28125 548.25 1225.28125 547.234375 C 1225.28125 546.214844 1224.464844 545.402344 1223.445312 545.402344 L 1215.707031 545.402344 C 1214.6875 545.402344 1213.875 546.214844 1213.875 547.234375 Z M 1213.875 547.234375 " fill-opacity="1" fill-rule="nonzero"></path><path fill="#25a8e0" d="M 1209.1875 545.402344 L 1204.097656 545.402344 C 1203.078125 545.402344 1202.265625 546.214844 1202.265625 547.234375 C 1202.265625 548.25 1203.078125 549.066406 1204.097656 549.066406 L 1209.1875 549.066406 C 1210.207031 549.066406 1211.023438 548.25 1211.023438 547.234375 C 1211.023438 546.214844 1210.207031 545.402344 1209.1875 545.402344 Z M 1209.1875 545.402344 " fill-opacity="1" fill-rule="nonzero"></path><path fill="#25a8e0" d="M 1224.464844 482.496094 C 1229.355469 482.496094 1233.222656 478.421875 1233.222656 473.335938 C 1233.222656 468.246094 1229.355469 464.171875 1224.464844 464.171875 C 1219.578125 464.171875 1215.707031 468.246094 1215.707031 473.335938 C 1215.707031 478.421875 1219.578125 482.496094 1224.464844 482.496094 Z M 1224.464844 468.039062 C 1227.113281 468.039062 1229.355469 470.484375 1229.355469 473.335938 C 1229.355469 476.183594 1227.113281 478.628906 1224.464844 478.628906 C 1221.816406 478.628906 1219.578125 476.183594 1219.578125 473.335938 C 1219.578125 470.484375 1221.816406 468.039062 1224.464844 468.039062 Z M 1224.464844 468.039062 " fill-opacity="1" fill-rule="nonzero"></path><path fill="#25a8e0" d="M 1224.464844 325.945312 C 1233.835938 325.945312 1241.371094 318.410156 1241.371094 309.046875 C 1241.371094 299.683594 1233.628906 292.148438 1224.464844 292.148438 C 1224.464844 292.148438 1224.261719 292.148438 1224.261719 292.148438 C 1215.097656 292.351562 1207.558594 299.886719 1207.558594 309.046875 C 1207.558594 318.207031 1215.097656 325.945312 1224.464844 325.945312 Z M 1224.464844 295.8125 C 1231.796875 295.8125 1237.703125 301.71875 1237.703125 308.84375 C 1237.703125 316.171875 1231.796875 321.871094 1224.464844 321.871094 C 1217.132812 321.871094 1211.429688 315.96875 1211.429688 308.84375 C 1211.429688 301.71875 1217.132812 295.8125 1224.464844 295.8125 Z M 1224.464844 295.8125 " fill-opacity="1" fill-rule="nonzero"></path></svg>