<svg xmlns="http://www.w3.org/2000/svg" xmlns:xlink="http://www.w3.org/1999/xlink" width="1920" viewBox="0 0 1440 809.999993" height="1080" preserveAspectRatio="xMidYMid meet"><defs><clipPath id="a25ade2de7"><path d="M 1274 239.277344 L 1331 239.277344 L 1331 263 L 1274 263 Z M 1274 239.277344 " clip-rule="nonzero"></path></clipPath><clipPath id="9f03bed48d"><path d="M 1250 239.277344 L 1258 239.277344 L 1258 248 L 1250 248 Z M 1250 239.277344 " clip-rule="nonzero"></path></clipPath><clipPath id="78ea9cec47"><path d="M 1115 335 L 1380.394531 335 L 1380.394531 534 L 1115 534 Z M 1115 335 " clip-rule="nonzero"></path></clipPath><clipPath id="837153b164"><path d="M 1040.644531 532 L 1373 532 L 1373 549 L 1040.644531 549 Z M 1040.644531 532 " clip-rule="nonzero"></path></clipPath><clipPath id="c5cc06e82e"><path d="M 1277 557 L 1307 557 L 1307 570.777344 L 1277 570.777344 Z M 1277 557 " clip-rule="nonzero"></path></clipPath></defs><path fill="#faf9f9" d="M 1185.390625 519.574219 L 1230.945312 519.574219 C 1232.796875 519.574219 1234.296875 518.074219 1234.296875 516.222656 L 1234.296875 257.800781 C 1234.296875 256.042969 1232.871094 254.613281 1231.109375 254.613281 L 1185.390625 254.613281 L 1185.390625 519.574219 " fill-opacity="1" fill-rule="nonzero"></path><path fill="#25a8e0" d="M 1228.984375 519.984375 L 1185.390625 519.984375 C 1185.164062 519.984375 1184.980469 519.800781 1184.980469 519.574219 L 1184.980469 254.617188 C 1184.980469 254.390625 1185.164062 254.203125 1185.390625 254.203125 L 1231.289062 254.203125 C 1233.175781 254.203125 1234.707031 255.738281 1234.707031 257.621094 L 1234.8125 327.601562 C 1234.8125 327.828125 1234.628906 328.011719 1234.402344 328.011719 C 1234.175781 328.007812 1233.988281 327.828125 1233.988281 327.601562 L 1233.886719 257.621094 C 1233.886719 256.191406 1232.722656 255.027344 1231.289062 255.027344 L 1185.804688 255.027344 L 1185.804688 519.164062 L 1228.984375 519.164062 C 1229.210938 519.164062 1229.394531 519.347656 1229.394531 519.574219 C 1229.394531 519.800781 1229.210938 519.984375 1228.984375 519.984375 " fill-opacity="1" fill-rule="nonzero"></path><path fill="#25a8e0" d="M 1062.84375 509.480469 L 1199.890625 509.480469 L 1199.890625 275.238281 L 1062.84375 275.238281 L 1062.84375 509.480469 " fill-opacity="1" fill-rule="nonzero"></path><path fill="#faf9f9" d="M 1056.222656 295.859375 L 1206.511719 295.859375 L 1206.511719 254.613281 L 1056.222656 254.613281 L 1056.222656 295.859375 " fill-opacity="1" fill-rule="nonzero"></path><path fill="#25a8e0" d="M 1056.636719 295.449219 L 1206.101562 295.449219 L 1206.101562 255.027344 L 1056.636719 255.027344 Z M 1206.511719 296.273438 L 1056.222656 296.273438 C 1055.996094 296.273438 1055.8125 296.089844 1055.8125 295.863281 L 1055.8125 254.617188 C 1055.8125 254.390625 1055.996094 254.203125 1056.222656 254.203125 L 1206.511719 254.203125 C 1206.738281 254.203125 1206.925781 254.390625 1206.925781 254.617188 L 1206.925781 295.863281 C 1206.925781 296.089844 1206.738281 296.273438 1206.511719 296.273438 " fill-opacity="1" fill-rule="nonzero"></path><path fill="#faf9f9" d="M 1059.304688 263.589844 C 1059.304688 260.332031 1061.945312 257.691406 1065.207031 257.691406 L 1197.53125 257.691406 C 1200.792969 257.691406 1203.433594 260.332031 1203.433594 263.589844 L 1203.433594 286.878906 C 1203.433594 290.136719 1200.792969 292.78125 1197.53125 292.78125 L 1065.207031 292.78125 C 1061.945312 292.78125 1059.304688 290.136719 1059.304688 286.878906 L 1059.304688 263.589844 " fill-opacity="1" fill-rule="nonzero"></path><path fill="#25a8e0" d="M 1065.207031 258.101562 C 1062.179688 258.101562 1059.714844 260.566406 1059.714844 263.59375 L 1059.714844 286.878906 C 1059.714844 289.90625 1062.179688 292.371094 1065.207031 292.371094 L 1197.53125 292.371094 C 1200.558594 292.371094 1203.019531 289.90625 1203.019531 286.878906 L 1203.019531 263.59375 C 1203.019531 260.566406 1200.558594 258.101562 1197.53125 258.101562 Z M 1197.53125 293.191406 L 1065.207031 293.191406 C 1061.726562 293.191406 1058.890625 290.363281 1058.890625 286.878906 L 1058.890625 263.59375 C 1058.890625 260.113281 1061.726562 257.28125 1065.207031 257.28125 L 1197.53125 257.28125 C 1201.011719 257.28125 1203.847656 260.113281 1203.847656 263.59375 L 1203.847656 286.878906 C 1203.847656 290.363281 1201.011719 293.191406 1197.53125 293.191406 " fill-opacity="1" fill-rule="nonzero"></path><path fill="#25a8e0" d="M 1186.375 271.988281 C 1184.582031 271.988281 1183.125 273.445312 1183.125 275.238281 C 1183.125 277.027344 1184.582031 278.488281 1186.375 278.488281 C 1188.167969 278.488281 1189.625 277.027344 1189.625 275.238281 C 1189.625 273.445312 1188.167969 271.988281 1186.375 271.988281 Z M 1186.375 279.308594 C 1184.128906 279.308594 1182.300781 277.480469 1182.300781 275.238281 C 1182.300781 272.992188 1184.128906 271.167969 1186.375 271.167969 C 1188.621094 271.167969 1190.449219 272.992188 1190.449219 275.238281 C 1190.449219 277.480469 1188.621094 279.308594 1186.375 279.308594 " fill-opacity="1" fill-rule="nonzero"></path><path fill="#25a8e0" d="M 1174.671875 271.988281 C 1172.878906 271.988281 1171.421875 273.445312 1171.421875 275.238281 C 1171.421875 277.027344 1172.878906 278.488281 1174.671875 278.488281 C 1176.464844 278.488281 1177.921875 277.027344 1177.921875 275.238281 C 1177.921875 273.445312 1176.464844 271.988281 1174.671875 271.988281 Z M 1174.671875 279.308594 C 1172.425781 279.308594 1170.597656 277.480469 1170.597656 275.238281 C 1170.597656 272.992188 1172.425781 271.167969 1174.671875 271.167969 C 1176.917969 271.167969 1178.742188 272.992188 1178.742188 275.238281 C 1178.742188 277.480469 1176.917969 279.308594 1174.671875 279.308594 " fill-opacity="1" fill-rule="nonzero"></path><path fill="#25a8e0" d="M 1162.96875 271.988281 C 1161.175781 271.988281 1159.71875 273.445312 1159.71875 275.238281 C 1159.71875 277.027344 1161.175781 278.488281 1162.96875 278.488281 C 1164.761719 278.488281 1166.21875 277.027344 1166.21875 275.238281 C 1166.21875 273.445312 1164.761719 271.988281 1162.96875 271.988281 Z M 1162.96875 279.308594 C 1160.722656 279.308594 1158.894531 277.480469 1158.894531 275.238281 C 1158.894531 272.992188 1160.722656 271.167969 1162.96875 271.167969 C 1165.214844 271.167969 1167.042969 272.992188 1167.042969 275.238281 C 1167.042969 277.480469 1165.214844 279.308594 1162.96875 279.308594 " fill-opacity="1" fill-rule="nonzero"></path><path fill="#25a8e0" d="M 1143.230469 286.890625 L 1148.410156 286.890625 L 1148.410156 263.585938 L 1143.230469 263.585938 Z M 1148.820312 287.714844 L 1142.816406 287.714844 C 1142.589844 287.714844 1142.40625 287.53125 1142.40625 287.304688 L 1142.40625 263.171875 C 1142.40625 262.945312 1142.589844 262.761719 1142.816406 262.761719 L 1148.820312 262.761719 C 1149.050781 262.761719 1149.234375 262.945312 1149.234375 263.171875 L 1149.234375 287.304688 C 1149.234375 287.53125 1149.050781 287.714844 1148.820312 287.714844 " fill-opacity="1" fill-rule="nonzero"></path><path fill="#25a8e0" d="M 1134.453125 286.890625 L 1139.632812 286.890625 L 1139.632812 263.585938 L 1134.453125 263.585938 Z M 1140.046875 287.714844 L 1134.039062 287.714844 C 1133.8125 287.714844 1133.628906 287.53125 1133.628906 287.304688 L 1133.628906 263.171875 C 1133.628906 262.945312 1133.8125 262.761719 1134.039062 262.761719 L 1140.046875 262.761719 C 1140.273438 262.761719 1140.457031 262.945312 1140.457031 263.171875 L 1140.457031 287.304688 C 1140.457031 287.53125 1140.273438 287.714844 1140.046875 287.714844 " fill-opacity="1" fill-rule="nonzero"></path><path fill="#25a8e0" d="M 1125.675781 286.890625 L 1130.855469 286.890625 L 1130.855469 263.585938 L 1125.675781 263.585938 Z M 1131.269531 287.714844 L 1125.261719 287.714844 C 1125.035156 287.714844 1124.851562 287.53125 1124.851562 287.304688 L 1124.851562 263.171875 C 1124.851562 262.945312 1125.035156 262.761719 1125.261719 262.761719 L 1131.269531 262.761719 C 1131.496094 262.761719 1131.679688 262.945312 1131.679688 263.171875 L 1131.679688 287.304688 C 1131.679688 287.53125 1131.496094 287.714844 1131.269531 287.714844 " fill-opacity="1" fill-rule="nonzero"></path><path fill="#25a8e0" d="M 1116.898438 286.890625 L 1122.082031 286.890625 L 1122.082031 263.585938 L 1116.898438 263.585938 Z M 1122.492188 287.714844 L 1116.488281 287.714844 C 1116.261719 287.714844 1116.074219 287.53125 1116.074219 287.304688 L 1116.074219 263.171875 C 1116.074219 262.945312 1116.261719 262.761719 1116.488281 262.761719 L 1122.492188 262.761719 C 1122.71875 262.761719 1122.902344 262.945312 1122.902344 263.171875 L 1122.902344 287.304688 C 1122.902344 287.53125 1122.71875 287.714844 1122.492188 287.714844 " fill-opacity="1" fill-rule="nonzero"></path><path fill="#25a8e0" d="M 1108.121094 286.890625 L 1113.304688 286.890625 L 1113.304688 263.585938 L 1108.121094 263.585938 Z M 1113.714844 287.714844 L 1107.710938 287.714844 C 1107.484375 287.714844 1107.296875 287.53125 1107.296875 287.304688 L 1107.296875 263.171875 C 1107.296875 262.945312 1107.484375 262.761719 1107.710938 262.761719 L 1113.714844 262.761719 C 1113.941406 262.761719 1114.125 262.945312 1114.125 263.171875 L 1114.125 287.304688 C 1114.125 287.53125 1113.941406 287.714844 1113.714844 287.714844 " fill-opacity="1" fill-rule="nonzero"></path><path fill="#25a8e0" d="M 1099.34375 286.890625 L 1104.527344 286.890625 L 1104.527344 263.585938 L 1099.34375 263.585938 Z M 1104.9375 287.714844 L 1098.933594 287.714844 C 1098.707031 287.714844 1098.523438 287.53125 1098.523438 287.304688 L 1098.523438 263.171875 C 1098.523438 262.945312 1098.707031 262.761719 1098.933594 262.761719 L 1104.9375 262.761719 C 1105.167969 262.761719 1105.351562 262.945312 1105.351562 263.171875 L 1105.351562 287.304688 C 1105.351562 287.53125 1105.167969 287.714844 1104.9375 287.714844 " fill-opacity="1" fill-rule="nonzero"></path><path fill="#25a8e0" d="M 1090.15625 287.300781 L 1096.164062 287.300781 L 1096.164062 263.171875 L 1090.15625 263.171875 L 1090.15625 287.300781 " fill-opacity="1" fill-rule="nonzero"></path><path fill="#25a8e0" d="M 1090.566406 286.890625 L 1095.75 286.890625 L 1095.75 263.585938 L 1090.566406 263.585938 Z M 1096.164062 287.714844 L 1090.15625 287.714844 C 1089.929688 287.714844 1089.746094 287.53125 1089.746094 287.304688 L 1089.746094 263.171875 C 1089.746094 262.945312 1089.929688 262.761719 1090.15625 262.761719 L 1096.164062 262.761719 C 1096.390625 262.761719 1096.574219 262.945312 1096.574219 263.171875 L 1096.574219 287.304688 C 1096.574219 287.53125 1096.390625 287.714844 1096.164062 287.714844 " fill-opacity="1" fill-rule="nonzero"></path><path fill="#25a8e0" d="M 1081.792969 286.890625 L 1086.972656 286.890625 L 1086.972656 263.585938 L 1081.792969 263.585938 Z M 1087.386719 287.714844 L 1081.378906 287.714844 C 1081.152344 287.714844 1080.96875 287.53125 1080.96875 287.304688 L 1080.96875 263.171875 C 1080.96875 262.945312 1081.152344 262.761719 1081.378906 262.761719 L 1087.386719 262.761719 C 1087.613281 262.761719 1087.796875 262.945312 1087.796875 263.171875 L 1087.796875 287.304688 C 1087.796875 287.53125 1087.613281 287.714844 1087.386719 287.714844 " fill-opacity="1" fill-rule="nonzero"></path><path fill="#25a8e0" d="M 1072.605469 287.300781 L 1078.609375 287.300781 L 1078.609375 263.171875 L 1072.605469 263.171875 L 1072.605469 287.300781 " fill-opacity="1" fill-rule="nonzero"></path><path fill="#25a8e0" d="M 1073.015625 286.890625 L 1078.195312 286.890625 L 1078.195312 263.585938 L 1073.015625 263.585938 Z M 1078.609375 287.714844 L 1072.605469 287.714844 C 1072.375 287.714844 1072.191406 287.53125 1072.191406 287.304688 L 1072.191406 263.171875 C 1072.191406 262.945312 1072.375 262.761719 1072.605469 262.761719 L 1078.609375 262.761719 C 1078.835938 262.761719 1079.019531 262.945312 1079.019531 263.171875 L 1079.019531 287.304688 C 1079.019531 287.53125 1078.835938 287.714844 1078.609375 287.714844 " fill-opacity="1" fill-rule="nonzero"></path><path fill="#faf9f9" d="M 1056.222656 340.550781 L 1206.515625 340.550781 L 1206.515625 299.304688 L 1056.222656 299.304688 L 1056.222656 340.550781 " fill-opacity="1" fill-rule="nonzero"></path><path fill="#25a8e0" d="M 1056.636719 340.140625 L 1206.101562 340.140625 L 1206.101562 299.714844 L 1056.636719 299.714844 Z M 1206.515625 340.960938 L 1056.222656 340.960938 C 1055.996094 340.960938 1055.8125 340.777344 1055.8125 340.550781 L 1055.8125 299.304688 C 1055.8125 299.078125 1055.996094 298.894531 1056.222656 298.894531 L 1206.515625 298.894531 C 1206.742188 298.894531 1206.925781 299.078125 1206.925781 299.304688 L 1206.925781 340.550781 C 1206.925781 340.777344 1206.742188 340.960938 1206.515625 340.960938 " fill-opacity="1" fill-rule="nonzero"></path><path fill="#faf9f9" d="M 1065.207031 302.382812 L 1197.527344 302.382812 C 1200.789062 302.382812 1203.429688 305.027344 1203.429688 308.285156 L 1203.429688 331.574219 C 1203.429688 334.832031 1200.789062 337.472656 1197.527344 337.472656 L 1065.207031 337.472656 C 1061.945312 337.472656 1059.304688 334.832031 1059.304688 331.574219 L 1059.304688 308.285156 C 1059.304688 305.027344 1061.945312 302.382812 1065.207031 302.382812 " fill-opacity="1" fill-rule="nonzero"></path><path fill="#25a8e0" d="M 1065.207031 302.792969 C 1062.179688 302.792969 1059.714844 305.253906 1059.714844 308.285156 L 1059.714844 331.570312 C 1059.714844 334.597656 1062.179688 337.058594 1065.207031 337.058594 L 1197.53125 337.058594 C 1200.558594 337.058594 1203.019531 334.597656 1203.019531 331.570312 L 1203.019531 308.285156 C 1203.019531 305.253906 1200.558594 302.792969 1197.53125 302.792969 Z M 1197.53125 337.882812 L 1065.207031 337.882812 C 1061.726562 337.882812 1058.890625 335.050781 1058.890625 331.570312 L 1058.890625 308.285156 C 1058.890625 304.804688 1061.726562 301.96875 1065.207031 301.96875 L 1197.53125 301.96875 C 1201.011719 301.96875 1203.847656 304.804688 1203.847656 308.285156 L 1203.847656 331.570312 C 1203.847656 335.050781 1201.011719 337.882812 1197.53125 337.882812 " fill-opacity="1" fill-rule="nonzero"></path><path fill="#25a8e0" d="M 1186.375 316.679688 C 1184.582031 316.679688 1183.125 318.136719 1183.125 319.929688 C 1183.125 321.71875 1184.582031 323.175781 1186.375 323.175781 C 1188.167969 323.175781 1189.625 321.71875 1189.625 319.929688 C 1189.625 318.136719 1188.167969 316.679688 1186.375 316.679688 Z M 1186.375 324 C 1184.128906 324 1182.300781 322.171875 1182.300781 319.929688 C 1182.300781 317.683594 1184.128906 315.855469 1186.375 315.855469 C 1188.621094 315.855469 1190.449219 317.683594 1190.449219 319.929688 C 1190.449219 322.171875 1188.621094 324 1186.375 324 " fill-opacity="1" fill-rule="nonzero"></path><path fill="#25a8e0" d="M 1174.671875 316.679688 C 1172.878906 316.679688 1171.421875 318.136719 1171.421875 319.929688 C 1171.421875 321.71875 1172.878906 323.175781 1174.671875 323.175781 C 1176.464844 323.175781 1177.921875 321.71875 1177.921875 319.929688 C 1177.921875 318.136719 1176.464844 316.679688 1174.671875 316.679688 Z M 1174.671875 324 C 1172.425781 324 1170.597656 322.171875 1170.597656 319.929688 C 1170.597656 317.683594 1172.425781 315.855469 1174.671875 315.855469 C 1176.917969 315.855469 1178.746094 317.683594 1178.746094 319.929688 C 1178.746094 322.171875 1176.917969 324 1174.671875 324 " fill-opacity="1" fill-rule="nonzero"></path><path fill="#25a8e0" d="M 1162.96875 316.679688 C 1161.175781 316.679688 1159.71875 318.136719 1159.71875 319.929688 C 1159.71875 321.71875 1161.175781 323.175781 1162.96875 323.175781 C 1164.761719 323.175781 1166.21875 321.71875 1166.21875 319.929688 C 1166.21875 318.136719 1164.761719 316.679688 1162.96875 316.679688 Z M 1162.96875 324 C 1160.722656 324 1158.894531 322.171875 1158.894531 319.929688 C 1158.894531 317.683594 1160.722656 315.855469 1162.96875 315.855469 C 1165.214844 315.855469 1167.042969 317.683594 1167.042969 319.929688 C 1167.042969 322.171875 1165.214844 324 1162.96875 324 " fill-opacity="1" fill-rule="nonzero"></path><path fill="#25a8e0" d="M 1143.230469 331.582031 L 1148.410156 331.582031 L 1148.410156 308.273438 L 1143.230469 308.273438 Z M 1148.820312 332.402344 L 1142.816406 332.402344 C 1142.589844 332.402344 1142.40625 332.21875 1142.40625 331.992188 L 1142.40625 307.863281 C 1142.40625 307.636719 1142.589844 307.449219 1142.816406 307.449219 L 1148.820312 307.449219 C 1149.050781 307.449219 1149.234375 307.636719 1149.234375 307.863281 L 1149.234375 331.992188 C 1149.234375 332.21875 1149.050781 332.402344 1148.820312 332.402344 " fill-opacity="1" fill-rule="nonzero"></path><path fill="#25a8e0" d="M 1134.453125 331.582031 L 1139.632812 331.582031 L 1139.632812 308.273438 L 1134.453125 308.273438 Z M 1140.046875 332.402344 L 1134.039062 332.402344 C 1133.8125 332.402344 1133.628906 332.21875 1133.628906 331.992188 L 1133.628906 307.863281 C 1133.628906 307.636719 1133.8125 307.449219 1134.039062 307.449219 L 1140.046875 307.449219 C 1140.273438 307.449219 1140.457031 307.636719 1140.457031 307.863281 L 1140.457031 331.992188 C 1140.457031 332.21875 1140.273438 332.402344 1140.046875 332.402344 " fill-opacity="1" fill-rule="nonzero"></path><path fill="#25a8e0" d="M 1125.675781 331.582031 L 1130.859375 331.582031 L 1130.859375 308.273438 L 1125.675781 308.273438 Z M 1131.269531 332.402344 L 1125.265625 332.402344 C 1125.035156 332.402344 1124.851562 332.21875 1124.851562 331.992188 L 1124.851562 307.863281 C 1124.851562 307.636719 1125.035156 307.449219 1125.265625 307.449219 L 1131.269531 307.449219 C 1131.496094 307.449219 1131.679688 307.636719 1131.679688 307.863281 L 1131.679688 331.992188 C 1131.679688 332.21875 1131.496094 332.402344 1131.269531 332.402344 " fill-opacity="1" fill-rule="nonzero"></path><path fill="#25a8e0" d="M 1116.488281 331.992188 L 1122.492188 331.992188 L 1122.492188 307.859375 L 1116.488281 307.859375 L 1116.488281 331.992188 " fill-opacity="1" fill-rule="nonzero"></path><path fill="#25a8e0" d="M 1116.898438 331.582031 L 1122.082031 331.582031 L 1122.082031 308.273438 L 1116.898438 308.273438 Z M 1122.492188 332.402344 L 1116.488281 332.402344 C 1116.261719 332.402344 1116.074219 332.21875 1116.074219 331.992188 L 1116.074219 307.863281 C 1116.074219 307.636719 1116.261719 307.449219 1116.488281 307.449219 L 1122.492188 307.449219 C 1122.71875 307.449219 1122.902344 307.636719 1122.902344 307.863281 L 1122.902344 331.992188 C 1122.902344 332.21875 1122.71875 332.402344 1122.492188 332.402344 " fill-opacity="1" fill-rule="nonzero"></path><path fill="#25a8e0" d="M 1108.121094 331.582031 L 1113.304688 331.582031 L 1113.304688 308.273438 L 1108.121094 308.273438 Z M 1113.714844 332.402344 L 1107.710938 332.402344 C 1107.484375 332.402344 1107.300781 332.21875 1107.300781 331.992188 L 1107.300781 307.863281 C 1107.300781 307.636719 1107.484375 307.449219 1107.710938 307.449219 L 1113.714844 307.449219 C 1113.941406 307.449219 1114.128906 307.636719 1114.128906 307.863281 L 1114.128906 331.992188 C 1114.128906 332.21875 1113.941406 332.402344 1113.714844 332.402344 " fill-opacity="1" fill-rule="nonzero"></path><path fill="#25a8e0" d="M 1098.933594 331.992188 L 1104.941406 331.992188 L 1104.941406 307.859375 L 1098.933594 307.859375 L 1098.933594 331.992188 " fill-opacity="1" fill-rule="nonzero"></path><path fill="#25a8e0" d="M 1099.34375 331.582031 L 1104.527344 331.582031 L 1104.527344 308.273438 L 1099.34375 308.273438 Z M 1104.9375 332.402344 L 1098.933594 332.402344 C 1098.707031 332.402344 1098.523438 332.21875 1098.523438 331.992188 L 1098.523438 307.863281 C 1098.523438 307.636719 1098.707031 307.449219 1098.933594 307.449219 L 1104.9375 307.449219 C 1105.167969 307.449219 1105.351562 307.636719 1105.351562 307.863281 L 1105.351562 331.992188 C 1105.351562 332.21875 1105.167969 332.402344 1104.9375 332.402344 " fill-opacity="1" fill-rule="nonzero"></path><path fill="#25a8e0" d="M 1090.570312 331.582031 L 1095.75 331.582031 L 1095.75 308.273438 L 1090.570312 308.273438 Z M 1096.164062 332.402344 L 1090.15625 332.402344 C 1089.929688 332.402344 1089.746094 332.21875 1089.746094 331.992188 L 1089.746094 307.863281 C 1089.746094 307.636719 1089.929688 307.449219 1090.15625 307.449219 L 1096.164062 307.449219 C 1096.390625 307.449219 1096.574219 307.636719 1096.574219 307.863281 L 1096.574219 331.992188 C 1096.574219 332.21875 1096.390625 332.402344 1096.164062 332.402344 " fill-opacity="1" fill-rule="nonzero"></path><path fill="#25a8e0" d="M 1081.792969 331.582031 L 1086.972656 331.582031 L 1086.972656 308.273438 L 1081.792969 308.273438 Z M 1087.386719 332.402344 L 1081.378906 332.402344 C 1081.152344 332.402344 1080.96875 332.21875 1080.96875 331.992188 L 1080.96875 307.863281 C 1080.96875 307.636719 1081.152344 307.449219 1081.378906 307.449219 L 1087.386719 307.449219 C 1087.613281 307.449219 1087.796875 307.636719 1087.796875 307.863281 L 1087.796875 331.992188 C 1087.796875 332.21875 1087.613281 332.402344 1087.386719 332.402344 " fill-opacity="1" fill-rule="nonzero"></path><path fill="#25a8e0" d="M 1073.015625 331.582031 L 1078.195312 331.582031 L 1078.195312 308.273438 L 1073.015625 308.273438 Z M 1078.609375 332.402344 L 1072.605469 332.402344 C 1072.375 332.402344 1072.191406 332.21875 1072.191406 331.992188 L 1072.191406 307.863281 C 1072.191406 307.636719 1072.375 307.449219 1072.605469 307.449219 L 1078.609375 307.449219 C 1078.835938 307.449219 1079.019531 307.636719 1079.019531 307.863281 L 1079.019531 331.992188 C 1079.019531 332.21875 1078.835938 332.402344 1078.609375 332.402344 " fill-opacity="1" fill-rule="nonzero"></path><path fill="#faf9f9" d="M 1056.222656 385.242188 L 1206.511719 385.242188 L 1206.511719 343.996094 L 1056.222656 343.996094 L 1056.222656 385.242188 " fill-opacity="1" fill-rule="nonzero"></path><path fill="#25a8e0" d="M 1056.636719 384.832031 L 1206.101562 384.832031 L 1206.101562 344.40625 L 1056.636719 344.40625 Z M 1206.511719 385.652344 L 1056.222656 385.652344 C 1055.996094 385.652344 1055.8125 385.46875 1055.8125 385.242188 L 1055.8125 343.996094 C 1055.8125 343.769531 1055.996094 343.582031 1056.222656 343.582031 L 1206.511719 343.582031 C 1206.738281 343.582031 1206.925781 343.769531 1206.925781 343.996094 L 1206.925781 385.242188 C 1206.925781 385.46875 1206.738281 385.652344 1206.511719 385.652344 " fill-opacity="1" fill-rule="nonzero"></path><path fill="#faf9f9" d="M 1065.207031 347.074219 L 1197.53125 347.074219 C 1200.789062 347.074219 1203.433594 349.714844 1203.433594 352.972656 L 1203.433594 376.261719 C 1203.433594 379.519531 1200.789062 382.164062 1197.53125 382.164062 L 1065.207031 382.164062 C 1061.945312 382.164062 1059.304688 379.519531 1059.304688 376.261719 L 1059.304688 352.972656 C 1059.304688 349.714844 1061.945312 347.074219 1065.207031 347.074219 " fill-opacity="1" fill-rule="nonzero"></path><path fill="#25a8e0" d="M 1065.207031 347.484375 C 1062.179688 347.484375 1059.714844 349.945312 1059.714844 352.972656 L 1059.714844 376.261719 C 1059.714844 379.289062 1062.179688 381.75 1065.207031 381.75 L 1197.53125 381.75 C 1200.558594 381.75 1203.019531 379.289062 1203.019531 376.261719 L 1203.019531 352.972656 C 1203.019531 349.945312 1200.558594 347.484375 1197.53125 347.484375 Z M 1197.53125 382.574219 L 1065.207031 382.574219 C 1061.726562 382.574219 1058.890625 379.742188 1058.890625 376.261719 L 1058.890625 352.972656 C 1058.890625 349.492188 1061.726562 346.664062 1065.207031 346.664062 L 1197.53125 346.664062 C 1201.011719 346.664062 1203.847656 349.492188 1203.847656 352.972656 L 1203.847656 376.261719 C 1203.847656 379.742188 1201.011719 382.574219 1197.53125 382.574219 " fill-opacity="1" fill-rule="nonzero"></path><path fill="#faf9f9" d="M 1182.714844 364.617188 C 1182.714844 366.640625 1184.351562 368.277344 1186.375 368.277344 C 1188.398438 368.277344 1190.039062 366.640625 1190.039062 364.617188 C 1190.039062 362.597656 1188.398438 360.957031 1186.375 360.957031 C 1184.351562 360.957031 1182.714844 362.597656 1182.714844 364.617188 " fill-opacity="1" fill-rule="nonzero"></path><path fill="#faf9f9" d="M 1171.007812 364.617188 C 1171.007812 366.640625 1172.648438 368.277344 1174.671875 368.277344 C 1176.695312 368.277344 1178.332031 366.640625 1178.332031 364.617188 C 1178.332031 362.597656 1176.695312 360.957031 1174.671875 360.957031 C 1172.648438 360.957031 1171.007812 362.597656 1171.007812 364.617188 " fill-opacity="1" fill-rule="nonzero"></path><path fill="#faf9f9" d="M 1159.308594 364.617188 C 1159.308594 366.640625 1160.945312 368.277344 1162.96875 368.277344 C 1164.992188 368.277344 1166.632812 366.640625 1166.632812 364.617188 C 1166.632812 362.597656 1164.992188 360.957031 1162.96875 360.957031 C 1160.945312 360.957031 1159.308594 362.597656 1159.308594 364.617188 " fill-opacity="1" fill-rule="nonzero"></path><path fill="#faf9f9" d="M 1142.816406 376.683594 L 1148.820312 376.683594 L 1148.820312 352.554688 L 1142.816406 352.554688 L 1142.816406 376.683594 " fill-opacity="1" fill-rule="nonzero"></path><path fill="#faf9f9" d="M 1134.039062 376.683594 L 1140.046875 376.683594 L 1140.046875 352.554688 L 1134.039062 352.554688 L 1134.039062 376.683594 " fill-opacity="1" fill-rule="nonzero"></path><path fill="#faf9f9" d="M 1125.265625 376.683594 L 1131.269531 376.683594 L 1131.269531 352.554688 L 1125.265625 352.554688 L 1125.265625 376.683594 " fill-opacity="1" fill-rule="nonzero"></path><path fill="#faf9f9" d="M 1116.488281 376.683594 L 1122.492188 376.683594 L 1122.492188 352.554688 L 1116.488281 352.554688 L 1116.488281 376.683594 " fill-opacity="1" fill-rule="nonzero"></path><path fill="#faf9f9" d="M 1107.710938 376.683594 L 1113.714844 376.683594 L 1113.714844 352.554688 L 1107.710938 352.554688 L 1107.710938 376.683594 " fill-opacity="1" fill-rule="nonzero"></path><path fill="#faf9f9" d="M 1098.933594 376.683594 L 1104.9375 376.683594 L 1104.9375 352.554688 L 1098.933594 352.554688 L 1098.933594 376.683594 " fill-opacity="1" fill-rule="nonzero"></path><path fill="#25a8e0" d="M 1090.570312 376.273438 L 1095.75 376.273438 L 1095.75 352.964844 L 1090.570312 352.964844 Z M 1096.164062 377.09375 L 1090.15625 377.09375 C 1089.929688 377.09375 1089.746094 376.910156 1089.746094 376.683594 L 1089.746094 352.554688 C 1089.746094 352.324219 1089.929688 352.140625 1090.15625 352.140625 L 1096.164062 352.140625 C 1096.390625 352.140625 1096.574219 352.324219 1096.574219 352.554688 L 1096.574219 376.683594 C 1096.574219 376.910156 1096.390625 377.09375 1096.164062 377.09375 " fill-opacity="1" fill-rule="nonzero"></path><path fill="#25a8e0" d="M 1081.792969 376.273438 L 1086.972656 376.273438 L 1086.972656 352.964844 L 1081.792969 352.964844 Z M 1087.386719 377.09375 L 1081.378906 377.09375 C 1081.152344 377.09375 1080.96875 376.910156 1080.96875 376.683594 L 1080.96875 352.554688 C 1080.96875 352.324219 1081.152344 352.140625 1081.378906 352.140625 L 1087.386719 352.140625 C 1087.613281 352.140625 1087.796875 352.324219 1087.796875 352.554688 L 1087.796875 376.683594 C 1087.796875 376.910156 1087.613281 377.09375 1087.386719 377.09375 " fill-opacity="1" fill-rule="nonzero"></path><path fill="#25a8e0" d="M 1073.015625 376.273438 L 1078.195312 376.273438 L 1078.195312 352.964844 L 1073.015625 352.964844 Z M 1078.609375 377.09375 L 1072.605469 377.09375 C 1072.375 377.09375 1072.191406 376.910156 1072.191406 376.683594 L 1072.191406 352.554688 C 1072.191406 352.324219 1072.375 352.140625 1072.605469 352.140625 L 1078.609375 352.140625 C 1078.835938 352.140625 1079.019531 352.324219 1079.019531 352.554688 L 1079.019531 376.683594 C 1079.019531 376.910156 1078.835938 377.09375 1078.609375 377.09375 " fill-opacity="1" fill-rule="nonzero"></path><path fill="#faf9f9" d="M 1056.222656 429.929688 L 1206.511719 429.929688 L 1206.511719 388.683594 L 1056.222656 388.683594 L 1056.222656 429.929688 " fill-opacity="1" fill-rule="nonzero"></path><path fill="#25a8e0" d="M 1056.636719 429.519531 L 1206.101562 429.519531 L 1206.101562 389.09375 L 1056.636719 389.09375 Z M 1206.511719 430.34375 L 1056.222656 430.34375 C 1055.996094 430.34375 1055.8125 430.15625 1055.8125 429.929688 L 1055.8125 388.683594 C 1055.8125 388.457031 1055.996094 388.273438 1056.222656 388.273438 L 1206.511719 388.273438 C 1206.738281 388.273438 1206.925781 388.457031 1206.925781 388.683594 L 1206.925781 429.929688 C 1206.925781 430.15625 1206.738281 430.34375 1206.511719 430.34375 " fill-opacity="1" fill-rule="nonzero"></path><path fill="#faf9f9" d="M 1065.207031 391.765625 L 1197.53125 391.765625 C 1200.789062 391.765625 1203.433594 394.40625 1203.433594 397.664062 L 1203.433594 420.953125 C 1203.433594 424.210938 1200.789062 426.851562 1197.53125 426.851562 L 1065.207031 426.851562 C 1061.945312 426.851562 1059.304688 424.210938 1059.304688 420.953125 L 1059.304688 397.664062 C 1059.304688 394.40625 1061.945312 391.765625 1065.207031 391.765625 " fill-opacity="1" fill-rule="nonzero"></path><path fill="#25a8e0" d="M 1065.207031 392.175781 C 1062.179688 392.175781 1059.714844 394.636719 1059.714844 397.664062 L 1059.714844 420.953125 C 1059.714844 423.980469 1062.179688 426.441406 1065.207031 426.441406 L 1197.53125 426.441406 C 1200.558594 426.441406 1203.019531 423.980469 1203.019531 420.953125 L 1203.019531 397.664062 C 1203.019531 394.636719 1200.558594 392.175781 1197.53125 392.175781 Z M 1197.53125 427.265625 L 1065.207031 427.265625 C 1061.726562 427.265625 1058.890625 424.433594 1058.890625 420.953125 L 1058.890625 397.664062 C 1058.890625 394.183594 1061.726562 391.351562 1065.207031 391.351562 L 1197.53125 391.351562 C 1201.011719 391.351562 1203.847656 394.183594 1203.847656 397.664062 L 1203.847656 420.953125 C 1203.847656 424.433594 1201.011719 427.265625 1197.53125 427.265625 " fill-opacity="1" fill-rule="nonzero"></path><path fill="#faf9f9" d="M 1182.714844 409.308594 C 1182.714844 411.328125 1184.351562 412.96875 1186.375 412.96875 C 1188.398438 412.96875 1190.039062 411.328125 1190.039062 409.308594 C 1190.039062 407.289062 1188.398438 405.648438 1186.375 405.648438 C 1184.351562 405.648438 1182.714844 407.289062 1182.714844 409.308594 " fill-opacity="1" fill-rule="nonzero"></path><path fill="#faf9f9" d="M 1171.007812 409.308594 C 1171.007812 411.328125 1172.648438 412.96875 1174.671875 412.96875 C 1176.695312 412.96875 1178.332031 411.328125 1178.332031 409.308594 C 1178.332031 407.289062 1176.695312 405.648438 1174.671875 405.648438 C 1172.648438 405.648438 1171.007812 407.289062 1171.007812 409.308594 " fill-opacity="1" fill-rule="nonzero"></path><path fill="#faf9f9" d="M 1159.308594 409.308594 C 1159.308594 411.328125 1160.945312 412.96875 1162.96875 412.96875 C 1164.992188 412.96875 1166.632812 411.328125 1166.632812 409.308594 C 1166.632812 407.289062 1164.992188 405.648438 1162.96875 405.648438 C 1160.945312 405.648438 1159.308594 407.289062 1159.308594 409.308594 " fill-opacity="1" fill-rule="nonzero"></path><path fill="#faf9f9" d="M 1142.816406 421.371094 L 1148.820312 421.371094 L 1148.820312 397.242188 L 1142.816406 397.242188 L 1142.816406 421.371094 " fill-opacity="1" fill-rule="nonzero"></path><path fill="#faf9f9" d="M 1134.039062 421.371094 L 1140.046875 421.371094 L 1140.046875 397.242188 L 1134.039062 397.242188 L 1134.039062 421.371094 " fill-opacity="1" fill-rule="nonzero"></path><path fill="#faf9f9" d="M 1125.265625 421.371094 L 1131.269531 421.371094 L 1131.269531 397.242188 L 1125.265625 397.242188 L 1125.265625 421.371094 " fill-opacity="1" fill-rule="nonzero"></path><path fill="#faf9f9" d="M 1116.488281 421.371094 L 1122.492188 421.371094 L 1122.492188 397.242188 L 1116.488281 397.242188 L 1116.488281 421.371094 " fill-opacity="1" fill-rule="nonzero"></path><path fill="#faf9f9" d="M 1107.710938 421.371094 L 1113.714844 421.371094 L 1113.714844 397.242188 L 1107.710938 397.242188 L 1107.710938 421.371094 " fill-opacity="1" fill-rule="nonzero"></path><path fill="#faf9f9" d="M 1098.933594 421.371094 L 1104.9375 421.371094 L 1104.9375 397.242188 L 1098.933594 397.242188 L 1098.933594 421.371094 " fill-opacity="1" fill-rule="nonzero"></path><path fill="#25a8e0" d="M 1090.570312 420.960938 L 1095.75 420.960938 L 1095.75 397.65625 L 1090.570312 397.65625 Z M 1096.164062 421.785156 L 1090.15625 421.785156 C 1089.929688 421.785156 1089.746094 421.601562 1089.746094 421.371094 L 1089.746094 397.242188 C 1089.746094 397.015625 1089.929688 396.832031 1090.15625 396.832031 L 1096.164062 396.832031 C 1096.390625 396.832031 1096.574219 397.015625 1096.574219 397.242188 L 1096.574219 421.371094 C 1096.574219 421.601562 1096.390625 421.785156 1096.164062 421.785156 " fill-opacity="1" fill-rule="nonzero"></path><path fill="#25a8e0" d="M 1081.792969 420.960938 L 1086.972656 420.960938 L 1086.972656 397.65625 L 1081.792969 397.65625 Z M 1087.386719 421.785156 L 1081.378906 421.785156 C 1081.152344 421.785156 1080.96875 421.601562 1080.96875 421.371094 L 1080.96875 397.242188 C 1080.96875 397.015625 1081.152344 396.832031 1081.378906 396.832031 L 1087.386719 396.832031 C 1087.613281 396.832031 1087.796875 397.015625 1087.796875 397.242188 L 1087.796875 421.371094 C 1087.796875 421.601562 1087.613281 421.785156 1087.386719 421.785156 " fill-opacity="1" fill-rule="nonzero"></path><path fill="#25a8e0" d="M 1073.015625 420.960938 L 1078.195312 420.960938 L 1078.195312 397.65625 L 1073.015625 397.65625 Z M 1078.609375 421.785156 L 1072.605469 421.785156 C 1072.375 421.785156 1072.191406 421.601562 1072.191406 421.371094 L 1072.191406 397.242188 C 1072.191406 397.015625 1072.375 396.832031 1072.605469 396.832031 L 1078.609375 396.832031 C 1078.835938 396.832031 1079.019531 397.015625 1079.019531 397.242188 L 1079.019531 421.371094 C 1079.019531 421.601562 1078.835938 421.785156 1078.609375 421.785156 " fill-opacity="1" fill-rule="nonzero"></path><path fill="#faf9f9" d="M 1056.039062 474.613281 L 1206.332031 474.613281 L 1206.332031 433.367188 L 1056.039062 433.367188 L 1056.039062 474.613281 " fill-opacity="1" fill-rule="nonzero"></path><path fill="#25a8e0" d="M 1056.453125 474.203125 L 1205.917969 474.203125 L 1205.917969 433.78125 L 1056.453125 433.78125 Z M 1206.332031 475.023438 L 1056.039062 475.023438 C 1055.8125 475.023438 1055.628906 474.839844 1055.628906 474.613281 L 1055.628906 433.367188 C 1055.628906 433.140625 1055.8125 432.957031 1056.039062 432.957031 L 1206.332031 432.957031 C 1206.558594 432.957031 1206.742188 433.140625 1206.742188 433.367188 L 1206.742188 474.613281 C 1206.742188 474.839844 1206.558594 475.023438 1206.332031 475.023438 " fill-opacity="1" fill-rule="nonzero"></path><path fill="#faf9f9" d="M 1065.023438 436.445312 L 1197.347656 436.445312 C 1200.605469 436.445312 1203.25 439.089844 1203.25 442.347656 L 1203.25 465.632812 C 1203.25 468.890625 1200.605469 471.535156 1197.347656 471.535156 L 1065.023438 471.535156 C 1061.765625 471.535156 1059.121094 468.890625 1059.121094 465.632812 L 1059.121094 442.347656 C 1059.121094 439.089844 1061.765625 436.445312 1065.023438 436.445312 " fill-opacity="1" fill-rule="nonzero"></path><path fill="#25a8e0" d="M 1065.023438 436.855469 C 1061.996094 436.855469 1059.53125 439.320312 1059.53125 442.347656 L 1059.53125 465.632812 C 1059.53125 468.660156 1061.996094 471.125 1065.023438 471.125 L 1197.347656 471.125 C 1200.375 471.125 1202.839844 468.660156 1202.839844 465.632812 L 1202.839844 442.347656 C 1202.839844 439.320312 1200.375 436.855469 1197.347656 436.855469 Z M 1197.347656 471.945312 L 1065.023438 471.945312 C 1061.542969 471.945312 1058.707031 469.117188 1058.707031 465.632812 L 1058.707031 442.347656 C 1058.707031 438.867188 1061.542969 436.035156 1065.023438 436.035156 L 1197.347656 436.035156 C 1200.828125 436.035156 1203.664062 438.867188 1203.664062 442.347656 L 1203.664062 465.632812 C 1203.664062 469.117188 1200.828125 471.945312 1197.347656 471.945312 " fill-opacity="1" fill-rule="nonzero"></path><path fill="#faf9f9" d="M 1182.53125 453.992188 C 1182.53125 456.011719 1184.167969 457.652344 1186.191406 457.652344 C 1188.214844 457.652344 1189.855469 456.011719 1189.855469 453.992188 C 1189.855469 451.96875 1188.214844 450.332031 1186.191406 450.332031 C 1184.167969 450.332031 1182.53125 451.96875 1182.53125 453.992188 " fill-opacity="1" fill-rule="nonzero"></path><path fill="#faf9f9" d="M 1170.828125 453.992188 C 1170.828125 456.011719 1172.464844 457.652344 1174.488281 457.652344 C 1176.511719 457.652344 1178.148438 456.011719 1178.148438 453.992188 C 1178.148438 451.96875 1176.511719 450.332031 1174.488281 450.332031 C 1172.464844 450.332031 1170.828125 451.96875 1170.828125 453.992188 " fill-opacity="1" fill-rule="nonzero"></path><path fill="#faf9f9" d="M 1159.125 453.992188 C 1159.125 456.011719 1160.765625 457.652344 1162.785156 457.652344 C 1164.808594 457.652344 1166.449219 456.011719 1166.449219 453.992188 C 1166.449219 451.96875 1164.808594 450.332031 1162.785156 450.332031 C 1160.765625 450.332031 1159.125 451.96875 1159.125 453.992188 " fill-opacity="1" fill-rule="nonzero"></path><path fill="#faf9f9" d="M 1142.632812 466.054688 L 1148.640625 466.054688 L 1148.640625 441.925781 L 1142.632812 441.925781 L 1142.632812 466.054688 " fill-opacity="1" fill-rule="nonzero"></path><path fill="#faf9f9" d="M 1133.859375 466.054688 L 1139.863281 466.054688 L 1139.863281 441.925781 L 1133.859375 441.925781 L 1133.859375 466.054688 " fill-opacity="1" fill-rule="nonzero"></path><path fill="#faf9f9" d="M 1125.082031 466.054688 L 1131.085938 466.054688 L 1131.085938 441.925781 L 1125.082031 441.925781 L 1125.082031 466.054688 " fill-opacity="1" fill-rule="nonzero"></path><path fill="#faf9f9" d="M 1116.304688 466.054688 L 1122.308594 466.054688 L 1122.308594 441.925781 L 1116.304688 441.925781 L 1116.304688 466.054688 " fill-opacity="1" fill-rule="nonzero"></path><path fill="#faf9f9" d="M 1107.527344 466.054688 L 1113.53125 466.054688 L 1113.53125 441.925781 L 1107.527344 441.925781 L 1107.527344 466.054688 " fill-opacity="1" fill-rule="nonzero"></path><path fill="#faf9f9" d="M 1098.75 466.054688 L 1104.757812 466.054688 L 1104.757812 441.925781 L 1098.75 441.925781 L 1098.75 466.054688 " fill-opacity="1" fill-rule="nonzero"></path><path fill="#25a8e0" d="M 1090.386719 465.644531 L 1095.566406 465.644531 L 1095.566406 442.335938 L 1090.386719 442.335938 Z M 1095.980469 466.46875 L 1089.972656 466.46875 C 1089.746094 466.46875 1089.5625 466.28125 1089.5625 466.054688 L 1089.5625 441.925781 C 1089.5625 441.699219 1089.746094 441.515625 1089.972656 441.515625 L 1095.980469 441.515625 C 1096.207031 441.515625 1096.390625 441.699219 1096.390625 441.925781 L 1096.390625 466.054688 C 1096.390625 466.28125 1096.207031 466.46875 1095.980469 466.46875 " fill-opacity="1" fill-rule="nonzero"></path><path fill="#25a8e0" d="M 1081.609375 465.644531 L 1086.792969 465.644531 L 1086.792969 442.335938 L 1081.609375 442.335938 Z M 1087.203125 466.46875 L 1081.199219 466.46875 C 1080.96875 466.46875 1080.785156 466.28125 1080.785156 466.054688 L 1080.785156 441.925781 C 1080.785156 441.699219 1080.96875 441.515625 1081.199219 441.515625 L 1087.203125 441.515625 C 1087.429688 441.515625 1087.613281 441.699219 1087.613281 441.925781 L 1087.613281 466.054688 C 1087.613281 466.28125 1087.429688 466.46875 1087.203125 466.46875 " fill-opacity="1" fill-rule="nonzero"></path><path fill="#25a8e0" d="M 1072.832031 465.644531 L 1078.015625 465.644531 L 1078.015625 442.335938 L 1072.832031 442.335938 Z M 1078.425781 466.46875 L 1072.421875 466.46875 C 1072.191406 466.46875 1072.007812 466.28125 1072.007812 466.054688 L 1072.007812 441.925781 C 1072.007812 441.699219 1072.191406 441.515625 1072.421875 441.515625 L 1078.425781 441.515625 C 1078.652344 441.515625 1078.835938 441.699219 1078.835938 441.925781 L 1078.835938 466.054688 C 1078.835938 466.28125 1078.652344 466.46875 1078.425781 466.46875 " fill-opacity="1" fill-rule="nonzero"></path><path fill="#faf9f9" d="M 1056.039062 519.304688 L 1206.332031 519.304688 L 1206.332031 478.058594 L 1056.039062 478.058594 L 1056.039062 519.304688 " fill-opacity="1" fill-rule="nonzero"></path><path fill="#25a8e0" d="M 1056.453125 518.890625 L 1205.917969 518.890625 L 1205.917969 478.46875 L 1056.453125 478.46875 Z M 1206.332031 519.714844 L 1056.039062 519.714844 C 1055.8125 519.714844 1055.628906 519.53125 1055.628906 519.304688 L 1055.628906 478.058594 C 1055.628906 477.832031 1055.8125 477.648438 1056.039062 477.648438 L 1206.332031 477.648438 C 1206.558594 477.648438 1206.742188 477.832031 1206.742188 478.058594 L 1206.742188 519.304688 C 1206.742188 519.53125 1206.558594 519.714844 1206.332031 519.714844 " fill-opacity="1" fill-rule="nonzero"></path><path fill="#faf9f9" d="M 1065.023438 481.136719 L 1197.347656 481.136719 C 1200.605469 481.136719 1203.25 483.777344 1203.25 487.039062 L 1203.25 510.324219 C 1203.25 513.582031 1200.605469 516.226562 1197.347656 516.226562 L 1065.023438 516.226562 C 1061.765625 516.226562 1059.121094 513.582031 1059.121094 510.324219 L 1059.121094 487.039062 C 1059.121094 483.777344 1061.765625 481.136719 1065.023438 481.136719 " fill-opacity="1" fill-rule="nonzero"></path><path fill="#25a8e0" d="M 1065.023438 481.546875 C 1061.996094 481.546875 1059.53125 484.011719 1059.53125 487.039062 L 1059.53125 510.324219 C 1059.53125 513.351562 1061.996094 515.8125 1065.023438 515.8125 L 1197.347656 515.8125 C 1200.375 515.8125 1202.839844 513.351562 1202.839844 510.324219 L 1202.839844 487.039062 C 1202.839844 484.011719 1200.375 481.546875 1197.347656 481.546875 Z M 1197.347656 516.636719 L 1065.023438 516.636719 C 1061.542969 516.636719 1058.707031 513.804688 1058.707031 510.324219 L 1058.707031 487.039062 C 1058.707031 483.558594 1061.542969 480.722656 1065.023438 480.722656 L 1197.347656 480.722656 C 1200.828125 480.722656 1203.664062 483.558594 1203.664062 487.039062 L 1203.664062 510.324219 C 1203.664062 513.804688 1200.828125 516.636719 1197.347656 516.636719 " fill-opacity="1" fill-rule="nonzero"></path><path fill="#faf9f9" d="M 1182.53125 498.679688 C 1182.53125 500.703125 1184.167969 502.339844 1186.191406 502.339844 C 1188.214844 502.339844 1189.855469 500.703125 1189.855469 498.679688 C 1189.855469 496.660156 1188.214844 495.023438 1186.191406 495.023438 C 1184.167969 495.023438 1182.53125 496.660156 1182.53125 498.679688 " fill-opacity="1" fill-rule="nonzero"></path><path fill="#faf9f9" d="M 1170.828125 498.679688 C 1170.828125 500.703125 1172.464844 502.339844 1174.488281 502.339844 C 1176.511719 502.339844 1178.148438 500.703125 1178.148438 498.679688 C 1178.148438 496.660156 1176.511719 495.023438 1174.488281 495.023438 C 1172.464844 495.023438 1170.828125 496.660156 1170.828125 498.679688 " fill-opacity="1" fill-rule="nonzero"></path><path fill="#faf9f9" d="M 1159.125 498.679688 C 1159.125 500.703125 1160.765625 502.339844 1162.785156 502.339844 C 1164.808594 502.339844 1166.449219 500.703125 1166.449219 498.679688 C 1166.449219 496.660156 1164.808594 495.023438 1162.785156 495.023438 C 1160.765625 495.023438 1159.125 496.660156 1159.125 498.679688 " fill-opacity="1" fill-rule="nonzero"></path><path fill="#faf9f9" d="M 1142.632812 510.746094 L 1148.640625 510.746094 L 1148.640625 486.613281 L 1142.632812 486.613281 L 1142.632812 510.746094 " fill-opacity="1" fill-rule="nonzero"></path><path fill="#faf9f9" d="M 1133.859375 510.746094 L 1139.863281 510.746094 L 1139.863281 486.613281 L 1133.859375 486.613281 L 1133.859375 510.746094 " fill-opacity="1" fill-rule="nonzero"></path><path fill="#faf9f9" d="M 1125.082031 510.746094 L 1131.085938 510.746094 L 1131.085938 486.613281 L 1125.082031 486.613281 L 1125.082031 510.746094 " fill-opacity="1" fill-rule="nonzero"></path><path fill="#faf9f9" d="M 1116.304688 510.746094 L 1122.308594 510.746094 L 1122.308594 486.613281 L 1116.304688 486.613281 L 1116.304688 510.746094 " fill-opacity="1" fill-rule="nonzero"></path><path fill="#faf9f9" d="M 1107.527344 510.746094 L 1113.53125 510.746094 L 1113.53125 486.613281 L 1107.527344 486.613281 L 1107.527344 510.746094 " fill-opacity="1" fill-rule="nonzero"></path><path fill="#faf9f9" d="M 1098.75 510.746094 L 1104.757812 510.746094 L 1104.757812 486.613281 L 1098.75 486.613281 L 1098.75 510.746094 " fill-opacity="1" fill-rule="nonzero"></path><path fill="#25a8e0" d="M 1090.386719 510.335938 L 1095.566406 510.335938 L 1095.566406 487.027344 L 1090.386719 487.027344 Z M 1095.980469 511.15625 L 1089.972656 511.15625 C 1089.746094 511.15625 1089.5625 510.972656 1089.5625 510.746094 L 1089.5625 486.613281 C 1089.5625 486.386719 1089.746094 486.203125 1089.972656 486.203125 L 1095.980469 486.203125 C 1096.207031 486.203125 1096.390625 486.386719 1096.390625 486.613281 L 1096.390625 510.746094 C 1096.390625 510.972656 1096.207031 511.15625 1095.980469 511.15625 " fill-opacity="1" fill-rule="nonzero"></path><path fill="#25a8e0" d="M 1081.609375 510.335938 L 1086.792969 510.335938 L 1086.792969 487.027344 L 1081.609375 487.027344 Z M 1087.203125 511.15625 L 1081.199219 511.15625 C 1080.96875 511.15625 1080.785156 510.972656 1080.785156 510.746094 L 1080.785156 486.613281 C 1080.785156 486.386719 1080.96875 486.203125 1081.199219 486.203125 L 1087.203125 486.203125 C 1087.429688 486.203125 1087.613281 486.386719 1087.613281 486.613281 L 1087.613281 510.746094 C 1087.613281 510.972656 1087.429688 511.15625 1087.203125 511.15625 " fill-opacity="1" fill-rule="nonzero"></path><path fill="#25a8e0" d="M 1072.832031 510.335938 L 1078.015625 510.335938 L 1078.015625 487.027344 L 1072.832031 487.027344 Z M 1078.425781 511.15625 L 1072.421875 511.15625 C 1072.191406 511.15625 1072.007812 510.972656 1072.007812 510.746094 L 1072.007812 486.613281 C 1072.007812 486.386719 1072.191406 486.203125 1072.421875 486.203125 L 1078.425781 486.203125 C 1078.652344 486.203125 1078.835938 486.386719 1078.835938 486.613281 L 1078.835938 510.746094 C 1078.835938 510.972656 1078.652344 511.15625 1078.425781 511.15625 " fill-opacity="1" fill-rule="nonzero"></path><path fill="#25a8e0" d="M 1343.449219 279.882812 C 1343.363281 279.882812 1343.273438 279.855469 1343.203125 279.800781 C 1325.257812 266.234375 1293.976562 250.730469 1264.539062 246.679688 C 1264.316406 246.648438 1264.160156 246.4375 1264.191406 246.214844 C 1264.21875 245.988281 1264.429688 245.832031 1264.652344 245.863281 C 1294.234375 249.9375 1325.667969 265.511719 1343.699219 279.140625 C 1343.878906 279.277344 1343.914062 279.535156 1343.777344 279.71875 C 1343.695312 279.824219 1343.574219 279.882812 1343.449219 279.882812 " fill-opacity="1" fill-rule="nonzero"></path><g clip-path="url(#a25ade2de7)"><path fill="#25a8e0" d="M 1330.476562 262.410156 C 1330.386719 262.410156 1330.300781 262.382812 1330.226562 262.320312 C 1322.324219 256.144531 1297.34375 241.976562 1274.535156 240.117188 C 1274.308594 240.097656 1274.136719 239.902344 1274.160156 239.675781 C 1274.175781 239.449219 1274.382812 239.277344 1274.601562 239.296875 C 1297.59375 241.171875 1322.773438 255.449219 1330.730469 261.675781 C 1330.910156 261.8125 1330.941406 262.074219 1330.800781 262.25 C 1330.71875 262.355469 1330.601562 262.410156 1330.476562 262.410156 " fill-opacity="1" fill-rule="nonzero"></path></g><path fill="#25a8e0" d="M 1255.941406 320.003906 C 1255.835938 320.003906 1255.730469 319.964844 1255.648438 319.878906 C 1255.488281 319.71875 1255.488281 319.457031 1255.652344 319.300781 L 1281.386719 293.976562 C 1281.550781 293.816406 1281.8125 293.816406 1281.96875 293.980469 C 1282.128906 294.140625 1282.128906 294.402344 1281.964844 294.5625 L 1256.230469 319.886719 C 1256.148438 319.964844 1256.046875 320.003906 1255.941406 320.003906 " fill-opacity="1" fill-rule="nonzero"></path><path fill="#25a8e0" d="M 1300.382812 312.601562 C 1300.28125 312.601562 1300.171875 312.5625 1300.09375 312.480469 C 1299.933594 312.316406 1299.9375 312.058594 1300.097656 311.898438 L 1325.832031 286.574219 C 1325.996094 286.414062 1326.257812 286.417969 1326.417969 286.578125 C 1326.574219 286.738281 1326.570312 287 1326.410156 287.160156 L 1300.675781 312.484375 C 1300.597656 312.5625 1300.488281 312.601562 1300.382812 312.601562 " fill-opacity="1" fill-rule="nonzero"></path><path fill="#25a8e0" d="M 1267.957031 294.097656 C 1267.851562 294.097656 1267.742188 294.058594 1267.664062 293.976562 C 1267.503906 293.8125 1267.507812 293.554688 1267.671875 293.394531 L 1281.214844 280.066406 C 1281.378906 279.90625 1281.636719 279.910156 1281.796875 280.070312 C 1281.953125 280.230469 1281.953125 280.492188 1281.792969 280.652344 L 1268.246094 293.980469 C 1268.167969 294.058594 1268.0625 294.097656 1267.957031 294.097656 " fill-opacity="1" fill-rule="nonzero"></path><path fill="#25a8e0" d="M 1362.855469 292.761719 C 1362.632812 292.761719 1362.449219 292.585938 1362.445312 292.359375 C 1362.4375 292.132812 1362.617188 291.945312 1362.84375 291.9375 L 1365.65625 291.863281 C 1365.878906 291.859375 1366.070312 292.039062 1366.078125 292.265625 C 1366.082031 292.488281 1365.902344 292.679688 1365.675781 292.6875 L 1362.867188 292.761719 C 1362.863281 292.761719 1362.859375 292.761719 1362.855469 292.761719 " fill-opacity="1" fill-rule="nonzero"></path><path fill="#25a8e0" d="M 1353.023438 293.027344 C 1352.800781 293.027344 1352.617188 292.851562 1352.613281 292.625 C 1352.605469 292.402344 1352.785156 292.210938 1353.015625 292.203125 L 1355.824219 292.128906 C 1356.050781 292.121094 1356.238281 292.300781 1356.246094 292.527344 C 1356.25 292.757812 1356.070312 292.945312 1355.84375 292.949219 L 1353.035156 293.027344 C 1353.03125 293.027344 1353.027344 293.027344 1353.023438 293.027344 " fill-opacity="1" fill-rule="nonzero"></path><path fill="#25a8e0" d="M 1359.300781 289.398438 C 1359.074219 289.398438 1358.894531 289.21875 1358.890625 288.992188 L 1358.855469 286.226562 C 1358.855469 285.996094 1359.035156 285.8125 1359.261719 285.808594 C 1359.507812 285.796875 1359.675781 285.988281 1359.679688 286.214844 L 1359.710938 288.980469 C 1359.714844 289.210938 1359.535156 289.394531 1359.304688 289.398438 C 1359.304688 289.398438 1359.304688 289.398438 1359.300781 289.398438 " fill-opacity="1" fill-rule="nonzero"></path><path fill="#25a8e0" d="M 1359.417969 299.082031 C 1359.195312 299.082031 1359.011719 298.902344 1359.007812 298.679688 L 1358.972656 295.910156 C 1358.972656 295.683594 1359.152344 295.496094 1359.382812 295.492188 C 1359.617188 295.480469 1359.792969 295.671875 1359.796875 295.902344 L 1359.828125 298.667969 C 1359.835938 298.894531 1359.652344 299.082031 1359.421875 299.082031 C 1359.421875 299.082031 1359.421875 299.082031 1359.417969 299.082031 " fill-opacity="1" fill-rule="nonzero"></path><g clip-path="url(#9f03bed48d)"><path fill="#25a8e0" d="M 1252.855469 240.683594 L 1252.863281 240.683594 Z M 1254.152344 240.816406 C 1253.769531 240.816406 1253.386719 240.898438 1253.023438 241.058594 C 1251.605469 241.695312 1250.960938 243.398438 1251.585938 244.851562 C 1251.894531 245.558594 1252.449219 246.101562 1253.15625 246.375 C 1253.847656 246.644531 1254.605469 246.625 1255.28125 246.320312 C 1256.699219 245.683594 1257.347656 243.980469 1256.71875 242.53125 C 1256.414062 241.820312 1255.855469 241.277344 1255.148438 241.003906 C 1254.824219 240.878906 1254.488281 240.816406 1254.152344 240.816406 Z M 1254.15625 247.386719 C 1253.71875 247.386719 1253.28125 247.304688 1252.859375 247.140625 C 1251.945312 246.789062 1251.226562 246.089844 1250.832031 245.175781 C 1250.027344 243.3125 1250.863281 241.128906 1252.6875 240.308594 C 1253.566406 239.914062 1254.546875 239.886719 1255.445312 240.234375 C 1256.359375 240.589844 1257.082031 241.289062 1257.472656 242.203125 C 1258.28125 244.066406 1257.445312 246.25 1255.617188 247.070312 C 1255.148438 247.28125 1254.652344 247.386719 1254.15625 247.386719 " fill-opacity="1" fill-rule="nonzero"></path></g><path fill="#25a8e0" d="M 1300.894531 524.632812 C 1294.136719 519.808594 1287.144531 515.308594 1280.035156 511.015625 C 1265.613281 502.308594 1250.660156 494.523438 1235.597656 486.976562 C 1227.675781 483.007812 1219.542969 479.417969 1211.488281 475.726562 C 1203.386719 472.011719 1195.269531 468.328125 1187.152344 464.648438 C 1179.734375 461.289062 1172.316406 457.921875 1164.90625 454.542969 C 1140.230469 402.195312 1112.988281 342.851562 1116.332031 342.851562 L 1369.097656 335.683594 C 1375.078125 335.683594 1379.941406 340.546875 1379.941406 346.523438 L 1379.941406 521.949219 C 1379.941406 527.921875 1375.078125 532.789062 1369.097656 532.789062 L 1312.566406 532.789062 C 1308.742188 529.980469 1304.75 527.386719 1300.894531 524.632812 " fill-opacity="1" fill-rule="nonzero"></path><g clip-path="url(#78ea9cec47)"><path fill="#25a8e0" d="M 1116.34375 343.257812 C 1116.34375 343.257812 1116.347656 343.257812 1116.351562 343.257812 Z M 1312.703125 532.375 L 1369.097656 532.375 C 1374.851562 532.375 1379.53125 527.695312 1379.53125 521.949219 L 1379.53125 346.519531 C 1379.53125 340.769531 1374.851562 336.09375 1369.097656 336.09375 L 1116.460938 343.257812 C 1116.003906 345.175781 1121.976562 362.507812 1165.214844 454.230469 C 1172.742188 457.664062 1180.484375 461.171875 1187.324219 464.273438 C 1195.585938 468.019531 1203.664062 471.683594 1211.660156 475.351562 C 1213.480469 476.183594 1215.304688 477.015625 1217.128906 477.839844 C 1223.28125 480.640625 1229.644531 483.535156 1235.78125 486.609375 C 1249.222656 493.339844 1265.015625 501.464844 1280.25 510.664062 C 1288.066406 515.382812 1294.898438 519.84375 1301.136719 524.296875 C 1302.816406 525.5 1304.554688 526.691406 1306.234375 527.839844 C 1308.371094 529.304688 1310.578125 530.816406 1312.703125 532.375 Z M 1369.097656 533.199219 L 1312.570312 533.199219 C 1312.480469 533.199219 1312.394531 533.167969 1312.324219 533.117188 C 1310.175781 531.539062 1307.9375 530.007812 1305.769531 528.519531 C 1304.085938 527.367188 1302.34375 526.171875 1300.65625 524.96875 C 1294.4375 520.523438 1287.621094 516.078125 1279.824219 511.367188 C 1264.617188 502.183594 1248.839844 494.070312 1235.414062 487.34375 C 1229.289062 484.277344 1222.933594 481.386719 1216.785156 478.589844 C 1214.960938 477.761719 1213.140625 476.933594 1211.320312 476.097656 C 1203.324219 472.433594 1195.246094 468.765625 1186.984375 465.023438 C 1180.101562 461.902344 1172.304688 458.371094 1164.738281 454.914062 C 1164.648438 454.875 1164.578125 454.804688 1164.535156 454.71875 C 1113.46875 346.398438 1115.21875 343.644531 1115.792969 342.738281 C 1115.914062 342.546875 1116.109375 342.4375 1116.332031 342.4375 L 1369.085938 335.269531 C 1375.304688 335.269531 1380.355469 340.320312 1380.355469 346.519531 L 1380.355469 521.949219 C 1380.355469 528.152344 1375.304688 533.199219 1369.097656 533.199219 " fill-opacity="1" fill-rule="nonzero"></path></g><path fill="#faf9f9" d="M 1107.929688 336.296875 L 1363.9375 336.296875 C 1369.589844 336.296875 1374.167969 340.875 1374.167969 346.523438 L 1374.167969 521.949219 C 1374.167969 527.597656 1369.589844 532.171875 1363.9375 532.171875 L 1107.929688 532.171875 C 1102.277344 532.171875 1097.699219 527.597656 1097.699219 521.949219 L 1097.699219 346.523438 C 1097.699219 340.875 1102.277344 336.296875 1107.929688 336.296875 " fill-opacity="1" fill-rule="nonzero"></path><path fill="#faf9f9" d="M 1364.917969 532.957031 L 1048.738281 532.957031 C 1044.519531 532.957031 1041.097656 536.375 1041.097656 540.589844 C 1041.097656 544.808594 1044.519531 548.230469 1048.738281 548.230469 L 1364.917969 548.230469 C 1369.128906 548.230469 1372.558594 544.804688 1372.558594 540.589844 C 1372.558594 536.382812 1369.128906 532.957031 1364.917969 532.957031 " fill-opacity="1" fill-rule="nonzero"></path><path fill="#faf9f9" d="M 1115.429688 343.289062 L 1356.574219 343.289062 C 1361.898438 343.289062 1366.210938 347.539062 1366.210938 352.785156 L 1366.210938 515.6875 C 1366.210938 520.929688 1361.898438 525.179688 1356.574219 525.179688 L 1115.429688 525.179688 C 1110.109375 525.179688 1105.792969 520.929688 1105.792969 515.6875 L 1105.792969 352.785156 C 1105.792969 347.539062 1110.109375 343.289062 1115.429688 343.289062 " fill-opacity="1" fill-rule="nonzero"></path><path fill="#25a8e0" d="M 1115.429688 343.699219 C 1110.34375 343.699219 1106.203125 347.777344 1106.203125 352.785156 L 1106.203125 515.6875 C 1106.203125 520.695312 1110.34375 524.769531 1115.429688 524.769531 L 1356.574219 524.769531 C 1361.660156 524.769531 1365.800781 520.695312 1365.800781 515.6875 L 1365.800781 352.785156 C 1365.800781 347.777344 1361.660156 343.699219 1356.574219 343.699219 Z M 1356.574219 525.59375 L 1115.429688 525.59375 C 1109.890625 525.59375 1105.382812 521.148438 1105.382812 515.6875 L 1105.382812 352.785156 C 1105.382812 347.324219 1109.890625 342.878906 1115.429688 342.878906 L 1356.574219 342.878906 C 1362.113281 342.878906 1366.621094 347.324219 1366.621094 352.785156 L 1366.621094 515.6875 C 1366.621094 521.148438 1362.113281 525.59375 1356.574219 525.59375 " fill-opacity="1" fill-rule="nonzero"></path><path fill="#25a8e0" d="M 1363.9375 532.582031 L 1107.929688 532.582031 C 1102.0625 532.582031 1097.289062 527.8125 1097.289062 521.949219 L 1097.289062 346.519531 C 1097.289062 340.65625 1102.0625 335.882812 1107.929688 335.882812 L 1219.589844 335.992188 C 1219.816406 335.992188 1220 336.175781 1220 336.402344 C 1220 336.628906 1219.816406 336.8125 1219.589844 336.8125 L 1107.929688 336.707031 C 1102.515625 336.707031 1098.109375 341.109375 1098.109375 346.519531 L 1098.109375 521.949219 C 1098.109375 527.359375 1102.515625 531.761719 1107.929688 531.761719 L 1363.9375 531.761719 C 1369.355469 531.761719 1373.757812 527.359375 1373.757812 521.949219 L 1373.757812 346.519531 C 1373.757812 341.109375 1369.355469 336.707031 1363.9375 336.707031 L 1289.6875 336.707031 C 1289.460938 336.707031 1289.273438 336.523438 1289.273438 336.296875 C 1289.273438 336.066406 1289.460938 335.882812 1289.6875 335.882812 L 1363.9375 335.882812 C 1369.808594 335.882812 1374.582031 340.65625 1374.582031 346.519531 L 1374.582031 521.949219 C 1374.582031 527.8125 1369.808594 532.582031 1363.9375 532.582031 " fill-opacity="1" fill-rule="nonzero"></path><path fill="#faf9f9" d="M 1365.84375 359.128906 L 1366.117188 353.195312 C 1366.117188 347.953125 1361.65625 343.773438 1356.378906 343.773438 L 1115.429688 343.289062 C 1110.152344 343.289062 1105.832031 347.464844 1105.832031 352.707031 L 1105.558594 360.015625 L 1365.84375 359.128906 " fill-opacity="1" fill-rule="nonzero"></path><path fill="#25a8e0" d="M 1365.84375 359.128906 L 1365.847656 359.128906 Z M 1115.429688 343.699219 C 1110.363281 343.699219 1106.246094 347.742188 1106.246094 352.707031 L 1105.984375 359.601562 L 1365.449219 358.722656 L 1365.703125 353.175781 C 1365.703125 348.226562 1361.519531 344.183594 1356.378906 344.183594 Z M 1105.558594 360.425781 C 1105.445312 360.425781 1105.339844 360.382812 1105.261719 360.300781 C 1105.183594 360.21875 1105.144531 360.113281 1105.144531 360 L 1105.421875 352.695312 C 1105.421875 347.289062 1109.910156 342.875 1115.429688 342.875 L 1356.378906 343.359375 C 1361.976562 343.359375 1366.527344 347.773438 1366.527344 353.195312 L 1366.253906 359.148438 C 1366.246094 359.367188 1366.0625 359.539062 1365.84375 359.542969 L 1105.558594 360.425781 " fill-opacity="1" fill-rule="nonzero"></path><path fill="#25a8e0" d="M 1119.601562 350.769531 C 1118.125 350.769531 1116.925781 351.96875 1116.925781 353.441406 C 1116.925781 354.917969 1118.125 356.117188 1119.601562 356.117188 C 1121.074219 356.117188 1122.277344 354.917969 1122.277344 353.441406 C 1122.277344 351.96875 1121.074219 350.769531 1119.601562 350.769531 Z M 1119.601562 356.9375 C 1117.671875 356.9375 1116.101562 355.371094 1116.101562 353.441406 C 1116.101562 351.515625 1117.671875 349.945312 1119.601562 349.945312 C 1121.53125 349.945312 1123.097656 351.515625 1123.097656 353.441406 C 1123.097656 355.371094 1121.53125 356.9375 1119.601562 356.9375 " fill-opacity="1" fill-rule="nonzero"></path><path fill="#25a8e0" d="M 1129.476562 350.5625 C 1128.003906 350.5625 1126.800781 351.761719 1126.800781 353.234375 C 1126.800781 354.710938 1128.003906 355.910156 1129.476562 355.910156 C 1130.953125 355.910156 1132.152344 354.710938 1132.152344 353.234375 C 1132.152344 351.761719 1130.953125 350.5625 1129.476562 350.5625 Z M 1129.476562 356.730469 C 1127.550781 356.730469 1125.980469 355.164062 1125.980469 353.234375 C 1125.980469 351.308594 1127.550781 349.738281 1129.476562 349.738281 C 1131.40625 349.738281 1132.976562 351.308594 1132.976562 353.234375 C 1132.976562 355.164062 1131.40625 356.730469 1129.476562 356.730469 " fill-opacity="1" fill-rule="nonzero"></path><path fill="#25a8e0" d="M 1140.179688 350.972656 C 1138.703125 350.972656 1137.503906 352.171875 1137.503906 353.648438 C 1137.503906 355.121094 1138.703125 356.320312 1140.179688 356.320312 C 1141.652344 356.320312 1142.851562 355.121094 1142.851562 353.648438 C 1142.851562 352.171875 1141.652344 350.972656 1140.179688 350.972656 Z M 1140.179688 357.144531 C 1138.25 357.144531 1136.679688 355.578125 1136.679688 353.648438 C 1136.679688 351.71875 1138.25 350.152344 1140.179688 350.152344 C 1142.105469 350.152344 1143.675781 351.71875 1143.675781 353.648438 C 1143.675781 355.578125 1142.105469 357.144531 1140.179688 357.144531 " fill-opacity="1" fill-rule="nonzero"></path><path fill="#25a8e0" d="M 1118.761719 524.992188 L 1354.367188 525.195312 C 1354.53125 525.195312 1354.6875 525.132812 1354.804688 525.015625 C 1354.921875 524.898438 1354.984375 524.746094 1354.984375 524.582031 L 1354.984375 359.644531 L 1119.992188 360.671875 Z M 1354.367188 526.019531 L 1118.347656 525.816406 C 1118.238281 525.816406 1118.132812 525.773438 1118.054688 525.695312 C 1117.980469 525.617188 1117.933594 525.511719 1117.9375 525.398438 L 1119.171875 360.253906 C 1119.171875 360.03125 1119.355469 359.851562 1119.582031 359.847656 L 1355.394531 358.820312 C 1355.511719 358.824219 1355.609375 358.863281 1355.6875 358.941406 C 1355.765625 359.019531 1355.808594 359.121094 1355.808594 359.234375 L 1355.808594 524.582031 C 1355.808594 524.964844 1355.65625 525.328125 1355.386719 525.597656 C 1355.113281 525.871094 1354.753906 526.019531 1354.367188 526.019531 " fill-opacity="1" fill-rule="nonzero"></path><path fill="#25a8e0" d="M 1131.789062 423.382812 L 1166.519531 423.382812 L 1166.519531 415.1875 L 1131.789062 415.1875 Z M 1166.933594 424.203125 L 1131.375 424.203125 C 1131.148438 424.203125 1130.964844 424.019531 1130.964844 423.792969 L 1130.964844 414.777344 C 1130.964844 414.546875 1131.148438 414.363281 1131.375 414.363281 L 1166.933594 414.363281 C 1167.160156 414.363281 1167.34375 414.546875 1167.34375 414.777344 L 1167.34375 423.792969 C 1167.34375 424.019531 1167.160156 424.203125 1166.933594 424.203125 " fill-opacity="1" fill-rule="nonzero"></path><path fill="#25a8e0" d="M 1189.15625 423.78125 L 1314.675781 423.78125 L 1314.675781 415.589844 L 1189.15625 415.589844 Z M 1315.085938 424.605469 L 1188.742188 424.605469 C 1188.515625 424.605469 1188.332031 424.421875 1188.332031 424.191406 L 1188.332031 415.175781 C 1188.332031 414.949219 1188.515625 414.765625 1188.742188 414.765625 L 1315.085938 414.765625 C 1315.3125 414.765625 1315.496094 414.949219 1315.496094 415.175781 L 1315.496094 424.191406 C 1315.496094 424.421875 1315.3125 424.605469 1315.085938 424.605469 " fill-opacity="1" fill-rule="nonzero"></path><path fill="#25a8e0" d="M 1131.375 468.273438 L 1166.109375 468.273438 L 1166.109375 460.078125 L 1131.375 460.078125 Z M 1166.519531 469.09375 L 1130.964844 469.09375 C 1130.738281 469.09375 1130.554688 468.914062 1130.554688 468.683594 L 1130.554688 459.667969 C 1130.554688 459.4375 1130.738281 459.257812 1130.964844 459.257812 L 1166.519531 459.257812 C 1166.746094 459.257812 1166.933594 459.4375 1166.933594 459.667969 L 1166.933594 468.683594 C 1166.933594 468.914062 1166.746094 469.09375 1166.519531 469.09375 " fill-opacity="1" fill-rule="nonzero"></path><path fill="#25a8e0" d="M 1188.742188 468.671875 L 1314.265625 468.671875 L 1314.265625 460.480469 L 1188.742188 460.480469 Z M 1314.675781 469.496094 L 1188.332031 469.496094 C 1188.105469 469.496094 1187.921875 469.3125 1187.921875 469.085938 L 1187.921875 460.066406 C 1187.921875 459.839844 1188.105469 459.65625 1188.332031 459.65625 L 1314.675781 459.65625 C 1314.902344 459.65625 1315.085938 459.839844 1315.085938 460.066406 L 1315.085938 469.085938 C 1315.085938 469.3125 1314.902344 469.496094 1314.675781 469.496094 " fill-opacity="1" fill-rule="nonzero"></path><path fill="#25a8e0" d="M 1130.554688 512.363281 L 1165.285156 512.363281 L 1165.285156 504.164062 L 1130.554688 504.164062 Z M 1165.699219 513.183594 L 1130.144531 513.183594 C 1129.917969 513.183594 1129.730469 513 1129.730469 512.773438 L 1129.730469 503.753906 C 1129.730469 503.527344 1129.917969 503.34375 1130.144531 503.34375 L 1165.699219 503.34375 C 1165.925781 503.34375 1166.109375 503.527344 1166.109375 503.753906 L 1166.109375 512.773438 C 1166.109375 513 1165.925781 513.183594 1165.699219 513.183594 " fill-opacity="1" fill-rule="nonzero"></path><path fill="#25a8e0" d="M 1187.921875 512.761719 L 1313.445312 512.761719 L 1313.445312 504.566406 L 1187.921875 504.566406 Z M 1313.855469 513.582031 L 1187.511719 513.582031 C 1187.285156 513.582031 1187.097656 513.402344 1187.097656 513.171875 L 1187.097656 504.15625 C 1187.097656 503.925781 1187.285156 503.746094 1187.511719 503.746094 L 1313.855469 503.746094 C 1314.082031 503.746094 1314.265625 503.925781 1314.265625 504.15625 L 1314.265625 513.171875 C 1314.265625 513.402344 1314.082031 513.582031 1313.855469 513.582031 " fill-opacity="1" fill-rule="nonzero"></path><path fill="#25a8e0" d="M 1189.003906 439.011719 L 1221.28125 439.011719 L 1221.28125 430.816406 L 1189.003906 430.816406 Z M 1221.691406 439.835938 L 1188.589844 439.835938 C 1188.363281 439.835938 1188.179688 439.652344 1188.179688 439.421875 L 1188.179688 430.40625 C 1188.179688 430.179688 1188.363281 429.996094 1188.589844 429.996094 L 1221.691406 429.996094 C 1221.917969 429.996094 1222.101562 430.179688 1222.101562 430.40625 L 1222.101562 439.421875 C 1222.101562 439.652344 1221.917969 439.835938 1221.691406 439.835938 " fill-opacity="1" fill-rule="nonzero"></path><path fill="#25a8e0" d="M 1226.691406 439.414062 L 1343.484375 439.414062 L 1343.484375 431.21875 L 1226.691406 431.21875 Z M 1343.894531 440.238281 L 1226.277344 440.238281 C 1226.050781 440.238281 1225.867188 440.050781 1225.867188 439.824219 L 1225.867188 430.804688 C 1225.867188 430.578125 1226.050781 430.394531 1226.277344 430.394531 L 1343.894531 430.394531 C 1344.121094 430.394531 1344.308594 430.578125 1344.308594 430.804688 L 1344.308594 439.824219 C 1344.308594 440.050781 1344.121094 440.238281 1343.894531 440.238281 " fill-opacity="1" fill-rule="nonzero"></path><path fill="#25a8e0" d="M 1188.589844 453.839844 L 1220.867188 453.839844 L 1220.867188 445.648438 L 1188.589844 445.648438 Z M 1221.28125 454.664062 L 1188.179688 454.664062 C 1187.953125 454.664062 1187.769531 454.480469 1187.769531 454.253906 L 1187.769531 445.234375 C 1187.769531 445.007812 1187.953125 444.824219 1188.179688 444.824219 L 1221.28125 444.824219 C 1221.507812 444.824219 1221.691406 445.007812 1221.691406 445.234375 L 1221.691406 454.253906 C 1221.691406 454.480469 1221.507812 454.664062 1221.28125 454.664062 " fill-opacity="1" fill-rule="nonzero"></path><path fill="#25a8e0" d="M 1226.277344 454.242188 L 1343.074219 454.242188 L 1343.074219 446.046875 L 1226.277344 446.046875 Z M 1343.484375 455.066406 L 1225.867188 455.066406 C 1225.640625 455.066406 1225.453125 454.882812 1225.453125 454.65625 L 1225.453125 445.636719 C 1225.453125 445.410156 1225.640625 445.222656 1225.867188 445.222656 L 1343.484375 445.222656 C 1343.710938 445.222656 1343.894531 445.410156 1343.894531 445.636719 L 1343.894531 454.65625 C 1343.894531 454.882812 1343.710938 455.066406 1343.484375 455.066406 " fill-opacity="1" fill-rule="nonzero"></path><path fill="#25a8e0" d="M 1131.789062 379.78125 L 1166.519531 379.78125 L 1166.519531 371.585938 L 1131.789062 371.585938 Z M 1166.933594 380.605469 L 1131.378906 380.605469 C 1131.148438 380.605469 1130.964844 380.421875 1130.964844 380.191406 L 1130.964844 371.175781 C 1130.964844 370.949219 1131.148438 370.765625 1131.378906 370.765625 L 1166.933594 370.765625 C 1167.160156 370.765625 1167.34375 370.949219 1167.34375 371.175781 L 1167.34375 380.191406 C 1167.34375 380.421875 1167.160156 380.605469 1166.933594 380.605469 " fill-opacity="1" fill-rule="nonzero"></path><path fill="#25a8e0" d="M 1189.15625 380.183594 L 1314.675781 380.183594 L 1314.675781 371.988281 L 1189.15625 371.988281 Z M 1315.085938 381.007812 L 1188.742188 381.007812 C 1188.515625 381.007812 1188.332031 380.820312 1188.332031 380.597656 L 1188.332031 371.578125 C 1188.332031 371.351562 1188.515625 371.167969 1188.742188 371.167969 L 1315.085938 371.167969 C 1315.316406 371.167969 1315.496094 371.351562 1315.496094 371.578125 L 1315.496094 380.597656 C 1315.496094 380.820312 1315.316406 381.007812 1315.085938 381.007812 " fill-opacity="1" fill-rule="nonzero"></path><path fill="#25a8e0" d="M 1189.003906 395.410156 L 1221.28125 395.410156 L 1221.28125 387.21875 L 1189.003906 387.21875 Z M 1221.691406 396.238281 L 1188.59375 396.238281 C 1188.363281 396.238281 1188.183594 396.050781 1188.183594 395.824219 L 1188.183594 386.808594 C 1188.183594 386.582031 1188.363281 386.394531 1188.59375 386.394531 L 1221.691406 386.394531 C 1221.917969 386.394531 1222.105469 386.582031 1222.105469 386.808594 L 1222.105469 395.824219 C 1222.105469 396.050781 1221.917969 396.238281 1221.691406 396.238281 " fill-opacity="1" fill-rule="nonzero"></path><path fill="#25a8e0" d="M 1226.691406 395.8125 L 1343.484375 395.8125 L 1343.484375 387.617188 L 1226.691406 387.617188 Z M 1343.894531 396.636719 L 1226.28125 396.636719 C 1226.050781 396.636719 1225.867188 396.453125 1225.867188 396.222656 L 1225.867188 387.207031 C 1225.867188 386.980469 1226.050781 386.792969 1226.28125 386.792969 L 1343.894531 386.792969 C 1344.125 386.792969 1344.308594 386.980469 1344.308594 387.207031 L 1344.308594 396.222656 C 1344.308594 396.453125 1344.125 396.636719 1343.894531 396.636719 " fill-opacity="1" fill-rule="nonzero"></path><path fill="#25a8e0" d="M 1188.59375 410.242188 L 1220.867188 410.242188 L 1220.867188 402.046875 L 1188.59375 402.046875 Z M 1221.28125 411.066406 L 1188.183594 411.066406 C 1187.953125 411.066406 1187.769531 410.882812 1187.769531 410.65625 L 1187.769531 401.636719 C 1187.769531 401.410156 1187.953125 401.226562 1188.183594 401.226562 L 1221.28125 401.226562 C 1221.507812 401.226562 1221.691406 401.410156 1221.691406 401.636719 L 1221.691406 410.65625 C 1221.691406 410.882812 1221.507812 411.066406 1221.28125 411.066406 " fill-opacity="1" fill-rule="nonzero"></path><path fill="#25a8e0" d="M 1343.484375 411.464844 L 1250.832031 411.464844 C 1250.601562 411.464844 1250.421875 411.28125 1250.421875 411.054688 C 1250.421875 410.828125 1250.601562 410.644531 1250.832031 410.644531 L 1343.074219 410.644531 L 1343.074219 402.445312 L 1244.457031 402.445312 C 1244.230469 402.445312 1244.042969 402.261719 1244.042969 402.035156 C 1244.042969 401.808594 1244.230469 401.625 1244.457031 401.625 L 1343.484375 401.625 C 1343.710938 401.625 1343.894531 401.808594 1343.894531 402.035156 L 1343.894531 411.054688 C 1343.894531 411.28125 1343.710938 411.464844 1343.484375 411.464844 " fill-opacity="1" fill-rule="nonzero"></path><path fill="#25a8e0" d="M 1188.589844 483.503906 L 1220.867188 483.503906 L 1220.867188 475.308594 L 1188.589844 475.308594 Z M 1221.28125 484.324219 L 1188.179688 484.324219 C 1187.953125 484.324219 1187.769531 484.144531 1187.769531 483.914062 L 1187.769531 474.898438 C 1187.769531 474.667969 1187.953125 474.484375 1188.179688 474.484375 L 1221.28125 474.484375 C 1221.507812 474.484375 1221.691406 474.667969 1221.691406 474.898438 L 1221.691406 483.914062 C 1221.691406 484.144531 1221.507812 484.324219 1221.28125 484.324219 " fill-opacity="1" fill-rule="nonzero"></path><path fill="#25a8e0" d="M 1226.277344 483.90625 L 1343.074219 483.90625 L 1343.074219 475.707031 L 1226.277344 475.707031 Z M 1343.484375 484.726562 L 1225.867188 484.726562 C 1225.640625 484.726562 1225.453125 484.542969 1225.453125 484.316406 L 1225.453125 475.296875 C 1225.453125 475.070312 1225.640625 474.886719 1225.867188 474.886719 L 1343.484375 474.886719 C 1343.710938 474.886719 1343.894531 475.070312 1343.894531 475.296875 L 1343.894531 484.316406 C 1343.894531 484.542969 1343.710938 484.726562 1343.484375 484.726562 " fill-opacity="1" fill-rule="nonzero"></path><path fill="#25a8e0" d="M 1188.179688 498.332031 L 1220.457031 498.332031 L 1220.457031 490.136719 L 1188.179688 490.136719 Z M 1220.867188 499.15625 L 1187.769531 499.15625 C 1187.542969 499.15625 1187.355469 498.972656 1187.355469 498.742188 L 1187.355469 489.726562 C 1187.355469 489.5 1187.542969 489.316406 1187.769531 489.316406 L 1220.867188 489.316406 C 1221.09375 489.316406 1221.28125 489.5 1221.28125 489.726562 L 1221.28125 498.742188 C 1221.28125 498.972656 1221.09375 499.15625 1220.867188 499.15625 " fill-opacity="1" fill-rule="nonzero"></path><path fill="#25a8e0" d="M 1225.867188 498.734375 L 1342.660156 498.734375 L 1342.660156 490.539062 L 1225.867188 490.539062 Z M 1343.070312 499.558594 L 1225.453125 499.558594 C 1225.226562 499.558594 1225.042969 499.375 1225.042969 499.148438 L 1225.042969 490.128906 C 1225.042969 489.902344 1225.226562 489.71875 1225.453125 489.71875 L 1343.070312 489.71875 C 1343.296875 489.71875 1343.484375 489.902344 1343.484375 490.128906 L 1343.484375 499.148438 C 1343.484375 499.375 1343.296875 499.558594 1343.070312 499.558594 " fill-opacity="1" fill-rule="nonzero"></path><g clip-path="url(#837153b164)"><path fill="#25a8e0" d="M 1279.121094 548.640625 L 1048.738281 548.640625 C 1044.296875 548.640625 1040.683594 545.03125 1040.683594 540.59375 C 1040.683594 536.15625 1044.296875 532.542969 1048.738281 532.542969 L 1364.917969 532.542969 C 1369.355469 532.542969 1372.96875 536.15625 1372.96875 540.59375 C 1372.96875 544.382812 1370.273438 547.695312 1366.5625 548.472656 C 1366.34375 548.515625 1366.125 548.375 1366.078125 548.152344 C 1366.03125 547.929688 1366.171875 547.710938 1366.394531 547.667969 C 1369.726562 546.972656 1372.144531 543.996094 1372.144531 540.59375 C 1372.144531 536.609375 1368.902344 533.367188 1364.917969 533.367188 L 1048.738281 533.367188 C 1044.75 533.367188 1041.507812 536.609375 1041.507812 540.59375 C 1041.507812 544.574219 1044.75 547.816406 1048.738281 547.816406 L 1279.121094 547.816406 C 1279.351562 547.816406 1279.535156 548.003906 1279.535156 548.230469 C 1279.535156 548.457031 1279.351562 548.640625 1279.121094 548.640625 " fill-opacity="1" fill-rule="nonzero"></path></g><path fill="#faf9f9" d="M 1299.632812 372.894531 C 1299.632812 395.496094 1281.296875 413.820312 1258.683594 413.820312 C 1236.066406 413.820312 1217.734375 395.496094 1217.734375 372.894531 C 1217.734375 350.292969 1236.066406 331.96875 1258.683594 331.96875 C 1281.296875 331.96875 1299.632812 350.292969 1299.632812 372.894531 " fill-opacity="1" fill-rule="nonzero"></path><path fill="#25a8e0" d="M 1263.195312 351.496094 C 1263.195312 354.25 1260.964844 356.480469 1258.210938 356.480469 C 1255.457031 356.480469 1253.226562 354.25 1253.226562 351.496094 C 1253.226562 348.746094 1255.457031 346.515625 1258.210938 346.515625 C 1260.964844 346.515625 1263.195312 348.746094 1263.195312 351.496094 " fill-opacity="1" fill-rule="nonzero"></path><path fill="#25a8e0" d="M 1264.179688 396.332031 L 1264.214844 396.332031 L 1264.214844 359.527344 C 1264.214844 359.34375 1264.050781 359.195312 1263.84375 359.191406 L 1247.605469 359.109375 L 1247.699219 360.164062 C 1247.714844 360.3125 1247.851562 360.425781 1248.019531 360.429688 C 1250.085938 360.472656 1251.964844 360.796875 1253.53125 361.390625 C 1253.652344 361.4375 1253.734375 361.546875 1253.734375 361.667969 L 1253.734375 396.460938 L 1251.636719 396.832031 L 1251.636719 397.835938 L 1265.894531 397.835938 L 1265.894531 396.707031 L 1264.179688 396.332031 " fill-opacity="1" fill-rule="nonzero"></path><path fill="#25a8e0" d="M 1258.679688 414.230469 C 1235.875 414.230469 1217.324219 395.6875 1217.324219 372.894531 C 1217.324219 350.097656 1235.875 331.558594 1258.679688 331.558594 C 1281.488281 331.558594 1300.042969 350.097656 1300.042969 372.894531 C 1300.042969 380.726562 1297.835938 388.355469 1293.671875 394.945312 C 1293.550781 395.136719 1293.296875 395.195312 1293.101562 395.074219 C 1292.910156 394.953125 1292.855469 394.699219 1292.976562 394.507812 C 1297.058594 388.046875 1299.21875 380.574219 1299.21875 372.894531 C 1299.21875 350.554688 1281.03125 332.378906 1258.679688 332.378906 C 1236.328125 332.378906 1218.144531 350.554688 1218.144531 372.894531 C 1218.144531 395.234375 1236.328125 413.410156 1258.679688 413.410156 C 1260.351562 413.410156 1262.03125 413.304688 1263.679688 413.101562 C 1263.90625 413.074219 1264.109375 413.238281 1264.136719 413.460938 C 1264.167969 413.6875 1264.007812 413.894531 1263.78125 413.921875 C 1262.101562 414.125 1260.386719 414.230469 1258.679688 414.230469 " fill-opacity="1" fill-rule="nonzero"></path><path fill="#faf9f9" d="M 1303.835938 551.753906 L 1303.546875 562.125 L 1298.640625 562.125 L 1296.992188 550.804688 L 1303.835938 551.753906 " fill-opacity="1" fill-rule="nonzero"></path><path fill="#25a8e0" d="M 1298.996094 561.714844 L 1303.144531 561.714844 L 1303.414062 552.113281 L 1297.476562 551.289062 Z M 1303.546875 562.535156 L 1298.640625 562.535156 C 1298.433594 562.535156 1298.261719 562.386719 1298.230469 562.183594 L 1296.585938 550.863281 C 1296.5625 550.738281 1296.609375 550.605469 1296.699219 550.515625 C 1296.789062 550.425781 1296.917969 550.382812 1297.050781 550.398438 L 1303.894531 551.347656 C 1304.101562 551.378906 1304.253906 551.558594 1304.25 551.765625 L 1303.957031 562.136719 C 1303.949219 562.359375 1303.769531 562.535156 1303.546875 562.535156 " fill-opacity="1" fill-rule="nonzero"></path><g clip-path="url(#c5cc06e82e)"><path fill="#25a8e0" d="M 1278.515625 570.777344 L 1303.96875 570.777344 C 1305.292969 570.777344 1306.3125 569.605469 1306.121094 568.292969 C 1305.679688 565.320312 1304.910156 560.496094 1304.242188 558.527344 C 1303.246094 555.585938 1300.023438 560.269531 1300.023438 560.269531 L 1298.136719 558.683594 C 1298.136719 558.683594 1281.363281 563.59375 1277.511719 568.765625 C 1276.894531 569.597656 1277.480469 570.777344 1278.515625 570.777344 " fill-opacity="1" fill-rule="nonzero"></path></g><path fill="#faf9f9" d="M 1303.835938 569.253906 L 1280.0625 569.253906 C 1279.832031 569.253906 1279.652344 569.070312 1279.652344 568.84375 C 1279.652344 568.617188 1279.832031 568.433594 1280.0625 568.433594 L 1303.835938 568.433594 C 1304.0625 568.433594 1304.25 568.617188 1304.25 568.84375 C 1304.25 569.070312 1304.0625 569.253906 1303.835938 569.253906 " fill-opacity="1" fill-rule="nonzero"></path><path fill="#faf9f9" d="M 1340.207031 540.730469 L 1349.539062 552.539062 L 1354.476562 548.839844 L 1346.488281 535.8125 L 1340.207031 540.730469 " fill-opacity="1" fill-rule="nonzero"></path><path fill="#25a8e0" d="M 1340.785156 540.796875 L 1349.609375 551.96875 L 1353.925781 548.734375 L 1346.375 536.421875 Z M 1349.539062 552.949219 C 1349.414062 552.949219 1349.292969 552.898438 1349.214844 552.792969 L 1339.882812 540.984375 C 1339.816406 540.898438 1339.785156 540.789062 1339.800781 540.679688 C 1339.8125 540.574219 1339.867188 540.472656 1339.953125 540.40625 L 1346.234375 535.488281 C 1346.328125 535.417969 1346.441406 535.386719 1346.558594 535.40625 C 1346.675781 535.429688 1346.777344 535.5 1346.839844 535.597656 L 1354.824219 548.625 C 1354.9375 548.808594 1354.890625 549.042969 1354.71875 549.167969 L 1349.785156 552.867188 C 1349.707031 552.925781 1349.621094 552.949219 1349.539062 552.949219 " fill-opacity="1" fill-rule="nonzero"></path><path fill="#25a8e0" d="M 1339.675781 569.789062 C 1343.953125 567.792969 1354.953125 562.207031 1361.167969 554.90625 C 1361.730469 554.25 1361.742188 553.289062 1361.222656 552.601562 C 1359.898438 550.839844 1357.214844 547.578125 1354.472656 546.0625 C 1354.472656 546.0625 1348.902344 548 1350.394531 550.628906 L 1348.363281 550.300781 C 1348.363281 550.300781 1339.386719 560.382812 1338.066406 568.585938 C 1337.921875 569.484375 1338.851562 570.171875 1339.675781 569.789062 " fill-opacity="1" fill-rule="nonzero"></path><path fill="#faf9f9" d="M 1339.882812 568.078125 C 1339.738281 568.078125 1339.597656 568 1339.519531 567.867188 C 1339.410156 567.667969 1339.484375 567.417969 1339.679688 567.308594 C 1339.8125 567.234375 1352.789062 559.976562 1359.609375 552.722656 C 1359.765625 552.554688 1360.027344 552.546875 1360.191406 552.703125 C 1360.355469 552.859375 1360.367188 553.117188 1360.207031 553.285156 C 1353.300781 560.636719 1340.214844 567.953125 1340.082031 568.027344 C 1340.015625 568.0625 1339.949219 568.078125 1339.882812 568.078125 " fill-opacity="1" fill-rule="nonzero"></path><path fill="#faf9f9" d="M 1301.773438 471.050781 C 1301.773438 471.050781 1316.09375 512.226562 1341.007812 544.113281 L 1349.460938 537.445312 C 1349.460938 537.445312 1342.746094 515.71875 1341.089844 512.925781 C 1339.425781 510.128906 1334.976562 502.90625 1333.640625 499.113281 C 1329.3125 486.796875 1324.726562 463.308594 1324.726562 463.308594 L 1301.773438 471.050781 " fill-opacity="1" fill-rule="nonzero"></path><path fill="#25a8e0" d="M 1302.300781 471.308594 C 1303.835938 475.582031 1317.929688 513.761719 1341.074219 543.535156 L 1348.980469 537.296875 C 1348.203125 534.789062 1342.25 515.691406 1340.730469 513.136719 C 1340.546875 512.824219 1340.324219 512.453125 1340.078125 512.042969 C 1338.113281 508.761719 1334.453125 502.660156 1333.253906 499.246094 C 1329.300781 487.996094 1325.078125 467.203125 1324.410156 463.847656 Z M 1341.007812 544.523438 C 1340.988281 544.523438 1340.972656 544.523438 1340.957031 544.523438 C 1340.847656 544.507812 1340.75 544.453125 1340.683594 544.367188 C 1316.007812 512.792969 1301.527344 471.601562 1301.382812 471.1875 C 1301.347656 471.085938 1301.355469 470.96875 1301.402344 470.871094 C 1301.453125 470.773438 1301.535156 470.699219 1301.640625 470.664062 L 1324.59375 462.917969 C 1324.703125 462.882812 1324.828125 462.890625 1324.929688 462.953125 C 1325.03125 463.011719 1325.105469 463.113281 1325.125 463.230469 C 1325.171875 463.464844 1329.761719 486.828125 1334.03125 498.976562 C 1335.199219 502.308594 1338.835938 508.363281 1340.785156 511.621094 C 1341.03125 512.03125 1341.253906 512.402344 1341.441406 512.714844 C 1343.105469 515.519531 1349.578125 536.433594 1349.851562 537.324219 C 1349.902344 537.484375 1349.847656 537.660156 1349.714844 537.765625 L 1341.261719 544.4375 C 1341.191406 544.492188 1341.097656 544.523438 1341.007812 544.523438 " fill-opacity="1" fill-rule="nonzero"></path><path fill="#faf9f9" d="M 1281.503906 464.21875 C 1281.503906 464.21875 1286.070312 495.117188 1288.683594 511.363281 C 1291.296875 527.613281 1296.917969 553.785156 1296.917969 553.785156 L 1304.992188 553.785156 C 1304.992188 553.785156 1307.648438 536.007812 1308.289062 526.15625 C 1308.929688 516.304688 1305.675781 513.519531 1305.027344 505.59375 C 1304.382812 497.664062 1308.414062 472.027344 1308.414062 472.027344 L 1296.453125 460.34375 L 1281.503906 464.21875 " fill-opacity="1" fill-rule="nonzero"></path><path fill="#25a8e0" d="M 1297.25 553.375 L 1304.632812 553.375 C 1305.007812 550.828125 1307.292969 535.09375 1307.875 526.128906 C 1308.25 520.375 1307.296875 517.121094 1306.285156 513.679688 C 1305.597656 511.332031 1304.886719 508.90625 1304.617188 505.625 C 1304 498.027344 1307.5625 474.808594 1307.976562 472.175781 L 1296.332031 460.800781 L 1281.964844 464.523438 C 1282.488281 468.058594 1286.660156 496.191406 1289.089844 511.296875 C 1291.515625 526.375 1296.59375 550.308594 1297.25 553.375 Z M 1304.988281 554.195312 L 1296.917969 554.195312 C 1296.722656 554.195312 1296.554688 554.0625 1296.515625 553.871094 C 1296.457031 553.609375 1290.863281 527.5 1288.277344 511.429688 C 1285.695312 495.363281 1281.144531 464.585938 1281.097656 464.277344 C 1281.070312 464.070312 1281.199219 463.871094 1281.402344 463.820312 L 1296.351562 459.945312 C 1296.488281 459.910156 1296.636719 459.949219 1296.742188 460.050781 L 1308.703125 471.734375 C 1308.796875 471.828125 1308.84375 471.960938 1308.824219 472.09375 C 1308.78125 472.347656 1304.804688 497.769531 1305.4375 505.558594 C 1305.699219 508.753906 1306.398438 511.140625 1307.074219 513.445312 C 1308.058594 516.808594 1309.082031 520.28125 1308.695312 526.183594 C 1308.0625 535.941406 1305.421875 553.667969 1305.394531 553.847656 C 1305.367188 554.046875 1305.191406 554.195312 1304.988281 554.195312 " fill-opacity="1" fill-rule="nonzero"></path><path fill="#faf9f9" d="M 1283.773438 409.660156 C 1282.476562 408.371094 1282.746094 407.558594 1282.984375 407.496094 C 1283.207031 407.441406 1284.519531 406.796875 1284.929688 406.4375 C 1285.90625 405.578125 1286.222656 404.339844 1285.636719 403.667969 C 1285.324219 403.3125 1284.8125 403.191406 1284.253906 403.289062 C 1284.410156 401.492188 1283.890625 400.640625 1283.460938 399.40625 C 1281.980469 395.164062 1278.273438 396.046875 1276.933594 397.570312 C 1275.761719 398.902344 1275.847656 400.042969 1273.3125 401.328125 C 1273.066406 401.453125 1273.070312 401.816406 1273.207031 402.054688 L 1273.871094 403.402344 C 1274.019531 403.667969 1273.960938 404.324219 1273.867188 404.617188 C 1273.578125 405.523438 1272.886719 407.417969 1273.078125 407.785156 C 1273.460938 408.503906 1276.4375 409.574219 1276.4375 409.574219 L 1281.707031 417.523438 C 1281.492188 419.199219 1280.535156 420.140625 1279.816406 420.621094 C 1279.371094 420.921875 1279.367188 421.570312 1279.820312 421.851562 C 1280.671875 422.382812 1282.390625 423.214844 1285.839844 424.433594 C 1290.40625 426.042969 1295.355469 420.058594 1295.355469 420.058594 C 1295.355469 420.058594 1293.964844 419.859375 1283.773438 409.660156 " fill-opacity="1" fill-rule="nonzero"></path><path fill="#25a8e0" d="M 1273.460938 407.632812 Z M 1273.457031 407.613281 C 1273.691406 407.96875 1275.242188 408.703125 1276.574219 409.183594 C 1276.660156 409.214844 1276.730469 409.269531 1276.78125 409.34375 L 1282.050781 417.296875 C 1282.109375 417.378906 1282.132812 417.480469 1282.117188 417.578125 C 1281.882812 419.382812 1280.859375 420.414062 1280.046875 420.960938 C 1279.910156 421.054688 1279.894531 421.191406 1279.894531 421.246094 C 1279.898438 421.304688 1279.917969 421.425781 1280.039062 421.503906 C 1280.789062 421.96875 1282.425781 422.789062 1285.980469 424.042969 C 1289.574219 425.3125 1293.539062 421.429688 1294.703125 420.171875 C 1293.625 419.496094 1290.789062 417.257812 1283.480469 409.953125 C 1282.269531 408.738281 1282.332031 407.90625 1282.414062 407.605469 C 1282.492188 407.339844 1282.667969 407.152344 1282.890625 407.097656 C 1283.078125 407.042969 1284.304688 406.433594 1284.65625 406.125 C 1285.453125 405.429688 1285.757812 404.429688 1285.328125 403.941406 C 1285.125 403.707031 1284.757812 403.617188 1284.328125 403.691406 C 1284.199219 403.710938 1284.074219 403.675781 1283.980469 403.589844 C 1283.886719 403.5 1283.835938 403.378906 1283.847656 403.253906 C 1283.960938 401.882812 1283.664062 401.101562 1283.320312 400.203125 C 1283.238281 399.988281 1283.15625 399.773438 1283.074219 399.539062 C 1282.527344 397.96875 1281.601562 397.011719 1280.40625 396.777344 C 1279.160156 396.535156 1277.871094 397.128906 1277.242188 397.84375 C 1276.902344 398.230469 1276.679688 398.59375 1276.441406 398.980469 C 1275.910156 399.847656 1275.355469 400.746094 1273.527344 401.675781 C 1273.523438 401.714844 1273.53125 401.792969 1273.5625 401.851562 L 1274.242188 403.222656 C 1274.464844 403.621094 1274.367188 404.414062 1274.261719 404.738281 C 1274.214844 404.882812 1274.160156 405.050781 1274.101562 405.226562 C 1273.894531 405.84375 1273.417969 407.265625 1273.457031 407.613281 Z M 1287.484375 425.121094 C 1286.894531 425.121094 1286.300781 425.03125 1285.703125 424.820312 C 1282.792969 423.792969 1280.746094 422.914062 1279.605469 422.199219 C 1279.277344 421.996094 1279.078125 421.644531 1279.070312 421.257812 C 1279.066406 420.863281 1279.257812 420.5 1279.585938 420.277344 C 1280.238281 419.84375 1281.046875 419.027344 1281.28125 417.617188 L 1276.171875 409.910156 C 1275.316406 409.597656 1273.117188 408.730469 1272.71875 407.980469 C 1272.503906 407.578125 1272.722656 406.761719 1273.316406 404.96875 C 1273.378906 404.789062 1273.433594 404.628906 1273.480469 404.488281 C 1273.5625 404.21875 1273.570312 403.722656 1273.511719 403.605469 L 1272.835938 402.234375 C 1272.703125 402 1272.664062 401.679688 1272.742188 401.425781 C 1272.808594 401.21875 1272.941406 401.054688 1273.125 400.960938 C 1274.773438 400.125 1275.21875 399.398438 1275.738281 398.546875 C 1275.984375 398.152344 1276.238281 397.738281 1276.625 397.300781 C 1277.382812 396.4375 1278.941406 395.652344 1280.566406 395.96875 C 1281.609375 396.175781 1283.03125 396.914062 1283.851562 399.269531 C 1283.929688 399.492188 1284.007812 399.703125 1284.089844 399.90625 C 1284.414062 400.761719 1284.726562 401.570312 1284.691406 402.84375 C 1285.203125 402.863281 1285.648438 403.054688 1285.949219 403.398438 C 1286.699219 404.25 1286.371094 405.71875 1285.203125 406.742188 C 1284.800781 407.09375 1283.648438 407.691406 1283.203125 407.859375 C 1283.171875 408.027344 1283.25 408.558594 1284.0625 409.371094 C 1293.492188 418.800781 1295.328125 419.613281 1295.457031 419.660156 C 1295.585938 419.691406 1295.691406 419.785156 1295.742188 419.910156 C 1295.792969 420.050781 1295.765625 420.207031 1295.671875 420.320312 C 1295.488281 420.542969 1291.648438 425.121094 1287.484375 425.121094 " fill-opacity="1" fill-rule="nonzero"></path><path fill="#25a8e0" d="M 1278.417969 398.75 C 1278.417969 398.75 1273.753906 395.042969 1275.058594 392.058594 C 1275.171875 391.796875 1275.519531 390.972656 1276.324219 390.609375 C 1277.972656 389.867188 1280.101562 391.660156 1280.578125 392.058594 C 1284.714844 395.503906 1287.472656 395.839844 1289.226562 397.644531 C 1289.863281 398.300781 1290.574219 399.511719 1290.488281 401.929688 C 1290.148438 403.65625 1289.4375 404.566406 1288.847656 405.082031 C 1287.640625 406.140625 1286.597656 405.832031 1285.742188 406.945312 C 1284.78125 408.191406 1285.382812 409.507812 1284.714844 409.898438 C 1284.195312 410.199219 1283.0625 409.867188 1280.398438 407.226562 C 1281.992188 405.445312 1282.777344 403.691406 1282.21875 402.808594 C 1282.058594 402.5625 1281.605469 402.136719 1281.132812 402.140625 C 1280.507812 402.144531 1280.09375 402.808594 1280.09375 402.808594 L 1278.417969 398.75 " fill-opacity="1" fill-rule="nonzero"></path><path fill="#faf9f9" d="M 1229.15625 405.355469 L 1223.347656 401.902344 C 1222.804688 401.578125 1222.363281 401.113281 1222.074219 400.554688 L 1220.625 397.773438 C 1220.410156 397.363281 1220.910156 396.953125 1221.269531 397.246094 L 1224.5 399.867188 C 1224.957031 400.238281 1225.488281 400.5 1226.058594 400.632812 L 1230.726562 401.78125 L 1231.792969 399.605469 C 1232.109375 398.964844 1232.777344 398.570312 1233.488281 398.605469 L 1232.277344 403.855469 L 1233.703125 408.777344 L 1230.097656 409.9375 L 1229.15625 405.355469 " fill-opacity="1" fill-rule="nonzero"></path><path fill="#25a8e0" d="M 1221.011719 397.5625 L 1222.4375 400.363281 C 1222.695312 400.855469 1223.082031 401.265625 1223.558594 401.550781 L 1229.367188 405 C 1229.46875 405.0625 1229.539062 405.160156 1229.5625 405.273438 L 1230.410156 409.40625 L 1233.195312 408.511719 L 1231.882812 403.972656 C 1231.867188 403.902344 1231.863281 403.832031 1231.878906 403.765625 L 1232.957031 399.089844 C 1232.617188 399.207031 1232.328125 399.453125 1232.164062 399.785156 L 1231.097656 401.960938 C 1231.007812 402.132812 1230.816406 402.222656 1230.628906 402.179688 L 1225.960938 401.03125 C 1225.339844 400.886719 1224.742188 400.59375 1224.242188 400.1875 Z M 1230.097656 410.347656 C 1230.027344 410.347656 1229.953125 410.328125 1229.890625 410.289062 C 1229.789062 410.234375 1229.71875 410.132812 1229.695312 410.019531 L 1228.792969 405.617188 L 1223.136719 402.253906 C 1222.53125 401.894531 1222.035156 401.371094 1221.707031 400.742188 L 1220.257812 397.960938 C 1220.074219 397.605469 1220.160156 397.179688 1220.472656 396.925781 C 1220.78125 396.671875 1221.21875 396.671875 1221.53125 396.925781 L 1224.761719 399.546875 C 1225.164062 399.878906 1225.648438 400.113281 1226.15625 400.230469 L 1230.503906 401.300781 L 1231.425781 399.425781 C 1231.816406 398.636719 1232.628906 398.152344 1233.507812 398.195312 C 1233.628906 398.199219 1233.746094 398.257812 1233.816406 398.359375 C 1233.890625 398.453125 1233.917969 398.578125 1233.890625 398.699219 L 1232.703125 403.847656 L 1234.097656 408.664062 C 1234.160156 408.878906 1234.039062 409.101562 1233.828125 409.171875 L 1230.222656 410.328125 C 1230.183594 410.34375 1230.140625 410.347656 1230.097656 410.347656 " fill-opacity="1" fill-rule="nonzero"></path><path fill="#faf9f9" d="M 1299.519531 358.273438 C 1299.519531 358.273438 1297.816406 356.25 1295.976562 356.429688 C 1294.136719 356.613281 1292.601562 356.519531 1292.601562 356.519531 C 1292.601562 356.519531 1292.691406 355.027344 1293.707031 355.082031 C 1294.71875 355.136719 1294.71875 355.136719 1294.71875 355.136719 L 1295.707031 354.777344 L 1291.851562 346.953125 L 1294.378906 347.378906 C 1294.890625 347.46875 1295.347656 347.742188 1295.667969 348.152344 L 1302.0625 356.449219 L 1299.519531 358.273438 " fill-opacity="1" fill-rule="nonzero"></path><path fill="#25a8e0" d="M 1296.210938 356.003906 C 1297.707031 356.003906 1299.03125 357.175781 1299.574219 357.726562 L 1301.476562 356.363281 L 1295.339844 348.402344 C 1295.085938 348.074219 1294.722656 347.855469 1294.3125 347.785156 L 1292.578125 347.492188 L 1296.078125 354.59375 C 1296.128906 354.695312 1296.132812 354.820312 1296.089844 354.929688 C 1296.046875 355.035156 1295.960938 355.121094 1295.851562 355.160156 L 1294.859375 355.523438 C 1294.808594 355.539062 1294.753906 355.546875 1294.699219 355.546875 L 1293.6875 355.492188 C 1293.339844 355.46875 1293.175781 355.820312 1293.089844 356.121094 C 1293.671875 356.136719 1294.746094 356.136719 1295.9375 356.019531 C 1296.027344 356.011719 1296.121094 356.003906 1296.210938 356.003906 Z M 1299.519531 358.683594 C 1299.402344 358.683594 1299.285156 358.636719 1299.203125 358.539062 C 1299.1875 358.519531 1297.613281 356.679688 1296.019531 356.835938 C 1294.164062 357.023438 1292.640625 356.933594 1292.578125 356.925781 C 1292.46875 356.921875 1292.367188 356.871094 1292.292969 356.789062 C 1292.222656 356.707031 1292.183594 356.597656 1292.191406 356.492188 C 1292.234375 355.832031 1292.605469 354.609375 1293.730469 354.667969 L 1294.65625 354.71875 L 1295.136719 354.546875 L 1291.484375 347.132812 C 1291.414062 346.996094 1291.429688 346.828125 1291.523438 346.707031 C 1291.613281 346.582031 1291.769531 346.519531 1291.921875 346.546875 L 1294.449219 346.976562 C 1295.0625 347.078125 1295.613281 347.40625 1295.992188 347.902344 L 1302.390625 356.199219 C 1302.457031 356.285156 1302.488281 356.398438 1302.472656 356.507812 C 1302.453125 356.617188 1302.394531 356.71875 1302.304688 356.78125 L 1299.761719 358.609375 C 1299.6875 358.660156 1299.605469 358.683594 1299.519531 358.683594 " fill-opacity="1" fill-rule="nonzero"></path><path fill="#faf9f9" d="M 1271.640625 440.363281 L 1275.226562 467.511719 C 1275.226562 467.511719 1284.574219 468.957031 1294.105469 468.160156 C 1294.105469 468.160156 1282.007812 439.558594 1271.640625 440.363281 " fill-opacity="1" fill-rule="nonzero"></path><path fill="#25a8e0" d="M 1275.59375 467.152344 C 1277.238281 467.382812 1285.273438 468.40625 1293.5 467.796875 C 1291.816406 463.984375 1281.207031 440.808594 1272.109375 440.757812 Z M 1288.078125 468.808594 C 1281.023438 468.808594 1275.234375 467.933594 1275.160156 467.921875 C 1274.980469 467.894531 1274.84375 467.75 1274.816406 467.570312 L 1271.234375 440.421875 C 1271.21875 440.308594 1271.25 440.195312 1271.324219 440.105469 C 1271.394531 440.015625 1271.496094 439.964844 1271.609375 439.953125 C 1282.148438 439.140625 1293.988281 466.820312 1294.484375 468 C 1294.535156 468.121094 1294.527344 468.261719 1294.457031 468.371094 C 1294.390625 468.488281 1294.269531 468.558594 1294.140625 468.570312 C 1292.085938 468.742188 1290.03125 468.808594 1288.078125 468.808594 " fill-opacity="1" fill-rule="nonzero"></path><path fill="#25a8e0" d="M 1233.703125 408.777344 C 1231.703125 410.1875 1231.601562 408.363281 1229.601562 409.773438 C 1233.441406 424.992188 1243.113281 439.363281 1249.777344 441.691406 C 1261.246094 445.691406 1268.355469 439.566406 1276.5625 445.273438 C 1285.816406 451.714844 1280.574219 462.144531 1290.980469 472.253906 C 1300.316406 481.320312 1313.046875 481.199219 1315.605469 481.171875 C 1318.210938 481.148438 1333.015625 481.007812 1337.066406 472.253906 C 1338.492188 469.171875 1338.078125 466.121094 1337.785156 463.929688 C 1337.234375 459.855469 1335.332031 456.851562 1328.273438 448.085938 C 1323.125 441.691406 1322.417969 441.191406 1320.84375 439.109375 C 1317.425781 434.578125 1313.523438 427.328125 1312.132812 415.71875 C 1314.449219 411.332031 1319.066406 401.144531 1318.117188 387.734375 C 1316.816406 369.417969 1306.023438 357.75 1302.894531 354.59375 C 1301.226562 355.816406 1299.550781 357.046875 1297.878906 358.273438 C 1299.742188 361.445312 1305.101562 371.476562 1303.472656 384.867188 C 1301.886719 397.894531 1294.667969 406.058594 1292.371094 408.578125 C 1289.21875 412.042969 1277.035156 424.3125 1258.671875 423.234375 C 1244.6875 422.414062 1236.523438 411.457031 1233.703125 408.777344 " fill-opacity="1" fill-rule="nonzero"></path><path fill="#faf9f9" d="M 1272.914062 421.304688 C 1272.914062 421.304688 1271.554688 418.511719 1272.914062 417.957031 C 1274.269531 417.398438 1289.328125 409.863281 1291.757812 406.546875 C 1294.179688 403.230469 1305.558594 404.554688 1307.910156 406.546875 C 1310.261719 408.539062 1306.976562 416.761719 1301.726562 420.039062 C 1296.476562 423.316406 1285.324219 417.230469 1272.914062 421.304688 " fill-opacity="1" fill-rule="nonzero"></path><path fill="#25a8e0" d="M 1298.617188 404.9375 C 1297.824219 404.9375 1297.039062 404.976562 1296.300781 405.0625 C 1294.183594 405.316406 1292.730469 405.914062 1292.085938 406.789062 C 1289.5625 410.242188 1274.5 417.75 1273.066406 418.335938 C 1272.929688 418.390625 1272.847656 418.484375 1272.789062 418.628906 C 1272.578125 419.179688 1272.898438 420.207031 1273.140625 420.800781 C 1279.855469 418.695312 1286.230469 419.488281 1291.371094 420.128906 C 1295.765625 420.675781 1299.242188 421.105469 1301.507812 419.691406 C 1305.257812 417.347656 1308.023438 412.335938 1308.253906 409.125 C 1308.3125 408.375 1308.246094 407.371094 1307.644531 406.859375 C 1306.457031 405.855469 1302.402344 404.9375 1298.617188 404.9375 Z M 1272.914062 421.71875 C 1272.757812 421.71875 1272.613281 421.628906 1272.542969 421.484375 C 1272.445312 421.28125 1271.589844 419.460938 1272.019531 418.335938 C 1272.15625 417.980469 1272.410156 417.714844 1272.757812 417.574219 C 1274.058594 417.039062 1289.09375 409.492188 1291.421875 406.304688 C 1292.214844 405.222656 1293.824219 404.53125 1296.203125 404.246094 C 1300.464844 403.738281 1306.394531 404.722656 1308.175781 406.230469 C 1308.863281 406.8125 1309.171875 407.835938 1309.078125 409.183594 C 1308.828125 412.582031 1306.035156 417.835938 1301.941406 420.390625 C 1299.429688 421.957031 1295.824219 421.511719 1291.265625 420.941406 C 1286.121094 420.304688 1279.714844 419.503906 1273.042969 421.695312 C 1272.996094 421.707031 1272.957031 421.71875 1272.914062 421.71875 " fill-opacity="1" fill-rule="nonzero"></path></svg>