<svg xmlns="http://www.w3.org/2000/svg" xmlns:xlink="http://www.w3.org/1999/xlink" width="300" viewBox="0 0 224.87999 225" height="300" preserveAspectRatio="xMidYMid meet"><defs><clipPath id="81b0fa63ab"><path d="M 4.722656 12.054688 L 219.652344 12.054688 L 219.652344 212.828125 L 4.722656 212.828125 Z M 4.722656 12.054688 " clip-rule="nonzero"></path></clipPath><clipPath id="f6f3b7644a"><path d="M 29.8125 37.484375 L 179.839844 37.484375 L 179.839844 187.515625 L 29.8125 187.515625 Z M 29.8125 37.484375 " clip-rule="nonzero"></path></clipPath><clipPath id="be30f3e29a"><path d="M 104.828125 37.484375 C 63.398438 37.484375 29.8125 71.070312 29.8125 112.5 C 29.8125 153.929688 63.398438 187.515625 104.828125 187.515625 C 146.257812 187.515625 179.839844 153.929688 179.839844 112.5 C 179.839844 71.070312 146.257812 37.484375 104.828125 37.484375 Z M 104.828125 37.484375 " clip-rule="nonzero"></path></clipPath><clipPath id="6dab946681"><path d="M 62 114 L 166.914062 114 L 166.914062 154 L 62 154 Z M 62 114 " clip-rule="nonzero"></path></clipPath><clipPath id="941d1e3137"><path d="M 43.363281 109 L 52 109 L 52 148 L 43.363281 148 Z M 43.363281 109 " clip-rule="nonzero"></path></clipPath><clipPath id="9e0b3c02f1"><path d="M 85 70.703125 L 100 70.703125 L 100 85 L 85 85 Z M 85 70.703125 " clip-rule="nonzero"></path></clipPath><clipPath id="6f9f573be2"><path d="M 135 70.703125 L 150 70.703125 L 150 85 L 135 85 Z M 135 70.703125 " clip-rule="nonzero"></path></clipPath></defs><g clip-path="url(#81b0fa63ab)"><path fill="#25a8e0" d="M 219.007812 109.273438 C 218.238281 108.734375 217.175781 108.921875 216.636719 109.695312 L 205.175781 126.101562 C 205.785156 121.605469 206.097656 117.046875 206.097656 112.492188 C 206.097656 85.660156 195.636719 60.441406 176.640625 41.46875 C 157.640625 22.5 132.382812 12.054688 105.511719 12.054688 C 78.644531 12.054688 53.386719 22.5 34.386719 41.46875 C 15.390625 60.441406 4.925781 85.660156 4.925781 112.492188 C 4.925781 139.316406 15.390625 164.539062 34.386719 183.511719 C 53.386719 202.476562 78.644531 212.921875 105.511719 212.921875 C 124.472656 212.921875 142.9375 207.628906 158.921875 197.613281 C 174.464844 187.867188 187.054688 174.085938 195.328125 157.757812 C 195.75 156.914062 195.417969 155.890625 194.578125 155.464844 C 193.734375 155.039062 192.710938 155.375 192.285156 156.214844 C 175.632812 189.09375 142.382812 209.511719 105.511719 209.511719 C 51.929688 209.511719 8.335938 165.988281 8.335938 112.492188 C 8.335938 58.988281 51.929688 15.464844 105.511719 15.464844 C 159.097656 15.464844 202.6875 58.988281 202.6875 112.492188 C 202.6875 117.476562 202.300781 122.46875 201.546875 127.375 L 192.554688 107.449219 C 192.167969 106.585938 191.15625 106.207031 190.296875 106.597656 C 189.4375 106.980469 189.058594 107.988281 189.441406 108.851562 L 200.75 133.894531 C 201 134.453125 201.535156 134.832031 202.144531 134.890625 C 202.199219 134.894531 202.25 134.894531 202.304688 134.894531 C 202.855469 134.894531 203.378906 134.628906 203.699219 134.167969 L 219.429688 111.644531 C 219.96875 110.875 219.78125 109.808594 219.007812 109.273438 Z M 219.007812 109.273438 " fill-opacity="1" fill-rule="nonzero"></path></g><path fill="#25a8e0" d="M 105.371094 41.035156 C 65.886719 41.035156 33.769531 73.15625 33.769531 112.640625 C 33.769531 152.125 65.886719 184.242188 105.371094 184.242188 C 144.851562 184.242188 176.976562 152.125 176.976562 112.640625 C 176.976562 73.15625 144.851562 41.035156 105.371094 41.035156 Z M 116.964844 74.046875 C 116.964844 77.8125 112.5625 84.734375 105.371094 84.734375 C 98.179688 84.734375 93.78125 77.8125 93.78125 74.046875 L 93.78125 69.089844 C 93.78125 68.667969 94.214844 68.3125 94.734375 68.3125 L 116.011719 68.3125 C 116.527344 68.3125 116.964844 68.667969 116.964844 69.089844 Z M 85.238281 139.449219 L 99.1875 86.765625 C 101.019531 87.628906 103.09375 88.144531 105.371094 88.144531 C 107.652344 88.144531 109.726562 87.625 111.558594 86.761719 L 125.785156 139.445312 L 105.382812 161.277344 Z M 85.238281 139.449219 " fill-opacity="1" fill-rule="nonzero"></path><g clip-path="url(#f6f3b7644a)"><g clip-path="url(#be30f3e29a)"><path fill="#25a8e0" d="M 29.8125 37.484375 L 179.839844 37.484375 L 179.839844 187.515625 L 29.8125 187.515625 Z M 29.8125 37.484375 " fill-opacity="1" fill-rule="nonzero"></path></g></g><g clip-path="url(#6dab946681)"><path fill="#ffffff" d="M 62 139.976562 L 66.515625 138.953125 C 70.910156 137.957031 75.4375 138.324219 79.609375 140.019531 L 109.917969 152.332031 C 114.707031 154.28125 120.121094 154.109375 124.773438 151.855469 L 163.589844 133.089844 C 164.667969 132.566406 165.480469 131.652344 165.863281 130.515625 C 166.253906 129.382812 166.167969 128.164062 165.632812 127.089844 C 164.871094 125.570312 163.34375 124.628906 161.648438 124.628906 C 161.257812 124.628906 160.851562 124.683594 160.453125 124.792969 L 128.964844 133.566406 C 128.914062 134.15625 128.792969 134.734375 128.597656 135.289062 C 127.625 138.039062 125.058594 139.765625 122.285156 139.765625 C 121.625 139.765625 120.953125 139.667969 120.289062 139.460938 L 96.171875 132.058594 C 95.390625 131.820312 94.953125 130.996094 95.191406 130.222656 C 95.433594 129.445312 96.257812 129.003906 97.03125 129.246094 L 121.152344 136.648438 C 123.097656 137.246094 125.144531 136.214844 125.824219 134.300781 C 125.96875 133.894531 126.039062 133.46875 126.039062 133.03125 C 126.039062 132.902344 126.035156 132.769531 126.019531 132.644531 L 126.019531 132.636719 C 126.015625 132.621094 126.015625 132.605469 126.011719 132.59375 C 125.867188 131.425781 125.203125 130.394531 124.214844 129.800781 L 94.605469 117.75 C 88.042969 115.078125 80.84375 114.03125 73.792969 114.710938 L 62.003906 115.855469 Z M 62 139.976562 " fill-opacity="1" fill-rule="evenodd"></path></g><path fill="#ffffff" d="M 54.152344 145.015625 L 58.117188 145.015625 C 58.632812 145.015625 59.054688 144.597656 59.054688 144.078125 L 59.054688 114.78125 C 59.046875 114.746094 59.042969 114.707031 59.039062 114.664062 C 59.027344 114.527344 59.03125 114.390625 59.054688 114.261719 L 59.054688 113.117188 C 59.054688 112.601562 58.636719 112.179688 58.117188 112.179688 L 54.152344 112.179688 Z M 54.152344 145.015625 " fill-opacity="1" fill-rule="evenodd"></path><g clip-path="url(#941d1e3137)"><path fill="#ffffff" d="M 51.210938 146.488281 L 51.210938 110.066406 C 51.210938 109.59375 50.828125 109.210938 50.355469 109.210938 L 43.382812 109.210938 L 43.382812 147.976562 L 50.355469 147.976562 C 50.828125 147.976562 51.210938 147.59375 51.210938 147.121094 Z M 51.210938 146.488281 " fill-opacity="1" fill-rule="evenodd"></path></g><path fill="#ffffff" d="M 117.453125 75.007812 C 113.722656 75.007812 110.683594 78.046875 110.683594 81.777344 C 110.683594 85.511719 113.722656 88.546875 117.453125 88.546875 C 121.1875 88.546875 124.222656 85.511719 124.222656 81.777344 C 124.222656 78.042969 121.1875 75.007812 117.453125 75.007812 Z M 117.453125 75.007812 " fill-opacity="1" fill-rule="evenodd"></path><path fill="#ffffff" d="M 103.355469 104.070312 L 131.558594 104.070312 C 130.816406 97.011719 124.828125 91.484375 117.574219 91.484375 L 117.339844 91.484375 C 110.082031 91.488281 104.089844 97.007812 103.355469 104.070312 Z M 103.355469 104.070312 " fill-opacity="1" fill-rule="evenodd"></path><path fill="#ffffff" d="M 104.664062 94.21875 C 102.683594 90.808594 99.308594 88.328125 95.445312 87.5 C 94.503906 87.296875 93.542969 87.191406 92.574219 87.1875 C 92.503906 87.1875 92.4375 87.191406 92.367188 87.191406 C 92.292969 87.191406 92.21875 87.191406 92.140625 87.1875 C 91.175781 87.195312 90.21875 87.300781 89.289062 87.5 C 86.644531 88.0625 84.230469 89.378906 82.304688 91.304688 C 80.003906 93.605469 78.597656 96.574219 78.261719 99.769531 L 101.339844 99.769531 C 102.09375 97.707031 103.230469 95.824219 104.664062 94.21875 Z M 104.664062 94.21875 " fill-opacity="1" fill-rule="evenodd"></path><g clip-path="url(#9e0b3c02f1)"><path fill="#ffffff" d="M 92.183594 84.242188 L 92.570312 84.242188 C 96.207031 84.136719 99.136719 81.140625 99.136719 77.476562 C 99.136719 73.742188 96.101562 70.703125 92.371094 70.703125 C 88.636719 70.703125 85.601562 73.742188 85.601562 77.476562 C 85.601562 81.144531 88.539062 84.140625 92.183594 84.242188 Z M 92.183594 84.242188 " fill-opacity="1" fill-rule="evenodd"></path></g><g clip-path="url(#6f9f573be2)"><path fill="#ffffff" d="M 142.351562 84.242188 L 142.738281 84.242188 C 146.378906 84.136719 149.304688 81.140625 149.304688 77.476562 C 149.304688 73.742188 146.269531 70.703125 142.539062 70.703125 C 138.804688 70.703125 135.765625 73.742188 135.765625 77.476562 C 135.769531 81.144531 138.703125 84.140625 142.351562 84.242188 Z M 142.351562 84.242188 " fill-opacity="1" fill-rule="evenodd"></path></g><path fill="#ffffff" d="M 133.566406 99.769531 L 156.632812 99.769531 C 155.996094 93.808594 151.5625 88.769531 145.617188 87.496094 C 144.675781 87.292969 143.710938 87.1875 142.746094 87.183594 C 142.675781 87.183594 142.609375 87.1875 142.539062 87.1875 C 142.464844 87.1875 142.390625 87.1875 142.3125 87.183594 C 141.347656 87.191406 140.386719 87.296875 139.460938 87.496094 C 136.8125 88.058594 134.402344 89.375 132.472656 91.300781 C 131.601562 92.175781 130.847656 93.15625 130.234375 94.210938 C 131.679688 95.824219 132.820312 97.707031 133.566406 99.769531 Z M 133.566406 99.769531 " fill-opacity="1" fill-rule="evenodd"></path></svg>