<svg xmlns="http://www.w3.org/2000/svg" xmlns:xlink="http://www.w3.org/1999/xlink" width="300" viewBox="0 0 224.87999 225" height="300" preserveAspectRatio="xMidYMid meet"><defs><clipPath id="4670889665"><path d="M 4.722656 12.054688 L 219.652344 12.054688 L 219.652344 212.828125 L 4.722656 212.828125 Z M 4.722656 12.054688 " clip-rule="nonzero"/></clipPath><clipPath id="3d5fb5c3de"><path d="M 29.8125 37.484375 L 179.839844 37.484375 L 179.839844 187.515625 L 29.8125 187.515625 Z M 29.8125 37.484375 " clip-rule="nonzero"/></clipPath><clipPath id="4c5ecd09b4"><path d="M 104.828125 37.484375 C 63.398438 37.484375 29.8125 71.070312 29.8125 112.5 C 29.8125 153.929688 63.398438 187.515625 104.828125 187.515625 C 146.257812 187.515625 179.839844 153.929688 179.839844 112.5 C 179.839844 71.070312 146.257812 37.484375 104.828125 37.484375 Z M 104.828125 37.484375 " clip-rule="nonzero"/></clipPath><clipPath id="e0db87fe48"><path d="M 43.050781 57.074219 L 147.296875 57.074219 L 147.296875 167.753906 L 43.050781 167.753906 Z M 43.050781 57.074219 " clip-rule="nonzero"/></clipPath></defs><g clip-path="url(#4670889665)"><path fill="#25a8e0" d="M 219.007812 109.273438 C 218.238281 108.734375 217.175781 108.921875 216.636719 109.695312 L 205.175781 126.101562 C 205.785156 121.605469 206.097656 117.046875 206.097656 112.492188 C 206.097656 85.660156 195.636719 60.441406 176.640625 41.46875 C 157.640625 22.5 132.382812 12.054688 105.511719 12.054688 C 78.644531 12.054688 53.386719 22.5 34.386719 41.46875 C 15.390625 60.441406 4.925781 85.660156 4.925781 112.492188 C 4.925781 139.316406 15.390625 164.539062 34.386719 183.511719 C 53.386719 202.476562 78.644531 212.921875 105.511719 212.921875 C 124.472656 212.921875 142.9375 207.628906 158.921875 197.613281 C 174.464844 187.867188 187.054688 174.085938 195.328125 157.757812 C 195.75 156.914062 195.417969 155.890625 194.578125 155.464844 C 193.734375 155.039062 192.710938 155.375 192.285156 156.214844 C 175.632812 189.09375 142.382812 209.511719 105.511719 209.511719 C 51.929688 209.511719 8.335938 165.988281 8.335938 112.492188 C 8.335938 58.988281 51.929688 15.464844 105.511719 15.464844 C 159.097656 15.464844 202.6875 58.988281 202.6875 112.492188 C 202.6875 117.476562 202.300781 122.46875 201.546875 127.375 L 192.554688 107.449219 C 192.167969 106.585938 191.15625 106.207031 190.296875 106.597656 C 189.4375 106.980469 189.058594 107.988281 189.441406 108.851562 L 200.75 133.894531 C 201 134.453125 201.535156 134.832031 202.144531 134.890625 C 202.199219 134.894531 202.25 134.894531 202.304688 134.894531 C 202.855469 134.894531 203.378906 134.628906 203.699219 134.167969 L 219.429688 111.644531 C 219.96875 110.875 219.78125 109.808594 219.007812 109.273438 Z M 219.007812 109.273438 " fill-opacity="1" fill-rule="nonzero"/></g><path fill="#25a8e0" d="M 105.371094 41.035156 C 65.886719 41.035156 33.769531 73.15625 33.769531 112.640625 C 33.769531 152.125 65.886719 184.242188 105.371094 184.242188 C 144.851562 184.242188 176.976562 152.125 176.976562 112.640625 C 176.976562 73.15625 144.851562 41.035156 105.371094 41.035156 Z M 116.964844 74.046875 C 116.964844 77.8125 112.5625 84.734375 105.371094 84.734375 C 98.179688 84.734375 93.78125 77.8125 93.78125 74.046875 L 93.78125 69.089844 C 93.78125 68.667969 94.214844 68.3125 94.734375 68.3125 L 116.011719 68.3125 C 116.527344 68.3125 116.964844 68.667969 116.964844 69.089844 Z M 85.238281 139.449219 L 99.1875 86.765625 C 101.019531 87.628906 103.09375 88.144531 105.371094 88.144531 C 107.652344 88.144531 109.726562 87.625 111.558594 86.761719 L 125.785156 139.445312 L 105.382812 161.277344 Z M 85.238281 139.449219 " fill-opacity="1" fill-rule="nonzero"/><g clip-path="url(#3d5fb5c3de)"><g clip-path="url(#4c5ecd09b4)"><path fill="#25a8e0" d="M 29.8125 37.484375 L 179.839844 37.484375 L 179.839844 187.515625 L 29.8125 187.515625 Z M 29.8125 37.484375 " fill-opacity="1" fill-rule="nonzero"/></g></g><path fill="#ffffff" d="M 90.867188 74.460938 L 134.335938 74.460938 C 135.535156 74.460938 136.507812 73.488281 136.507812 72.285156 C 136.507812 71.085938 135.535156 70.113281 134.335938 70.113281 L 90.867188 70.113281 C 89.667969 70.113281 88.695312 71.085938 88.695312 72.285156 C 88.695312 73.488281 89.667969 74.460938 90.867188 74.460938 Z M 90.867188 74.460938 " fill-opacity="1" fill-rule="nonzero"/><path fill="#ffffff" d="M 90.867188 85.328125 L 134.335938 85.328125 C 135.535156 85.328125 136.507812 84.355469 136.507812 83.152344 C 136.507812 81.953125 135.535156 80.980469 134.335938 80.980469 L 90.867188 80.980469 C 89.667969 80.980469 88.695312 81.953125 88.695312 83.152344 C 88.695312 84.355469 89.667969 85.328125 90.867188 85.328125 Z M 90.867188 85.328125 " fill-opacity="1" fill-rule="nonzero"/><path fill="#ffffff" d="M 134.335938 91.847656 L 108.253906 91.847656 C 107.054688 91.847656 106.082031 92.820312 106.082031 94.019531 C 106.082031 95.21875 107.054688 96.195312 108.253906 96.195312 L 134.335938 96.195312 C 135.535156 96.195312 136.507812 95.21875 136.507812 94.019531 C 136.507812 92.820312 135.535156 91.847656 134.335938 91.847656 Z M 134.335938 91.847656 " fill-opacity="1" fill-rule="nonzero"/><path fill="#ffffff" d="M 134.335938 102.714844 L 119.121094 102.714844 C 117.921875 102.714844 116.949219 103.6875 116.949219 104.886719 C 116.949219 106.085938 117.921875 107.0625 119.121094 107.0625 L 134.335938 107.0625 C 135.535156 107.0625 136.507812 106.085938 136.507812 104.886719 C 136.507812 103.6875 135.535156 102.714844 134.335938 102.714844 Z M 134.335938 102.714844 " fill-opacity="1" fill-rule="nonzero"/><path fill="#ffffff" d="M 134.335938 113.582031 L 119.121094 113.582031 C 117.921875 113.582031 116.949219 114.554688 116.949219 115.753906 C 116.949219 116.953125 117.921875 117.925781 119.121094 117.925781 L 134.335938 117.925781 C 135.535156 117.925781 136.507812 116.953125 136.507812 115.753906 C 136.507812 114.554688 135.535156 113.582031 134.335938 113.582031 Z M 134.335938 113.582031 " fill-opacity="1" fill-rule="nonzero"/><g clip-path="url(#e0db87fe48)"><path fill="#ffffff" d="M 145.203125 57.074219 L 80 57.074219 C 78.800781 57.074219 77.828125 58.046875 77.828125 59.246094 L 77.828125 94.019531 L 73.480469 94.019531 C 72.28125 94.019531 71.304688 94.992188 71.304688 96.195312 L 71.304688 101.800781 C 69.300781 102.398438 67.367188 103.199219 65.527344 104.199219 L 61.558594 100.230469 C 60.710938 99.382812 59.332031 99.382812 58.484375 100.230469 L 49.261719 109.453125 C 48.414062 110.300781 48.414062 111.675781 49.261719 112.527344 L 53.230469 116.492188 C 52.234375 118.335938 51.429688 120.269531 50.835938 122.273438 L 45.226562 122.273438 C 44.027344 122.273438 43.050781 123.246094 43.050781 124.449219 L 43.050781 137.488281 C 43.050781 138.6875 44.027344 139.660156 45.226562 139.660156 L 50.835938 139.660156 C 51.429688 141.664062 52.234375 143.601562 53.230469 145.441406 L 49.261719 149.410156 C 48.414062 150.257812 48.414062 151.636719 49.261719 152.484375 L 58.484375 161.703125 C 59.332031 162.554688 60.710938 162.554688 61.558594 161.703125 L 65.527344 157.738281 C 67.367188 158.734375 69.300781 159.535156 71.308594 160.132812 L 71.308594 165.742188 C 71.308594 166.941406 72.28125 167.914062 73.480469 167.914062 L 86.519531 167.914062 C 87.722656 167.914062 88.695312 166.941406 88.695312 165.742188 L 88.695312 160.132812 C 90.699219 159.539062 92.632812 158.734375 94.476562 157.738281 L 98.441406 161.703125 C 99.292969 162.554688 100.667969 162.554688 101.515625 161.703125 L 106.171875 157.050781 L 145.203125 157.050781 C 146.402344 157.050781 147.375 156.074219 147.375 154.875 L 147.375 59.246094 C 147.375 58.046875 146.402344 57.074219 145.203125 57.074219 Z M 80 150.527344 C 69.214844 150.527344 60.441406 141.753906 60.441406 130.96875 C 60.441406 120.183594 69.214844 111.40625 80 111.40625 C 90.785156 111.40625 99.5625 120.183594 99.5625 130.96875 C 99.5625 141.753906 90.785156 150.527344 80 150.527344 Z M 143.027344 152.703125 L 110.519531 152.703125 L 110.738281 152.484375 C 111.585938 151.636719 111.585938 150.257812 110.738281 149.410156 L 106.769531 145.441406 C 107.765625 143.601562 108.570312 141.664062 109.164062 139.660156 L 114.773438 139.660156 C 115.976562 139.660156 116.949219 138.6875 116.949219 137.488281 L 116.949219 124.449219 C 116.949219 123.246094 115.976562 122.273438 114.773438 122.273438 L 109.164062 122.273438 C 108.570312 120.269531 107.765625 118.335938 106.769531 116.492188 L 110.738281 112.527344 C 111.585938 111.675781 111.585938 110.300781 110.738281 109.453125 L 101.515625 100.230469 C 100.667969 99.382812 99.292969 99.382812 98.441406 100.230469 L 94.472656 104.199219 C 92.632812 103.199219 90.699219 102.398438 88.695312 101.800781 L 88.695312 96.195312 C 88.695312 94.992188 87.71875 94.019531 86.519531 94.019531 L 82.171875 94.019531 L 82.171875 61.417969 L 143.027344 61.417969 Z M 143.027344 152.703125 " fill-opacity="1" fill-rule="nonzero"/></g></svg>