<svg xmlns="http://www.w3.org/2000/svg" xmlns:xlink="http://www.w3.org/1999/xlink" width="300" viewBox="0 0 224.87999 225" height="300" preserveAspectRatio="xMidYMid meet"><defs><clipPath id="4beca937cb"><path d="M 4.722656 12.054688 L 219.652344 12.054688 L 219.652344 212.828125 L 4.722656 212.828125 Z M 4.722656 12.054688 " clip-rule="nonzero"/></clipPath><clipPath id="0e6cac2fe7"><path d="M 29.8125 37.484375 L 179.839844 37.484375 L 179.839844 187.515625 L 29.8125 187.515625 Z M 29.8125 37.484375 " clip-rule="nonzero"/></clipPath><clipPath id="827fb1e0e1"><path d="M 104.828125 37.484375 C 63.398438 37.484375 29.8125 71.070312 29.8125 112.5 C 29.8125 153.929688 63.398438 187.515625 104.828125 187.515625 C 146.257812 187.515625 179.839844 153.929688 179.839844 112.5 C 179.839844 71.070312 146.257812 37.484375 104.828125 37.484375 Z M 104.828125 37.484375 " clip-rule="nonzero"/></clipPath><clipPath id="f2de32ce57"><path d="M 36.789062 99 L 94 99 L 94 146 L 36.789062 146 Z M 36.789062 99 " clip-rule="nonzero"/></clipPath><clipPath id="06ca39fad5"><path d="M 101 98 L 175 98 L 175 155.886719 L 101 155.886719 Z M 101 98 " clip-rule="nonzero"/></clipPath></defs><g clip-path="url(#4beca937cb)"><path fill="#25a8e0" d="M 219.007812 109.273438 C 218.238281 108.734375 217.175781 108.921875 216.636719 109.695312 L 205.175781 126.101562 C 205.785156 121.605469 206.097656 117.046875 206.097656 112.492188 C 206.097656 85.660156 195.636719 60.441406 176.640625 41.46875 C 157.640625 22.5 132.382812 12.054688 105.511719 12.054688 C 78.644531 12.054688 53.386719 22.5 34.386719 41.46875 C 15.390625 60.441406 4.925781 85.660156 4.925781 112.492188 C 4.925781 139.316406 15.390625 164.539062 34.386719 183.511719 C 53.386719 202.476562 78.644531 212.921875 105.511719 212.921875 C 124.472656 212.921875 142.9375 207.628906 158.921875 197.613281 C 174.464844 187.867188 187.054688 174.085938 195.328125 157.757812 C 195.75 156.914062 195.417969 155.890625 194.578125 155.464844 C 193.734375 155.039062 192.710938 155.375 192.285156 156.214844 C 175.632812 189.09375 142.382812 209.511719 105.511719 209.511719 C 51.929688 209.511719 8.335938 165.988281 8.335938 112.492188 C 8.335938 58.988281 51.929688 15.464844 105.511719 15.464844 C 159.097656 15.464844 202.6875 58.988281 202.6875 112.492188 C 202.6875 117.476562 202.300781 122.46875 201.546875 127.375 L 192.554688 107.449219 C 192.167969 106.585938 191.15625 106.207031 190.296875 106.597656 C 189.4375 106.980469 189.058594 107.988281 189.441406 108.851562 L 200.75 133.894531 C 201 134.453125 201.535156 134.832031 202.144531 134.890625 C 202.199219 134.894531 202.25 134.894531 202.304688 134.894531 C 202.855469 134.894531 203.378906 134.628906 203.699219 134.167969 L 219.429688 111.644531 C 219.96875 110.875 219.78125 109.808594 219.007812 109.273438 Z M 219.007812 109.273438 " fill-opacity="1" fill-rule="nonzero"/></g><path fill="#25a8e0" d="M 105.371094 41.035156 C 65.886719 41.035156 33.769531 73.15625 33.769531 112.640625 C 33.769531 152.125 65.886719 184.242188 105.371094 184.242188 C 144.851562 184.242188 176.976562 152.125 176.976562 112.640625 C 176.976562 73.15625 144.851562 41.035156 105.371094 41.035156 Z M 116.964844 74.046875 C 116.964844 77.8125 112.5625 84.734375 105.371094 84.734375 C 98.179688 84.734375 93.78125 77.8125 93.78125 74.046875 L 93.78125 69.089844 C 93.78125 68.667969 94.214844 68.3125 94.734375 68.3125 L 116.011719 68.3125 C 116.527344 68.3125 116.964844 68.667969 116.964844 69.089844 Z M 85.238281 139.449219 L 99.1875 86.765625 C 101.019531 87.628906 103.09375 88.144531 105.371094 88.144531 C 107.652344 88.144531 109.726562 87.625 111.558594 86.761719 L 125.785156 139.445312 L 105.382812 161.277344 Z M 85.238281 139.449219 " fill-opacity="1" fill-rule="nonzero"/><g clip-path="url(#0e6cac2fe7)"><g clip-path="url(#827fb1e0e1)"><path fill="#25a8e0" d="M 29.8125 37.484375 L 179.839844 37.484375 L 179.839844 187.515625 L 29.8125 187.515625 Z M 29.8125 37.484375 " fill-opacity="1" fill-rule="nonzero"/></g></g><g clip-path="url(#f2de32ce57)"><path fill="#ffffff" d="M 53.183594 127.351562 C 50.125 126.097656 47.214844 124.574219 44.855469 122.480469 C 42.464844 120.433594 40.652344 117.789062 40.324219 114.765625 C 39.871094 111.746094 41.160156 108.511719 43.339844 105.917969 C 45.503906 103.285156 48.40625 101.179688 51.496094 99.449219 C 48.175781 100.683594 44.917969 102.308594 42.140625 104.765625 C 39.382812 107.164062 37.089844 110.710938 37 114.863281 C 36.789062 119 38.710938 122.960938 41.246094 125.929688 C 43.769531 128.992188 46.9375 131.320312 50.164062 133.277344 C 56.675781 137.207031 63.902344 139.664062 71.078125 141.433594 C 78.277344 143.203125 85.515625 144.292969 92.527344 145.371094 L 93.515625 132.097656 C 86.410156 132.128906 79.507812 132.167969 72.730469 131.589844 C 65.972656 131.015625 59.328125 129.84375 53.183594 127.351562 " fill-opacity="1" fill-rule="nonzero"/></g><g clip-path="url(#06ca39fad5)"><path fill="#ffffff" d="M 174.507812 112.144531 C 173.632812 108.453125 171.167969 105.601562 168.46875 103.5 C 165.769531 101.308594 162.585938 100.007812 159.496094 98.714844 C 162.40625 100.390625 165.351562 102.070312 167.621094 104.464844 C 169.921875 106.765625 171.6875 109.605469 171.980469 112.589844 C 172.3125 115.5625 171.15625 118.441406 169.25 120.761719 C 167.335938 123.101562 164.785156 124.957031 162.085938 126.511719 C 156.554688 129.460938 150.273438 131.308594 143.945312 132.390625 C 139.25 133.207031 134.476562 133.617188 129.667969 133.777344 L 129.386719 122.054688 L 101.066406 139.320312 L 130.179688 155.21875 L 129.898438 143.429688 C 142.105469 141.503906 154.390625 138.152344 164.878906 130.816406 C 167.746094 128.640625 170.441406 126.121094 172.410156 122.957031 C 174.382812 119.847656 175.429688 115.828125 174.507812 112.144531 " fill-opacity="1" fill-rule="nonzero"/></g><path fill="#ffffff" d="M 56.847656 115.308594 L 56.847656 110.578125 L 61.167969 106.664062 C 68.476562 100.128906 72.027344 96.371094 72.132812 92.460938 C 72.132812 89.734375 70.484375 87.570312 66.625 87.570312 C 63.742188 87.570312 61.222656 89.011719 59.46875 90.351562 L 57.257812 84.742188 C 59.78125 82.835938 63.691406 81.292969 68.21875 81.292969 C 75.785156 81.292969 79.953125 85.71875 79.953125 91.792969 C 79.953125 97.402344 75.886719 101.878906 71.050781 106.203125 L 67.960938 108.773438 L 67.960938 108.878906 L 80.570312 108.878906 L 80.570312 115.308594 L 56.847656 115.308594 " fill-opacity="1" fill-rule="nonzero"/><path fill="#ffffff" d="M 99.25 101.46875 L 99.25 94.054688 C 99.25 92.046875 99.355469 89.988281 99.507812 87.828125 L 99.300781 87.828125 C 98.222656 89.988281 97.347656 91.945312 96.214844 94.054688 L 91.738281 101.363281 L 91.738281 101.46875 Z M 99.25 115.308594 L 99.25 107.332031 L 84.429688 107.332031 L 84.429688 102.238281 L 97.089844 81.859375 L 106.660156 81.859375 L 106.660156 101.46875 L 110.675781 101.46875 L 110.675781 107.332031 L 106.660156 107.332031 L 106.660156 115.308594 L 99.25 115.308594 " fill-opacity="1" fill-rule="nonzero"/><path fill="#ffffff" d="M 112.628906 117.371094 L 123.644531 80.058594 L 128.839844 80.058594 L 117.828125 117.371094 L 112.628906 117.371094 " fill-opacity="1" fill-rule="nonzero"/><path fill="#ffffff" d="M 154.984375 81.859375 L 154.984375 86.800781 L 141.191406 115.308594 L 132.90625 115.308594 L 146.699219 88.394531 L 146.699219 88.292969 L 131.363281 88.292969 L 131.363281 81.859375 L 154.984375 81.859375 " fill-opacity="1" fill-rule="nonzero"/></svg>