<svg xmlns="http://www.w3.org/2000/svg" xmlns:xlink="http://www.w3.org/1999/xlink" width="300" viewBox="0 0 224.87999 225" height="300" preserveAspectRatio="xMidYMid meet"><defs><clipPath id="676135ef7c"><path d="M 4.722656 12.054688 L 219.652344 12.054688 L 219.652344 212.828125 L 4.722656 212.828125 Z M 4.722656 12.054688 " clip-rule="nonzero"></path></clipPath><clipPath id="443c131adc"><path d="M 29.8125 37.484375 L 179.839844 37.484375 L 179.839844 187.515625 L 29.8125 187.515625 Z M 29.8125 37.484375 " clip-rule="nonzero"></path></clipPath><clipPath id="857204fa72"><path d="M 104.828125 37.484375 C 63.398438 37.484375 29.8125 71.070312 29.8125 112.5 C 29.8125 153.929688 63.398438 187.515625 104.828125 187.515625 C 146.257812 187.515625 179.839844 153.929688 179.839844 112.5 C 179.839844 71.070312 146.257812 37.484375 104.828125 37.484375 Z M 104.828125 37.484375 " clip-rule="nonzero"></path></clipPath><clipPath id="f6f9a1e9d6"><path d="M 47.066406 59 L 159 59 L 159 170.714844 L 47.066406 170.714844 Z M 47.066406 59 " clip-rule="nonzero"></path></clipPath><clipPath id="a3b39b0a8c"><path d="M 99 55 L 162.894531 55 L 162.894531 118 L 99 118 Z M 99 55 " clip-rule="nonzero"></path></clipPath></defs><g clip-path="url(#676135ef7c)"><path fill="#25a8e0" d="M 219.007812 109.273438 C 218.238281 108.734375 217.175781 108.921875 216.636719 109.695312 L 205.175781 126.101562 C 205.785156 121.605469 206.097656 117.046875 206.097656 112.492188 C 206.097656 85.660156 195.636719 60.441406 176.640625 41.46875 C 157.640625 22.5 132.382812 12.054688 105.511719 12.054688 C 78.644531 12.054688 53.386719 22.5 34.386719 41.46875 C 15.390625 60.441406 4.925781 85.660156 4.925781 112.492188 C 4.925781 139.316406 15.390625 164.539062 34.386719 183.511719 C 53.386719 202.476562 78.644531 212.921875 105.511719 212.921875 C 124.472656 212.921875 142.9375 207.628906 158.921875 197.613281 C 174.464844 187.867188 187.054688 174.085938 195.328125 157.757812 C 195.75 156.914062 195.417969 155.890625 194.578125 155.464844 C 193.734375 155.039062 192.710938 155.375 192.285156 156.214844 C 175.632812 189.09375 142.382812 209.511719 105.511719 209.511719 C 51.929688 209.511719 8.335938 165.988281 8.335938 112.492188 C 8.335938 58.988281 51.929688 15.464844 105.511719 15.464844 C 159.097656 15.464844 202.6875 58.988281 202.6875 112.492188 C 202.6875 117.476562 202.300781 122.46875 201.546875 127.375 L 192.554688 107.449219 C 192.167969 106.585938 191.15625 106.207031 190.296875 106.597656 C 189.4375 106.980469 189.058594 107.988281 189.441406 108.851562 L 200.75 133.894531 C 201 134.453125 201.535156 134.832031 202.144531 134.890625 C 202.199219 134.894531 202.25 134.894531 202.304688 134.894531 C 202.855469 134.894531 203.378906 134.628906 203.699219 134.167969 L 219.429688 111.644531 C 219.96875 110.875 219.78125 109.808594 219.007812 109.273438 Z M 219.007812 109.273438 " fill-opacity="1" fill-rule="nonzero"></path></g><path fill="#25a8e0" d="M 105.371094 41.035156 C 65.886719 41.035156 33.769531 73.15625 33.769531 112.640625 C 33.769531 152.125 65.886719 184.242188 105.371094 184.242188 C 144.851562 184.242188 176.976562 152.125 176.976562 112.640625 C 176.976562 73.15625 144.851562 41.035156 105.371094 41.035156 Z M 116.964844 74.046875 C 116.964844 77.8125 112.5625 84.734375 105.371094 84.734375 C 98.179688 84.734375 93.78125 77.8125 93.78125 74.046875 L 93.78125 69.089844 C 93.78125 68.667969 94.214844 68.3125 94.734375 68.3125 L 116.011719 68.3125 C 116.527344 68.3125 116.964844 68.667969 116.964844 69.089844 Z M 85.238281 139.449219 L 99.1875 86.765625 C 101.019531 87.628906 103.09375 88.144531 105.371094 88.144531 C 107.652344 88.144531 109.726562 87.625 111.558594 86.761719 L 125.785156 139.445312 L 105.382812 161.277344 Z M 85.238281 139.449219 " fill-opacity="1" fill-rule="nonzero"></path><g clip-path="url(#443c131adc)"><g clip-path="url(#857204fa72)"><path fill="#25a8e0" d="M 29.8125 37.484375 L 179.839844 37.484375 L 179.839844 187.515625 L 29.8125 187.515625 Z M 29.8125 37.484375 " fill-opacity="1" fill-rule="nonzero"></path></g></g><path fill="#ffffff" d="M 102.527344 98.605469 C 104.25 98.605469 105.644531 97.210938 105.644531 95.492188 C 105.644531 93.773438 104.25 92.378906 102.527344 92.378906 C 90.308594 92.378906 80.371094 102.316406 80.371094 114.535156 C 80.371094 126.757812 90.308594 136.695312 102.527344 136.695312 C 114.75 136.695312 124.6875 126.757812 124.6875 114.535156 C 124.6875 112.816406 123.292969 111.421875 121.574219 111.421875 C 119.855469 111.421875 118.460938 112.816406 118.460938 114.535156 C 118.460938 123.320312 111.3125 130.464844 102.527344 130.464844 C 93.746094 130.464844 86.597656 123.320312 86.597656 114.535156 C 86.597656 105.753906 93.746094 98.605469 102.527344 98.605469 " fill-opacity="1" fill-rule="nonzero"></path><path fill="#ffffff" d="M 102.527344 76.402344 C 81.5 76.402344 64.394531 93.507812 64.394531 114.535156 C 64.394531 135.566406 81.5 152.671875 102.527344 152.671875 C 123.558594 152.671875 140.664062 135.566406 140.664062 114.535156 C 140.664062 112.816406 139.269531 111.421875 137.550781 111.421875 C 135.832031 111.421875 134.4375 112.816406 134.4375 114.535156 C 134.4375 132.132812 120.121094 146.445312 102.527344 146.445312 C 84.9375 146.445312 70.621094 132.132812 70.621094 114.535156 C 70.621094 96.941406 84.9375 82.628906 102.527344 82.628906 C 104.25 82.628906 105.644531 81.234375 105.644531 79.515625 C 105.644531 77.792969 104.25 76.402344 102.527344 76.402344 " fill-opacity="1" fill-rule="nonzero"></path><g clip-path="url(#f6f9a1e9d6)"><path fill="#ffffff" d="M 154.894531 111.421875 C 153.175781 111.421875 151.78125 112.816406 151.78125 114.535156 C 151.78125 141.695312 129.6875 163.792969 102.527344 163.792969 C 75.371094 163.792969 53.277344 141.695312 53.277344 114.535156 C 53.277344 87.378906 75.371094 65.285156 102.527344 65.285156 C 104.25 65.285156 105.644531 63.890625 105.644531 62.167969 C 105.644531 60.449219 104.25 59.054688 102.527344 59.054688 C 71.9375 59.054688 47.050781 83.945312 47.050781 114.535156 C 47.050781 145.132812 71.9375 170.019531 102.527344 170.019531 C 133.121094 170.019531 158.007812 145.132812 158.007812 114.535156 C 158.007812 112.816406 156.613281 111.421875 154.894531 111.421875 " fill-opacity="1" fill-rule="nonzero"></path></g><g clip-path="url(#a3b39b0a8c)"><path fill="#ffffff" d="M 143.027344 87.503906 L 136.0625 85.839844 L 146.152344 75.75 L 153.117188 77.417969 Z M 129.992188 74.472656 L 140.082031 64.378906 L 141.664062 70.996094 L 131.574219 81.089844 Z M 162.253906 74.832031 C 161.949219 73.75 161.078125 72.914062 159.980469 72.648438 L 147.765625 69.730469 L 144.851562 57.515625 C 144.589844 56.417969 143.75 55.550781 142.667969 55.242188 C 141.574219 54.945312 140.417969 55.246094 139.617188 56.035156 L 124.359375 71.296875 C 123.589844 72.0625 123.277344 73.171875 123.527344 74.222656 L 126.40625 86.257812 L 100.328125 112.332031 C 99.113281 113.550781 99.113281 115.519531 100.328125 116.738281 C 100.9375 117.347656 101.730469 117.648438 102.527344 117.648438 C 103.328125 117.648438 104.121094 117.347656 104.730469 116.738281 L 130.542969 90.925781 L 143.277344 93.96875 C 143.515625 94.027344 143.757812 94.054688 144 94.054688 C 144.816406 94.054688 145.609375 93.734375 146.199219 93.140625 L 161.457031 77.882812 C 162.257812 77.085938 162.5625 75.917969 162.253906 74.832031 " fill-opacity="1" fill-rule="nonzero"></path></g></svg>