<svg xmlns="http://www.w3.org/2000/svg" xmlns:xlink="http://www.w3.org/1999/xlink" width="300" viewBox="0 0 224.87999 225" height="300" preserveAspectRatio="xMidYMid meet"><defs><clipPath id="f35acd9ebd"><path d="M 4.71875 12.046875 L 219.65625 12.046875 L 219.65625 212.832031 L 4.71875 212.832031 Z M 4.71875 12.046875 " clip-rule="nonzero"></path></clipPath><clipPath id="14be1a38c4"><path d="M 29.808594 37.480469 L 179.84375 37.480469 L 179.84375 187.519531 L 29.808594 187.519531 Z M 29.808594 37.480469 " clip-rule="nonzero"></path></clipPath><clipPath id="61622a43ec"><path d="M 104.828125 37.480469 C 63.394531 37.480469 29.808594 71.070312 29.808594 112.5 C 29.808594 153.929688 63.394531 187.519531 104.828125 187.519531 C 146.257812 187.519531 179.84375 153.929688 179.84375 112.5 C 179.84375 71.070312 146.257812 37.480469 104.828125 37.480469 Z M 104.828125 37.480469 " clip-rule="nonzero"></path></clipPath><clipPath id="5bed783e85"><path d="M 41.476562 61.359375 L 157.285156 61.359375 L 157.285156 175.910156 L 41.476562 175.910156 Z M 41.476562 61.359375 " clip-rule="nonzero"></path></clipPath></defs><g clip-path="url(#f35acd9ebd)"><path fill="#25a8e0" d="M 219.015625 109.273438 C 218.242188 108.734375 217.179688 108.921875 216.640625 109.695312 L 205.179688 126.105469 C 205.789062 121.605469 206.101562 117.046875 206.101562 112.492188 C 206.101562 85.660156 195.640625 60.4375 176.640625 41.46875 C 157.640625 22.496094 132.382812 12.046875 105.511719 12.046875 C 78.644531 12.046875 53.382812 22.496094 34.382812 41.46875 C 15.386719 60.4375 4.921875 85.660156 4.921875 112.492188 C 4.921875 139.316406 15.386719 164.542969 34.382812 183.511719 C 53.382812 202.480469 78.644531 212.925781 105.511719 212.925781 C 124.472656 212.925781 142.941406 207.632812 158.925781 197.617188 C 174.46875 187.871094 187.058594 174.089844 195.332031 157.761719 C 195.753906 156.917969 195.421875 155.894531 194.582031 155.46875 C 193.738281 155.042969 192.714844 155.378906 192.289062 156.21875 C 175.636719 189.097656 142.386719 209.519531 105.511719 209.519531 C 51.925781 209.519531 8.332031 165.992188 8.332031 112.492188 C 8.332031 58.984375 51.925781 15.457031 105.511719 15.457031 C 159.097656 15.457031 202.695312 58.984375 202.695312 112.492188 C 202.695312 117.476562 202.304688 122.46875 201.550781 127.375 L 192.558594 107.449219 C 192.171875 106.585938 191.160156 106.207031 190.296875 106.59375 C 189.441406 106.980469 189.0625 107.988281 189.445312 108.851562 L 200.753906 133.894531 C 201.003906 134.453125 201.539062 134.832031 202.148438 134.894531 C 202.203125 134.898438 202.253906 134.898438 202.308594 134.898438 C 202.859375 134.898438 203.382812 134.628906 203.703125 134.167969 L 219.4375 111.644531 C 219.972656 110.875 219.785156 109.808594 219.015625 109.273438 Z M 219.015625 109.273438 " fill-opacity="1" fill-rule="nonzero"></path></g><path fill="#25a8e0" d="M 105.371094 41.03125 C 65.886719 41.03125 33.765625 73.152344 33.765625 112.640625 C 33.765625 152.125 65.886719 184.246094 105.371094 184.246094 C 144.855469 184.246094 176.980469 152.125 176.980469 112.640625 C 176.980469 73.152344 144.855469 41.03125 105.371094 41.03125 Z M 116.964844 74.042969 C 116.964844 77.8125 112.5625 84.734375 105.371094 84.734375 C 98.175781 84.734375 93.777344 77.8125 93.777344 74.042969 L 93.777344 69.085938 C 93.777344 68.664062 94.214844 68.3125 94.734375 68.3125 L 116.011719 68.3125 C 116.527344 68.3125 116.964844 68.664062 116.964844 69.085938 Z M 85.238281 139.449219 L 99.1875 86.761719 C 101.019531 87.628906 103.089844 88.144531 105.371094 88.144531 C 107.652344 88.144531 109.726562 87.625 111.558594 86.757812 L 125.785156 139.445312 L 105.378906 161.28125 Z M 85.238281 139.449219 " fill-opacity="1" fill-rule="nonzero"></path><g clip-path="url(#14be1a38c4)"><g clip-path="url(#61622a43ec)"><path fill="#25a8e0" d="M 29.808594 37.480469 L 179.84375 37.480469 L 179.84375 187.519531 L 29.808594 187.519531 Z M 29.808594 37.480469 " fill-opacity="1" fill-rule="nonzero"></path></g></g><g clip-path="url(#5bed783e85)"><path fill="#ffffff" d="M 138.144531 109.226562 C 136.128906 111.855469 133.726562 114.789062 130.929688 117.921875 C 130.574219 118.148438 130.292969 118.46875 130.105469 118.84375 C 124.167969 125.382812 116.511719 132.730469 106.960938 139.957031 L 79.28125 112.277344 C 90.347656 97.644531 101.699219 87.46875 110.007812 81.09375 C 114.445312 77.6875 119.292969 74.753906 124.425781 72.347656 C 127.152344 83.359375 135.878906 92.085938 146.890625 94.808594 C 144.480469 99.941406 141.550781 104.789062 138.144531 109.226562 Z M 96.019531 147.59375 L 71.644531 123.214844 C 73.246094 120.722656 74.871094 118.332031 76.511719 116.042969 L 103.191406 142.726562 C 100.902344 144.363281 98.511719 145.992188 96.019531 147.59375 Z M 143.410156 66.140625 C 146.148438 65.597656 148.859375 66.421875 150.835938 68.398438 C 152.8125 70.378906 153.636719 73.082031 153.097656 75.835938 C 152.109375 80.867188 150.652344 85.785156 148.761719 90.5 C 138.792969 88.355469 130.878906 80.445312 128.738281 70.472656 C 133.453125 68.585938 138.375 67.125 143.410156 66.140625 Z M 157.636719 76.714844 C 158.460938 72.5 157.144531 68.167969 154.105469 65.132812 C 151.070312 62.09375 146.738281 60.773438 142.507812 61.605469 C 129.59375 64.140625 117.382812 69.609375 107.195312 77.425781 C 104.605469 79.414062 101.722656 81.765625 98.652344 84.488281 C 82.417969 83.457031 70.089844 91.839844 57.867188 101.285156 C 51.5 106.203125 46.136719 111.625 41.921875 117.398438 C 41.457031 118.039062 41.347656 118.871094 41.640625 119.609375 C 41.929688 120.34375 42.578125 120.882812 43.355469 121.03125 L 55.316406 123.324219 C 55.464844 123.351562 55.609375 123.367188 55.753906 123.367188 C 56.839844 123.367188 57.808594 122.597656 58.023438 121.492188 C 58.261719 120.238281 57.441406 119.023438 56.1875 118.785156 L 47.921875 117.199219 C 51.484375 112.859375 55.765625 108.75 60.691406 104.945312 C 70.925781 97.035156 81.203125 89.90625 93.667969 89.097656 C 87.554688 94.984375 80.941406 102.246094 74.460938 111.003906 C 74.390625 111.085938 74.328125 111.171875 74.273438 111.261719 C 71.730469 114.710938 69.207031 118.386719 66.746094 122.308594 C 66.171875 123.222656 66.304688 124.410156 67.066406 125.171875 L 94.058594 152.171875 C 94.503906 152.617188 95.097656 152.851562 95.695312 152.851562 C 96.117188 152.851562 96.542969 152.734375 96.921875 152.496094 C 100.84375 150.035156 104.523438 147.511719 107.972656 144.964844 C 108.066406 144.910156 108.152344 144.84375 108.238281 144.773438 C 116.855469 138.394531 124.027344 131.886719 129.863281 125.855469 C 128.890625 138.09375 121.863281 148.21875 114.0625 158.3125 C 110.605469 162.789062 106.886719 166.742188 102.976562 170.097656 L 100.980469 162.128906 C 100.667969 160.890625 99.414062 160.144531 98.175781 160.449219 C 96.9375 160.757812 96.1875 162.015625 96.496094 163.253906 L 99.375 174.746094 C 99.566406 175.503906 100.125 176.113281 100.859375 176.367188 C 101.109375 176.453125 101.363281 176.496094 101.621094 176.496094 C 102.125 176.496094 102.621094 176.332031 103.03125 176.015625 C 108.273438 171.976562 113.214844 166.972656 117.722656 161.136719 C 127.074219 149.03125 135.386719 136.828125 134.542969 120.816406 C 137.355469 117.65625 139.773438 114.699219 141.8125 112.039062 C 145.988281 106.601562 149.492188 100.582031 152.238281 94.183594 C 152.300781 94.070312 152.351562 93.949219 152.390625 93.824219 C 154.710938 88.351562 156.480469 82.609375 157.636719 76.714844 " fill-opacity="1" fill-rule="nonzero"></path></g><path fill="#ffffff" d="M 82.789062 146.226562 C 81.550781 145.933594 80.304688 146.710938 80.015625 147.953125 C 80.003906 148.015625 78.535156 154.128906 73.296875 157.128906 C 70.074219 158.972656 66.027344 159.257812 61.253906 157.984375 C 59.980469 153.226562 60.261719 149.195312 62.089844 145.976562 C 65.050781 140.761719 71.230469 139.230469 71.285156 139.21875 C 72.527344 138.929688 73.300781 137.6875 73.011719 136.445312 C 72.722656 135.203125 71.476562 134.429688 70.238281 134.714844 C 69.910156 134.792969 62.089844 136.671875 58.097656 143.644531 C 55.4375 148.292969 55.128906 153.972656 57.183594 160.539062 C 57.410156 161.261719 57.976562 161.828125 58.699219 162.054688 C 61.554688 162.945312 64.246094 163.394531 66.757812 163.394531 C 70.011719 163.394531 72.96875 162.640625 75.59375 161.140625 C 82.566406 157.148438 84.445312 149.328125 84.523438 148.996094 C 84.808594 147.753906 84.035156 146.511719 82.789062 146.226562 " fill-opacity="1" fill-rule="nonzero"></path><path fill="#ffffff" d="M 123.347656 100.269531 C 122.179688 101.441406 120.140625 101.441406 118.96875 100.269531 C 117.761719 99.0625 117.761719 97.097656 118.96875 95.890625 C 119.570312 95.285156 120.363281 94.984375 121.15625 94.984375 C 121.949219 94.984375 122.742188 95.285156 123.347656 95.890625 C 124.554688 97.097656 124.554688 99.0625 123.347656 100.269531 Z M 115.699219 92.621094 C 112.691406 95.632812 112.691406 100.527344 115.699219 103.539062 C 117.15625 104.996094 119.09375 105.800781 121.15625 105.800781 C 123.21875 105.800781 125.15625 104.996094 126.617188 103.539062 C 129.625 100.527344 129.625 95.632812 126.617188 92.621094 C 123.609375 89.613281 118.710938 89.613281 115.699219 92.621094 " fill-opacity="1" fill-rule="nonzero"></path><path fill="#ffffff" d="M 107.148438 116.46875 C 105.976562 117.640625 103.9375 117.640625 102.769531 116.46875 C 101.5625 115.261719 101.5625 113.296875 102.769531 112.089844 C 103.371094 111.484375 104.164062 111.183594 104.957031 111.183594 C 105.75 111.183594 106.542969 111.484375 107.148438 112.089844 C 108.355469 113.296875 108.355469 115.261719 107.148438 116.46875 Z M 99.5 108.820312 C 96.488281 111.832031 96.488281 116.726562 99.5 119.738281 C 100.957031 121.195312 102.894531 122 104.957031 122 C 107.019531 122 108.957031 121.195312 110.417969 119.738281 C 113.425781 116.726562 113.425781 111.832031 110.417969 108.820312 C 107.40625 105.8125 102.511719 105.8125 99.5 108.820312 " fill-opacity="1" fill-rule="nonzero"></path></svg>