<svg xmlns="http://www.w3.org/2000/svg" xmlns:xlink="http://www.w3.org/1999/xlink" width="300" viewBox="0 0 224.87999 225" height="300" preserveAspectRatio="xMidYMid meet"><defs><clipPath id="96cae9de33"><path d="M 4.722656 12.054688 L 219.652344 12.054688 L 219.652344 212.828125 L 4.722656 212.828125 Z M 4.722656 12.054688 " clip-rule="nonzero"/></clipPath><clipPath id="eb2686f340"><path d="M 29.8125 37.484375 L 179.839844 37.484375 L 179.839844 187.515625 L 29.8125 187.515625 Z M 29.8125 37.484375 " clip-rule="nonzero"/></clipPath><clipPath id="33af39bf5e"><path d="M 104.828125 37.484375 C 63.398438 37.484375 29.8125 71.070312 29.8125 112.5 C 29.8125 153.929688 63.398438 187.515625 104.828125 187.515625 C 146.257812 187.515625 179.839844 153.929688 179.839844 112.5 C 179.839844 71.070312 146.257812 37.484375 104.828125 37.484375 Z M 104.828125 37.484375 " clip-rule="nonzero"/></clipPath><clipPath id="21b57e330d"><path d="M 47 57.09375 L 163 57.09375 L 163 167 L 47 167 Z M 47 57.09375 " clip-rule="nonzero"/></clipPath></defs><g clip-path="url(#96cae9de33)"><path fill="#25a8e0" d="M 219.007812 109.273438 C 218.238281 108.734375 217.175781 108.921875 216.636719 109.695312 L 205.175781 126.101562 C 205.785156 121.605469 206.097656 117.046875 206.097656 112.492188 C 206.097656 85.660156 195.636719 60.441406 176.640625 41.46875 C 157.640625 22.5 132.382812 12.054688 105.511719 12.054688 C 78.644531 12.054688 53.386719 22.5 34.386719 41.46875 C 15.390625 60.441406 4.925781 85.660156 4.925781 112.492188 C 4.925781 139.316406 15.390625 164.539062 34.386719 183.511719 C 53.386719 202.476562 78.644531 212.921875 105.511719 212.921875 C 124.472656 212.921875 142.9375 207.628906 158.921875 197.613281 C 174.464844 187.867188 187.054688 174.085938 195.328125 157.757812 C 195.75 156.914062 195.417969 155.890625 194.578125 155.464844 C 193.734375 155.039062 192.710938 155.375 192.285156 156.214844 C 175.632812 189.09375 142.382812 209.511719 105.511719 209.511719 C 51.929688 209.511719 8.335938 165.988281 8.335938 112.492188 C 8.335938 58.988281 51.929688 15.464844 105.511719 15.464844 C 159.097656 15.464844 202.6875 58.988281 202.6875 112.492188 C 202.6875 117.476562 202.300781 122.46875 201.546875 127.375 L 192.554688 107.449219 C 192.167969 106.585938 191.15625 106.207031 190.296875 106.597656 C 189.4375 106.980469 189.058594 107.988281 189.441406 108.851562 L 200.75 133.894531 C 201 134.453125 201.535156 134.832031 202.144531 134.890625 C 202.199219 134.894531 202.25 134.894531 202.304688 134.894531 C 202.855469 134.894531 203.378906 134.628906 203.699219 134.167969 L 219.429688 111.644531 C 219.96875 110.875 219.78125 109.808594 219.007812 109.273438 Z M 219.007812 109.273438 " fill-opacity="1" fill-rule="nonzero"/></g><path fill="#25a8e0" d="M 105.371094 41.035156 C 65.886719 41.035156 33.769531 73.15625 33.769531 112.640625 C 33.769531 152.125 65.886719 184.242188 105.371094 184.242188 C 144.851562 184.242188 176.976562 152.125 176.976562 112.640625 C 176.976562 73.15625 144.851562 41.035156 105.371094 41.035156 Z M 116.964844 74.046875 C 116.964844 77.8125 112.5625 84.734375 105.371094 84.734375 C 98.179688 84.734375 93.78125 77.8125 93.78125 74.046875 L 93.78125 69.089844 C 93.78125 68.667969 94.214844 68.3125 94.734375 68.3125 L 116.011719 68.3125 C 116.527344 68.3125 116.964844 68.667969 116.964844 69.089844 Z M 85.238281 139.449219 L 99.1875 86.765625 C 101.019531 87.628906 103.09375 88.144531 105.371094 88.144531 C 107.652344 88.144531 109.726562 87.625 111.558594 86.761719 L 125.785156 139.445312 L 105.382812 161.277344 Z M 85.238281 139.449219 " fill-opacity="1" fill-rule="nonzero"/><g clip-path="url(#eb2686f340)"><g clip-path="url(#33af39bf5e)"><path fill="#25a8e0" d="M 29.8125 37.484375 L 179.839844 37.484375 L 179.839844 187.515625 L 29.8125 187.515625 Z M 29.8125 37.484375 " fill-opacity="1" fill-rule="nonzero"/></g></g><g clip-path="url(#21b57e330d)"><path fill="#ffffff" d="M 160.605469 108.296875 L 155.78125 103.308594 C 152.273438 99.679688 150.628906 94.628906 151.339844 89.628906 L 152.308594 82.757812 C 152.734375 79.746094 150.695312 76.941406 147.699219 76.410156 L 140.863281 75.210938 C 135.890625 74.335938 131.597656 71.21875 129.226562 66.753906 L 125.972656 60.625 C 124.550781 57.949219 121.246094 56.875 118.519531 58.210938 L 112.285156 61.257812 C 107.75 63.472656 102.4375 63.472656 97.902344 61.257812 L 91.664062 58.210938 C 88.933594 56.875 85.632812 57.949219 84.207031 60.636719 L 80.953125 66.765625 C 78.585938 71.230469 74.296875 74.347656 69.316406 75.21875 L 62.484375 76.421875 C 59.488281 76.945312 57.445312 79.75 57.871094 82.765625 L 58.84375 89.636719 C 59.550781 94.636719 57.910156 99.683594 54.398438 103.3125 L 49.574219 108.304688 C 47.457031 110.492188 47.457031 113.957031 49.574219 116.148438 L 54.398438 121.136719 C 57.910156 124.765625 59.550781 129.8125 58.84375 134.8125 L 57.871094 141.6875 C 57.445312 144.699219 59.488281 147.503906 62.484375 148.035156 L 69.316406 149.234375 C 74.289062 150.109375 78.585938 153.226562 80.953125 157.691406 L 84.207031 163.820312 C 85.632812 166.503906 88.933594 167.582031 91.667969 166.242188 L 97.902344 163.195312 C 102.4375 160.980469 107.75 160.980469 112.285156 163.195312 L 118.519531 166.242188 C 121.253906 167.582031 124.550781 166.503906 125.980469 163.820312 L 129.234375 157.691406 C 131.601562 153.230469 135.890625 150.109375 140.871094 149.234375 L 147.703125 148.035156 C 150.699219 147.511719 152.742188 144.699219 152.316406 141.6875 L 151.34375 134.8125 C 150.632812 129.8125 152.277344 124.765625 155.789062 121.136719 L 160.613281 116.148438 C 162.71875 113.957031 162.71875 110.488281 160.605469 108.296875 Z M 95.773438 132.457031 L 83.257812 119.941406 C 81.128906 117.8125 81.128906 114.351562 83.257812 112.222656 C 85.386719 110.09375 88.847656 110.09375 90.976562 112.222656 L 99.632812 120.878906 L 124.664062 95.847656 C 126.792969 93.71875 130.253906 93.71875 132.382812 95.847656 C 134.511719 97.976562 134.511719 101.4375 132.382812 103.566406 L 103.492188 132.457031 C 101.363281 134.585938 97.902344 134.585938 95.773438 132.457031 Z M 95.773438 132.457031 " fill-opacity="1" fill-rule="nonzero"/></g></svg>