<svg xmlns="http://www.w3.org/2000/svg" xmlns:xlink="http://www.w3.org/1999/xlink" width="1920" viewBox="0 0 1440 809.999993" height="1080" preserveAspectRatio="xMidYMid meet"><defs><clipPath id="da937be7e4"><path d="M 1066.925781 240.144531 L 1380.425781 240.144531 L 1380.425781 570.144531 L 1066.925781 570.144531 Z M 1066.925781 240.144531 " clip-rule="nonzero"></path></clipPath><clipPath id="132c011709"><path d="M 1167.5625 298.960938 L 1380.105469 298.960938 L 1380.105469 511.644531 L 1167.5625 511.644531 Z M 1167.5625 298.960938 " clip-rule="nonzero"></path></clipPath></defs><rect x="-144" width="1728" fill="#ffffff" y="-80.999999" height="971.999992" fill-opacity="1"></rect><rect x="-144" width="1728" fill="#ffffff" y="-80.999999" height="971.999992" fill-opacity="1"></rect><g clip-path="url(#da937be7e4)"><path stroke-linecap="butt" transform="matrix(0.0525148, 0, 0, -0.0525143, 1067.260393, 570.150351)" fill="none" stroke-linejoin="miter" d="M 4158.971261 100.009174 L 368.596893 100.009174 C 220.275632 100.009174 99.997057 220.288865 99.997057 368.611502 L 99.997057 5915.535953 C 99.997057 6063.85859 220.275632 6184.138281 368.596893 6184.138281 L 4158.971261 6184.138281 C 4307.292521 6184.138281 4427.571097 6063.85859 4427.571097 5915.535953 L 4427.571097 368.611502 C 4427.571097 220.288865 4307.292521 100.009174 4158.971261 100.009174 Z M 4158.971261 100.009174 " stroke="#57b2db" stroke-width="200" stroke-opacity="1" stroke-miterlimit="10"></path></g><path fill="#25a8e0" d="M 1264.460938 312.613281 L 1107.824219 312.613281 C 1104.921875 312.613281 1102.574219 310.261719 1102.574219 307.363281 C 1102.574219 304.460938 1104.921875 302.109375 1107.824219 302.109375 L 1264.460938 302.109375 C 1267.363281 302.109375 1269.714844 304.460938 1269.714844 307.363281 C 1269.714844 310.261719 1267.363281 312.613281 1264.460938 312.613281 " fill-opacity="1" fill-rule="nonzero"></path><path fill="#25a8e0" d="M 1264.460938 337.058594 L 1107.824219 337.058594 C 1104.921875 337.058594 1102.574219 334.707031 1102.574219 331.808594 C 1102.574219 328.90625 1104.921875 326.554688 1107.824219 326.554688 L 1264.460938 326.554688 C 1267.363281 326.554688 1269.714844 328.90625 1269.714844 331.808594 C 1269.714844 334.707031 1267.363281 337.058594 1264.460938 337.058594 " fill-opacity="1" fill-rule="nonzero"></path><path fill="#25a8e0" d="M 1264.460938 361.503906 L 1107.824219 361.503906 C 1104.921875 361.503906 1102.574219 359.152344 1102.574219 356.253906 C 1102.574219 353.351562 1104.921875 351 1107.824219 351 L 1264.460938 351 C 1267.363281 351 1269.714844 353.351562 1269.714844 356.253906 C 1269.714844 359.152344 1267.363281 361.503906 1264.460938 361.503906 " fill-opacity="1" fill-rule="nonzero"></path><path fill="#25a8e0" d="M 1264.460938 385.953125 L 1107.824219 385.953125 C 1104.921875 385.953125 1102.574219 383.601562 1102.574219 380.699219 C 1102.574219 377.800781 1104.921875 375.449219 1107.824219 375.449219 L 1264.460938 375.449219 C 1267.363281 375.449219 1269.714844 377.800781 1269.714844 380.699219 C 1269.714844 383.601562 1267.363281 385.953125 1264.460938 385.953125 " fill-opacity="1" fill-rule="nonzero"></path><path fill="#25a8e0" d="M 1264.460938 410.398438 L 1107.824219 410.398438 C 1104.921875 410.398438 1102.574219 408.046875 1102.574219 405.148438 C 1102.574219 402.246094 1104.921875 399.894531 1107.824219 399.894531 L 1264.460938 399.894531 C 1267.363281 399.894531 1269.714844 402.246094 1269.714844 405.148438 C 1269.714844 408.046875 1267.363281 410.398438 1264.460938 410.398438 " fill-opacity="1" fill-rule="nonzero"></path><path fill="#25a8e0" d="M 1264.460938 434.84375 L 1107.824219 434.84375 C 1104.921875 434.84375 1102.574219 432.492188 1102.574219 429.59375 C 1102.574219 426.691406 1104.921875 424.339844 1107.824219 424.339844 L 1264.460938 424.339844 C 1267.363281 424.339844 1269.714844 426.691406 1269.714844 429.59375 C 1269.714844 432.492188 1267.363281 434.84375 1264.460938 434.84375 " fill-opacity="1" fill-rule="nonzero"></path><path fill="#25a8e0" d="M 1264.460938 459.289062 L 1107.824219 459.289062 C 1104.921875 459.289062 1102.574219 456.9375 1102.574219 454.039062 C 1102.574219 451.140625 1104.921875 448.785156 1107.824219 448.785156 L 1264.460938 448.785156 C 1267.363281 448.785156 1269.714844 451.140625 1269.714844 454.039062 C 1269.714844 456.9375 1267.363281 459.289062 1264.460938 459.289062 " fill-opacity="1" fill-rule="nonzero"></path><path fill="#25a8e0" d="M 1264.460938 483.738281 L 1107.824219 483.738281 C 1104.921875 483.738281 1102.574219 481.386719 1102.574219 478.484375 C 1102.574219 475.585938 1104.921875 473.234375 1107.824219 473.234375 L 1264.460938 473.234375 C 1267.363281 473.234375 1269.714844 475.585938 1269.714844 478.484375 C 1269.714844 481.386719 1267.363281 483.738281 1264.460938 483.738281 " fill-opacity="1" fill-rule="nonzero"></path><path fill="#25a8e0" d="M 1264.460938 508.183594 L 1107.824219 508.183594 C 1104.921875 508.183594 1102.574219 505.832031 1102.574219 502.933594 C 1102.574219 500.03125 1104.921875 497.679688 1107.824219 497.679688 L 1264.460938 497.679688 C 1267.363281 497.679688 1269.714844 500.03125 1269.714844 502.933594 C 1269.714844 505.832031 1267.363281 508.183594 1264.460938 508.183594 " fill-opacity="1" fill-rule="nonzero"></path><g clip-path="url(#132c011709)"><path fill="#faf9f9" d="M 1380.105469 390.375 L 1362.765625 385.675781 L 1376.550781 374.152344 L 1358.492188 339.269531 L 1341.128906 343.867188 L 1347.304688 327 L 1330.765625 316.410156 L 1314.226562 305.816406 L 1301.488281 318.484375 L 1298.398438 300.789062 L 1259.160156 298.984375 L 1254.460938 316.324219 L 1242.9375 302.542969 L 1208.054688 320.601562 L 1212.660156 337.964844 L 1195.789062 331.792969 L 1174.609375 364.871094 L 1187.277344 377.609375 L 1169.582031 380.699219 L 1167.78125 419.9375 L 1185.121094 424.632812 L 1171.339844 436.160156 L 1189.402344 471.039062 L 1206.765625 466.433594 L 1200.59375 483.308594 L 1233.675781 504.484375 L 1246.386719 491.839844 L 1249.464844 509.5 L 1288.703125 511.308594 L 1293.40625 493.972656 L 1304.925781 507.753906 L 1339.8125 489.703125 L 1335.214844 472.339844 L 1352.082031 478.515625 L 1373.269531 445.4375 L 1360.601562 432.699219 L 1378.300781 429.613281 L 1380.105469 390.375 " fill-opacity="1" fill-rule="nonzero"></path></g><path fill="#25a8e0" d="M 1242.140625 405.148438 L 1252.105469 395.414062 L 1266.585938 409.894531 L 1296.015625 380.699219 L 1305.746094 390.195312 L 1266.347656 429.59375 L 1242.140625 405.148438 " fill-opacity="1" fill-rule="nonzero"></path><path fill="#25a8e0" d="M 1273.941406 454.539062 C 1246.664062 454.539062 1224.550781 432.425781 1224.550781 405.148438 C 1224.550781 377.867188 1246.664062 355.753906 1273.941406 355.753906 C 1301.21875 355.753906 1323.332031 377.867188 1323.332031 405.148438 C 1323.332031 432.425781 1301.21875 454.539062 1273.941406 454.539062 Z M 1350.898438 393.339844 C 1350.398438 390.050781 1349.675781 386.832031 1348.773438 383.683594 L 1363.347656 371.5 L 1353.039062 351.582031 L 1334.65625 356.449219 C 1332.597656 353.878906 1330.375 351.445312 1328.007812 349.15625 L 1334.542969 331.300781 L 1325.101562 325.253906 L 1315.65625 319.207031 L 1302.183594 332.601562 C 1299.132812 331.414062 1295.992188 330.398438 1292.765625 329.601562 L 1289.5 310.894531 L 1267.09375 309.863281 L 1262.128906 328.1875 C 1258.839844 328.691406 1255.617188 329.414062 1252.472656 330.316406 L 1240.285156 315.742188 L 1230.328125 320.898438 L 1220.367188 326.054688 L 1225.238281 344.433594 C 1222.667969 346.496094 1220.238281 348.71875 1217.949219 351.085938 L 1200.089844 344.550781 L 1194.042969 353.996094 L 1187.996094 363.4375 L 1201.394531 376.914062 C 1200.207031 379.960938 1199.195312 383.101562 1198.390625 386.332031 L 1179.683594 389.597656 L 1178.660156 412.003906 L 1196.984375 416.964844 C 1197.488281 420.257812 1198.210938 423.476562 1199.113281 426.625 L 1184.539062 438.8125 L 1189.699219 448.769531 L 1194.855469 458.726562 L 1213.234375 453.855469 C 1215.296875 456.425781 1217.515625 458.855469 1219.886719 461.144531 L 1213.351562 479.003906 L 1222.796875 485.046875 L 1232.242188 491.09375 L 1245.710938 477.695312 C 1248.757812 478.878906 1251.886719 479.890625 1255.105469 480.691406 L 1258.367188 499.394531 L 1280.773438 500.429688 L 1285.742188 482.101562 C 1289.03125 481.605469 1292.25 480.882812 1295.398438 479.980469 L 1307.582031 494.554688 L 1317.542969 489.402344 L 1327.503906 484.246094 L 1322.632812 465.867188 C 1325.203125 463.804688 1327.636719 461.585938 1329.925781 459.21875 L 1347.78125 465.753906 L 1353.832031 456.3125 L 1359.878906 446.867188 L 1346.484375 433.394531 C 1347.671875 430.34375 1348.6875 427.203125 1349.488281 423.976562 L 1368.195312 420.714844 L 1369.226562 398.308594 L 1350.898438 393.339844 " fill-opacity="1" fill-rule="nonzero"></path></svg>