<svg xmlns="http://www.w3.org/2000/svg" xmlns:xlink="http://www.w3.org/1999/xlink" width="300" viewBox="0 0 224.87999 225" height="300" preserveAspectRatio="xMidYMid meet"><defs><clipPath id="3d20b160df"><path d="M 4.722656 12.054688 L 219.652344 12.054688 L 219.652344 212.828125 L 4.722656 212.828125 Z M 4.722656 12.054688 " clip-rule="nonzero"/></clipPath><clipPath id="299ae06402"><path d="M 29.8125 37.484375 L 179.839844 37.484375 L 179.839844 187.515625 L 29.8125 187.515625 Z M 29.8125 37.484375 " clip-rule="nonzero"/></clipPath><clipPath id="eabe0a62d9"><path d="M 104.828125 37.484375 C 63.398438 37.484375 29.8125 71.070312 29.8125 112.5 C 29.8125 153.929688 63.398438 187.515625 104.828125 187.515625 C 146.257812 187.515625 179.839844 153.929688 179.839844 112.5 C 179.839844 71.070312 146.257812 37.484375 104.828125 37.484375 Z M 104.828125 37.484375 " clip-rule="nonzero"/></clipPath><clipPath id="022354acc0"><path d="M 46.007812 53.679688 L 163.125 53.679688 L 163.125 170.796875 L 46.007812 170.796875 Z M 46.007812 53.679688 " clip-rule="nonzero"/></clipPath></defs><g clip-path="url(#3d20b160df)"><path fill="#25a8e0" d="M 219.007812 109.273438 C 218.238281 108.734375 217.175781 108.921875 216.636719 109.695312 L 205.175781 126.101562 C 205.785156 121.605469 206.097656 117.046875 206.097656 112.492188 C 206.097656 85.660156 195.636719 60.441406 176.640625 41.46875 C 157.640625 22.5 132.382812 12.054688 105.511719 12.054688 C 78.644531 12.054688 53.386719 22.5 34.386719 41.46875 C 15.390625 60.441406 4.925781 85.660156 4.925781 112.492188 C 4.925781 139.316406 15.390625 164.539062 34.386719 183.511719 C 53.386719 202.476562 78.644531 212.921875 105.511719 212.921875 C 124.472656 212.921875 142.9375 207.628906 158.921875 197.613281 C 174.464844 187.867188 187.054688 174.085938 195.328125 157.757812 C 195.75 156.914062 195.417969 155.890625 194.578125 155.464844 C 193.734375 155.039062 192.710938 155.375 192.285156 156.214844 C 175.632812 189.09375 142.382812 209.511719 105.511719 209.511719 C 51.929688 209.511719 8.335938 165.988281 8.335938 112.492188 C 8.335938 58.988281 51.929688 15.464844 105.511719 15.464844 C 159.097656 15.464844 202.6875 58.988281 202.6875 112.492188 C 202.6875 117.476562 202.300781 122.46875 201.546875 127.375 L 192.554688 107.449219 C 192.167969 106.585938 191.15625 106.207031 190.296875 106.597656 C 189.4375 106.980469 189.058594 107.988281 189.441406 108.851562 L 200.75 133.894531 C 201 134.453125 201.535156 134.832031 202.144531 134.890625 C 202.199219 134.894531 202.25 134.894531 202.304688 134.894531 C 202.855469 134.894531 203.378906 134.628906 203.699219 134.167969 L 219.429688 111.644531 C 219.96875 110.875 219.78125 109.808594 219.007812 109.273438 Z M 219.007812 109.273438 " fill-opacity="1" fill-rule="nonzero"/></g><path fill="#25a8e0" d="M 105.371094 41.035156 C 65.886719 41.035156 33.769531 73.15625 33.769531 112.640625 C 33.769531 152.125 65.886719 184.242188 105.371094 184.242188 C 144.851562 184.242188 176.976562 152.125 176.976562 112.640625 C 176.976562 73.15625 144.851562 41.035156 105.371094 41.035156 Z M 116.964844 74.046875 C 116.964844 77.8125 112.5625 84.734375 105.371094 84.734375 C 98.179688 84.734375 93.78125 77.8125 93.78125 74.046875 L 93.78125 69.089844 C 93.78125 68.667969 94.214844 68.3125 94.734375 68.3125 L 116.011719 68.3125 C 116.527344 68.3125 116.964844 68.667969 116.964844 69.089844 Z M 85.238281 139.449219 L 99.1875 86.765625 C 101.019531 87.628906 103.09375 88.144531 105.371094 88.144531 C 107.652344 88.144531 109.726562 87.625 111.558594 86.761719 L 125.785156 139.445312 L 105.382812 161.277344 Z M 85.238281 139.449219 " fill-opacity="1" fill-rule="nonzero"/><g clip-path="url(#299ae06402)"><g clip-path="url(#eabe0a62d9)"><path fill="#25a8e0" d="M 29.8125 37.484375 L 179.839844 37.484375 L 179.839844 187.515625 L 29.8125 187.515625 Z M 29.8125 37.484375 " fill-opacity="1" fill-rule="nonzero"/></g></g><g clip-path="url(#022354acc0)"><path fill="#ffffff" d="M 116.527344 63.425781 C 121.71875 64.660156 126.679688 66.71875 131.222656 69.519531 L 140.773438 65.277344 L 152.03125 76.53125 L 147.789062 86.082031 C 150.589844 90.625 152.648438 95.585938 153.882812 100.78125 L 163.628906 104.53125 L 163.628906 120.449219 L 153.882812 124.199219 C 153.558594 125.554688 153.179688 126.890625 152.75 128.207031 C 151.371094 127.421875 149.910156 126.761719 148.386719 126.246094 C 149.28125 125.300781 149.835938 124.027344 149.835938 122.628906 L 149.835938 120.234375 C 149.835938 117.339844 147.46875 114.972656 144.574219 114.972656 L 143.339844 114.972656 C 143.394531 114.152344 143.421875 113.324219 143.421875 112.488281 C 143.421875 91.167969 126.136719 73.882812 104.816406 73.882812 C 83.496094 73.882812 66.210938 91.167969 66.210938 112.488281 C 66.210938 133.8125 83.496094 151.097656 104.816406 151.097656 C 108.402344 151.097656 111.875 150.605469 115.171875 149.691406 C 115.113281 153.710938 115.992188 157.640625 117.78125 161.242188 C 117.363281 161.351562 116.945312 161.457031 116.527344 161.558594 L 112.777344 171.300781 L 96.859375 171.300781 L 93.105469 161.554688 C 87.914062 160.320312 82.953125 158.261719 78.410156 155.460938 L 68.859375 159.703125 L 57.605469 148.449219 L 61.84375 138.898438 C 59.042969 134.355469 56.984375 129.394531 55.75 124.199219 L 46.007812 120.449219 L 46.007812 104.53125 L 55.75 100.78125 C 56.988281 95.585938 59.046875 90.628906 61.84375 86.082031 L 57.605469 76.53125 L 68.859375 65.277344 L 78.410156 69.519531 C 82.953125 66.71875 87.914062 64.660156 93.105469 63.425781 L 96.859375 53.679688 L 112.777344 53.679688 Z M 140.316406 134.675781 C 131.8125 134.675781 124.917969 141.566406 124.917969 150.070312 C 124.917969 158.574219 131.8125 165.46875 140.316406 165.46875 C 148.820312 165.46875 155.714844 158.574219 155.714844 150.070312 C 155.714844 141.566406 148.820312 134.675781 140.316406 134.675781 Z M 140.316406 153.554688 C 138.394531 153.554688 136.835938 151.996094 136.835938 150.070312 C 136.835938 148.875 137.4375 147.820312 138.355469 147.195312 L 138.355469 140.554688 C 138.355469 139.472656 139.234375 138.59375 140.316406 138.59375 C 141.398438 138.59375 142.277344 139.472656 142.277344 140.554688 L 142.277344 147.195312 C 143.195312 147.820312 143.796875 148.875 143.796875 150.070312 C 143.796875 151.996094 142.238281 153.554688 140.316406 153.554688 Z M 157.253906 137.277344 L 160.257812 134.273438 C 160.679688 133.847656 160.679688 133.160156 160.257812 132.738281 L 157.652344 130.128906 C 157.226562 129.707031 156.539062 129.707031 156.117188 130.128906 L 153.113281 133.132812 C 150.042969 130.8125 146.324219 129.304688 142.277344 128.933594 L 142.277344 123.96875 L 144.574219 123.96875 C 145.3125 123.96875 145.914062 123.367188 145.914062 122.628906 L 145.914062 120.234375 C 145.914062 119.496094 145.3125 118.894531 144.574219 118.894531 L 136.058594 118.894531 C 135.320312 118.894531 134.71875 119.496094 134.71875 120.234375 L 134.71875 122.628906 C 134.71875 123.367188 135.320312 123.96875 136.058594 123.96875 L 138.355469 123.96875 L 138.355469 128.933594 C 134.308594 129.304688 130.589844 130.8125 127.519531 133.132812 L 124.515625 130.128906 C 124.09375 129.707031 123.402344 129.707031 122.980469 130.128906 L 120.375 132.738281 C 119.953125 133.160156 119.953125 133.847656 120.375 134.273438 L 123.378906 137.277344 C 120.683594 140.832031 119.085938 145.265625 119.085938 150.070312 C 119.085938 161.796875 128.59375 171.300781 140.316406 171.300781 C 152.039062 171.300781 161.542969 161.796875 161.542969 150.070312 C 161.542969 145.265625 159.945312 140.832031 157.253906 137.277344 Z M 140.316406 169.390625 C 129.648438 169.390625 120.996094 160.738281 120.996094 150.070312 C 120.996094 139.3125 129.75 130.753906 140.316406 130.753906 C 150.976562 130.753906 159.632812 139.40625 159.632812 150.070312 C 159.632812 160.738281 150.984375 169.390625 140.316406 169.390625 Z M 90.863281 97.902344 L 90.863281 104.417969 C 90.863281 105.796875 91.996094 106.929688 93.375 106.929688 L 116.257812 106.929688 C 117.636719 106.929688 118.769531 105.796875 118.769531 104.417969 L 118.769531 97.902344 Z M 99.890625 119.277344 C 99.890625 121.996094 102.097656 124.203125 104.816406 124.203125 C 107.535156 124.203125 109.742188 122 109.742188 119.277344 C 109.742188 116.566406 107.546875 114.355469 104.816406 114.355469 C 102.089844 114.355469 99.890625 116.566406 99.890625 119.277344 Z M 129.152344 113.925781 C 130.558594 112.773438 131.535156 111.332031 131.535156 109.4375 L 131.535156 99.90625 C 131.535156 98.800781 130.636719 97.902344 129.53125 97.902344 L 122.691406 97.902344 L 122.691406 104.417969 C 122.691406 107.960938 119.800781 110.851562 116.257812 110.851562 L 107.503906 110.851562 C 110.765625 111.890625 113.207031 114.769531 113.605469 118.265625 C 118.207031 117.855469 125.445312 116.96875 129.152344 113.925781 Z M 102.128906 110.847656 L 93.375 110.847656 C 89.832031 110.847656 86.945312 107.960938 86.945312 104.417969 L 86.945312 97.902344 L 80.101562 97.902344 C 79 97.902344 78.097656 98.800781 78.097656 99.90625 L 78.097656 109.4375 C 78.097656 111.332031 79.074219 112.773438 80.480469 113.925781 C 84.191406 116.972656 91.421875 117.859375 96.027344 118.269531 C 96.425781 114.769531 98.867188 111.890625 102.128906 110.847656 Z M 98.152344 87.605469 C 94.617188 87.605469 91.710938 90.449219 91.628906 93.980469 L 95.550781 93.980469 C 95.628906 92.613281 96.78125 91.523438 98.152344 91.523438 L 111.480469 91.523438 C 112.851562 91.523438 114.003906 92.613281 114.082031 93.980469 L 118.003906 93.980469 C 117.925781 90.449219 115.015625 87.605469 111.480469 87.605469 Z M 80.480469 118.617188 L 80.480469 131.503906 C 80.480469 133.65625 82.238281 135.417969 84.390625 135.417969 L 116.515625 135.417969 C 115.769531 133.601562 116.128906 131.4375 117.601562 129.964844 L 120.210938 127.359375 C 122.160156 125.40625 125.335938 125.40625 127.289062 127.359375 L 129.152344 129.222656 L 129.152344 118.617188 C 125.589844 120.492188 119.707031 121.703125 113.148438 122.25 C 111.929688 125.671875 108.660156 128.125 104.816406 128.125 C 100.976562 128.125 97.707031 125.671875 96.484375 122.25 C 89.925781 121.703125 84.042969 120.492188 80.480469 118.617188 Z M 80.480469 118.617188 " fill-opacity="1" fill-rule="evenodd"/></g></svg>