<svg xmlns="http://www.w3.org/2000/svg" xmlns:xlink="http://www.w3.org/1999/xlink" width="300" viewBox="0 0 224.87999 225" height="300" preserveAspectRatio="xMidYMid meet"><defs><clipPath id="b68c40e829"><path d="M 4.722656 12.054688 L 219.652344 12.054688 L 219.652344 212.828125 L 4.722656 212.828125 Z M 4.722656 12.054688 " clip-rule="nonzero"/></clipPath><clipPath id="fed16606ba"><path d="M 29.8125 37.484375 L 179.839844 37.484375 L 179.839844 187.515625 L 29.8125 187.515625 Z M 29.8125 37.484375 " clip-rule="nonzero"/></clipPath><clipPath id="a20ed57732"><path d="M 104.828125 37.484375 C 63.398438 37.484375 29.8125 71.070312 29.8125 112.5 C 29.8125 153.929688 63.398438 187.515625 104.828125 187.515625 C 146.257812 187.515625 179.839844 153.929688 179.839844 112.5 C 179.839844 71.070312 146.257812 37.484375 104.828125 37.484375 Z M 104.828125 37.484375 " clip-rule="nonzero"/></clipPath><clipPath id="f0db3394c2"><path d="M 76 63.175781 L 155.585938 63.175781 L 155.585938 118 L 76 118 Z M 76 63.175781 " clip-rule="nonzero"/></clipPath><clipPath id="69b528b550"><path d="M 53.910156 117 L 73 117 L 73 162 L 53.910156 162 Z M 53.910156 117 " clip-rule="nonzero"/></clipPath></defs><g clip-path="url(#b68c40e829)"><path fill="#25a8e0" d="M 219.007812 109.273438 C 218.238281 108.734375 217.175781 108.921875 216.636719 109.695312 L 205.175781 126.101562 C 205.785156 121.605469 206.097656 117.046875 206.097656 112.492188 C 206.097656 85.660156 195.636719 60.441406 176.640625 41.46875 C 157.640625 22.5 132.382812 12.054688 105.511719 12.054688 C 78.644531 12.054688 53.386719 22.5 34.386719 41.46875 C 15.390625 60.441406 4.925781 85.660156 4.925781 112.492188 C 4.925781 139.316406 15.390625 164.539062 34.386719 183.511719 C 53.386719 202.476562 78.644531 212.921875 105.511719 212.921875 C 124.472656 212.921875 142.9375 207.628906 158.921875 197.613281 C 174.464844 187.867188 187.054688 174.085938 195.328125 157.757812 C 195.75 156.914062 195.417969 155.890625 194.578125 155.464844 C 193.734375 155.039062 192.710938 155.375 192.285156 156.214844 C 175.632812 189.09375 142.382812 209.511719 105.511719 209.511719 C 51.929688 209.511719 8.335938 165.988281 8.335938 112.492188 C 8.335938 58.988281 51.929688 15.464844 105.511719 15.464844 C 159.097656 15.464844 202.6875 58.988281 202.6875 112.492188 C 202.6875 117.476562 202.300781 122.46875 201.546875 127.375 L 192.554688 107.449219 C 192.167969 106.585938 191.15625 106.207031 190.296875 106.597656 C 189.4375 106.980469 189.058594 107.988281 189.441406 108.851562 L 200.75 133.894531 C 201 134.453125 201.535156 134.832031 202.144531 134.890625 C 202.199219 134.894531 202.25 134.894531 202.304688 134.894531 C 202.855469 134.894531 203.378906 134.628906 203.699219 134.167969 L 219.429688 111.644531 C 219.96875 110.875 219.78125 109.808594 219.007812 109.273438 Z M 219.007812 109.273438 " fill-opacity="1" fill-rule="nonzero"/></g><path fill="#25a8e0" d="M 105.371094 41.035156 C 65.886719 41.035156 33.769531 73.15625 33.769531 112.640625 C 33.769531 152.125 65.886719 184.242188 105.371094 184.242188 C 144.851562 184.242188 176.976562 152.125 176.976562 112.640625 C 176.976562 73.15625 144.851562 41.035156 105.371094 41.035156 Z M 116.964844 74.046875 C 116.964844 77.8125 112.5625 84.734375 105.371094 84.734375 C 98.179688 84.734375 93.78125 77.8125 93.78125 74.046875 L 93.78125 69.089844 C 93.78125 68.667969 94.214844 68.3125 94.734375 68.3125 L 116.011719 68.3125 C 116.527344 68.3125 116.964844 68.667969 116.964844 69.089844 Z M 85.238281 139.449219 L 99.1875 86.765625 C 101.019531 87.628906 103.09375 88.144531 105.371094 88.144531 C 107.652344 88.144531 109.726562 87.625 111.558594 86.761719 L 125.785156 139.445312 L 105.382812 161.277344 Z M 85.238281 139.449219 " fill-opacity="1" fill-rule="nonzero"/><g clip-path="url(#fed16606ba)"><g clip-path="url(#a20ed57732)"><path fill="#25a8e0" d="M 29.8125 37.484375 L 179.839844 37.484375 L 179.839844 187.515625 L 29.8125 187.515625 Z M 29.8125 37.484375 " fill-opacity="1" fill-rule="nonzero"/></g></g><g clip-path="url(#f0db3394c2)"><path fill="#ffffff" d="M 115.953125 117.265625 C 115.457031 117.265625 115.050781 117.074219 114.730469 116.695312 L 107.253906 107.722656 L 103.226562 107.722656 L 103.226562 104.539062 L 108 104.539062 C 108.496094 104.539062 108.902344 104.730469 109.222656 105.113281 L 115.953125 113.191406 L 122.6875 105.113281 C 123.003906 104.730469 123.410156 104.539062 123.90625 104.539062 L 150.953125 104.539062 C 151.164062 104.539062 151.367188 104.5 151.5625 104.417969 C 151.757812 104.335938 151.929688 104.222656 152.078125 104.074219 C 152.226562 103.925781 152.339844 103.753906 152.421875 103.558594 C 152.503906 103.363281 152.542969 103.160156 152.542969 102.949219 L 152.542969 67.949219 C 152.542969 67.738281 152.503906 67.535156 152.421875 67.339844 C 152.339844 67.144531 152.226562 66.972656 152.078125 66.824219 C 151.929688 66.675781 151.757812 66.5625 151.5625 66.480469 C 151.367188 66.398438 151.164062 66.359375 150.953125 66.359375 L 80.957031 66.359375 C 80.746094 66.359375 80.542969 66.398438 80.347656 66.480469 C 80.152344 66.5625 79.980469 66.675781 79.832031 66.824219 C 79.679688 66.972656 79.566406 67.144531 79.484375 67.339844 C 79.40625 67.535156 79.363281 67.738281 79.363281 67.949219 L 79.363281 102.949219 C 79.363281 103.160156 79.40625 103.363281 79.484375 103.558594 C 79.566406 103.753906 79.679688 103.925781 79.832031 104.074219 C 79.980469 104.222656 80.152344 104.335938 80.347656 104.417969 C 80.542969 104.5 80.746094 104.539062 80.957031 104.539062 L 85.726562 104.539062 L 85.726562 107.722656 L 80.957031 107.722656 C 80.640625 107.722656 80.332031 107.691406 80.023438 107.628906 C 79.714844 107.566406 79.417969 107.476562 79.128906 107.359375 C 78.839844 107.238281 78.5625 107.089844 78.304688 106.917969 C 78.042969 106.742188 77.800781 106.542969 77.582031 106.324219 C 77.359375 106.101562 77.160156 105.859375 76.988281 105.601562 C 76.8125 105.339844 76.664062 105.066406 76.546875 104.773438 C 76.425781 104.484375 76.335938 104.1875 76.273438 103.878906 C 76.214844 103.574219 76.183594 103.261719 76.183594 102.949219 L 76.183594 67.949219 C 76.183594 67.636719 76.214844 67.328125 76.273438 67.019531 C 76.335938 66.710938 76.425781 66.414062 76.546875 66.125 C 76.664062 65.835938 76.8125 65.558594 76.988281 65.296875 C 77.160156 65.039062 77.359375 64.796875 77.582031 64.574219 C 77.800781 64.355469 78.042969 64.15625 78.304688 63.980469 C 78.5625 63.808594 78.839844 63.660156 79.128906 63.539062 C 79.417969 63.421875 79.714844 63.332031 80.023438 63.269531 C 80.332031 63.207031 80.640625 63.175781 80.957031 63.175781 L 150.953125 63.175781 C 151.265625 63.175781 151.578125 63.207031 151.882812 63.269531 C 152.191406 63.332031 152.488281 63.421875 152.777344 63.539062 C 153.070312 63.660156 153.34375 63.808594 153.605469 63.980469 C 153.863281 64.15625 154.105469 64.355469 154.328125 64.574219 C 154.550781 64.796875 154.746094 65.039062 154.921875 65.296875 C 155.09375 65.558594 155.242188 65.835938 155.363281 66.125 C 155.480469 66.414062 155.574219 66.710938 155.632812 67.019531 C 155.695312 67.328125 155.726562 67.636719 155.726562 67.949219 L 155.726562 102.949219 C 155.726562 103.261719 155.695312 103.574219 155.632812 103.878906 C 155.574219 104.1875 155.480469 104.484375 155.363281 104.773438 C 155.242188 105.066406 155.09375 105.339844 154.921875 105.601562 C 154.746094 105.859375 154.550781 106.101562 154.328125 106.324219 C 154.105469 106.542969 153.863281 106.742188 153.605469 106.917969 C 153.34375 107.089844 153.070312 107.238281 152.777344 107.359375 C 152.488281 107.476562 152.191406 107.566406 151.882812 107.628906 C 151.578125 107.691406 151.265625 107.722656 150.953125 107.722656 L 124.652344 107.722656 L 117.175781 116.695312 C 116.859375 117.074219 116.449219 117.265625 115.953125 117.265625 Z M 115.953125 117.265625 " fill-opacity="1" fill-rule="nonzero"/></g><path fill="#ffffff" d="M 80.957031 123.628906 L 71.410156 123.628906 L 71.410156 120.449219 L 80.398438 120.449219 L 84.335938 117.300781 C 85.28125 116.546875 86.015625 115.625 86.539062 114.535156 C 87.0625 113.445312 87.320312 112.296875 87.320312 111.085938 L 87.320312 101.359375 C 87.320312 101.148438 87.359375 100.945312 87.441406 100.75 C 87.519531 100.554688 87.636719 100.382812 87.785156 100.234375 C 87.933594 100.082031 88.105469 99.96875 88.300781 99.886719 C 88.496094 99.808594 88.699219 99.765625 88.910156 99.765625 C 101.492188 99.765625 101.636719 109.214844 101.636719 109.3125 L 101.636719 122.039062 L 98.453125 122.039062 L 98.453125 109.3125 C 98.445312 108.710938 98.117188 103.632812 90.5 103.011719 L 90.5 111.085938 C 90.503906 111.921875 90.410156 112.746094 90.226562 113.5625 C 90.042969 114.378906 89.769531 115.160156 89.40625 115.914062 C 89.042969 116.667969 88.601562 117.371094 88.082031 118.023438 C 87.5625 118.675781 86.976562 119.261719 86.320312 119.78125 L 81.949219 123.28125 C 81.660156 123.515625 81.328125 123.628906 80.957031 123.628906 Z M 80.957031 123.628906 " fill-opacity="1" fill-rule="nonzero"/><path fill="#ffffff" d="M 117.542969 133.175781 L 103.226562 133.175781 L 103.226562 129.992188 L 117.542969 129.992188 C 117.964844 129.992188 118.371094 129.914062 118.761719 129.75 C 119.152344 129.589844 119.496094 129.359375 119.792969 129.0625 C 120.09375 128.761719 120.324219 128.417969 120.484375 128.027344 C 120.644531 127.640625 120.726562 127.234375 120.726562 126.8125 C 120.726562 126.390625 120.644531 125.984375 120.484375 125.59375 C 120.324219 125.203125 120.09375 124.859375 119.792969 124.5625 C 119.496094 124.261719 119.152344 124.035156 118.761719 123.871094 C 118.371094 123.710938 117.964844 123.628906 117.542969 123.628906 L 95.273438 123.628906 L 95.273438 120.449219 L 117.542969 120.449219 C 117.960938 120.449219 118.375 120.488281 118.785156 120.570312 C 119.195312 120.652344 119.59375 120.773438 119.980469 120.933594 C 120.367188 121.09375 120.734375 121.289062 121.078125 121.519531 C 121.425781 121.753906 121.75 122.015625 122.042969 122.3125 C 122.339844 122.605469 122.605469 122.929688 122.835938 123.277344 C 123.066406 123.625 123.265625 123.988281 123.421875 124.375 C 123.582031 124.761719 123.703125 125.160156 123.785156 125.570312 C 123.867188 125.980469 123.90625 126.394531 123.90625 126.8125 C 123.90625 127.230469 123.867188 127.644531 123.785156 128.054688 C 123.703125 128.460938 123.582031 128.859375 123.421875 129.246094 C 123.265625 129.632812 123.066406 130 122.835938 130.347656 C 122.605469 130.695312 122.339844 131.015625 122.042969 131.3125 C 121.75 131.605469 121.425781 131.871094 121.078125 132.101562 C 120.734375 132.335938 120.367188 132.53125 119.980469 132.691406 C 119.59375 132.851562 119.195312 132.972656 118.785156 133.050781 C 118.375 133.132812 117.960938 133.175781 117.542969 133.175781 Z M 117.542969 133.175781 " fill-opacity="1" fill-rule="nonzero"/><path fill="#ffffff" d="M 119.136719 142.71875 L 104.816406 142.71875 L 104.816406 139.539062 L 119.136719 139.539062 C 119.558594 139.539062 119.964844 139.457031 120.351562 139.296875 C 120.742188 139.132812 121.085938 138.90625 121.386719 138.605469 C 121.683594 138.308594 121.914062 137.964844 122.074219 137.574219 C 122.238281 137.183594 122.316406 136.777344 122.316406 136.355469 C 122.316406 135.933594 122.238281 135.527344 122.074219 135.140625 C 121.914062 134.75 121.683594 134.40625 121.386719 134.105469 C 121.085938 133.808594 120.742188 133.578125 120.351562 133.417969 C 119.964844 133.253906 119.558594 133.175781 119.136719 133.175781 L 104.816406 133.175781 L 104.816406 129.992188 L 119.136719 129.992188 C 119.554688 129.992188 119.96875 130.035156 120.378906 130.117188 C 120.785156 130.195312 121.183594 130.316406 121.570312 130.476562 C 121.957031 130.636719 122.324219 130.832031 122.671875 131.066406 C 123.019531 131.296875 123.339844 131.5625 123.636719 131.855469 C 123.929688 132.152344 124.195312 132.472656 124.425781 132.820312 C 124.660156 133.167969 124.855469 133.535156 125.015625 133.921875 C 125.175781 134.308594 125.296875 134.707031 125.375 135.113281 C 125.457031 135.523438 125.5 135.9375 125.5 136.355469 C 125.5 136.773438 125.457031 137.1875 125.375 137.597656 C 125.296875 138.007812 125.175781 138.40625 125.015625 138.792969 C 124.855469 139.175781 124.660156 139.542969 124.425781 139.890625 C 124.195312 140.238281 123.929688 140.5625 123.636719 140.855469 C 123.339844 141.152344 123.019531 141.414062 122.671875 141.648438 C 122.324219 141.878906 121.957031 142.074219 121.570312 142.234375 C 121.183594 142.394531 120.785156 142.515625 120.378906 142.597656 C 119.96875 142.679688 119.554688 142.71875 119.136719 142.71875 Z M 119.136719 142.71875 " fill-opacity="1" fill-rule="nonzero"/><path fill="#ffffff" d="M 117.542969 152.265625 L 103.226562 152.265625 L 103.226562 149.082031 L 117.542969 149.082031 C 117.964844 149.082031 118.371094 149.003906 118.761719 148.839844 C 119.152344 148.679688 119.496094 148.449219 119.792969 148.152344 C 120.09375 147.851562 120.324219 147.507812 120.484375 147.117188 C 120.644531 146.730469 120.726562 146.324219 120.726562 145.902344 C 120.726562 145.480469 120.644531 145.074219 120.484375 144.683594 C 120.324219 144.292969 120.09375 143.949219 119.792969 143.652344 C 119.496094 143.351562 119.152344 143.125 118.761719 142.960938 C 118.371094 142.800781 117.964844 142.71875 117.542969 142.71875 L 103.226562 142.71875 L 103.226562 139.539062 L 117.542969 139.539062 C 117.960938 139.539062 118.375 139.578125 118.785156 139.660156 C 119.195312 139.742188 119.59375 139.863281 119.980469 140.023438 C 120.367188 140.183594 120.734375 140.378906 121.078125 140.609375 C 121.425781 140.84375 121.75 141.105469 122.042969 141.402344 C 122.339844 141.699219 122.605469 142.019531 122.835938 142.367188 C 123.066406 142.714844 123.265625 143.082031 123.421875 143.464844 C 123.582031 143.851562 123.703125 144.25 123.785156 144.660156 C 123.867188 145.070312 123.90625 145.484375 123.90625 145.902344 C 123.90625 146.320312 123.867188 146.734375 123.785156 147.144531 C 123.703125 147.554688 123.582031 147.949219 123.421875 148.335938 C 123.265625 148.722656 123.066406 149.089844 122.835938 149.4375 C 122.605469 149.785156 122.339844 150.105469 122.042969 150.402344 C 121.75 150.695312 121.425781 150.960938 121.078125 151.191406 C 120.734375 151.425781 120.367188 151.621094 119.980469 151.78125 C 119.59375 151.941406 119.195312 152.0625 118.785156 152.144531 C 118.375 152.222656 117.960938 152.265625 117.542969 152.265625 Z M 117.542969 152.265625 " fill-opacity="1" fill-rule="nonzero"/><path fill="#ffffff" d="M 114.363281 161.808594 L 84.136719 161.808594 C 82.820312 161.707031 81.558594 161.382812 80.355469 160.835938 C 79.152344 160.289062 78.082031 159.554688 77.136719 158.628906 L 71.410156 158.628906 L 71.410156 155.445312 L 77.773438 155.445312 C 78.210938 155.445312 78.585938 155.601562 78.898438 155.914062 C 79.578125 156.671875 80.371094 157.285156 81.277344 157.75 C 82.183594 158.21875 83.140625 158.511719 84.15625 158.628906 L 114.363281 158.628906 C 114.785156 158.628906 115.191406 158.546875 115.582031 158.386719 C 115.96875 158.226562 116.316406 157.996094 116.613281 157.695312 C 116.910156 157.398438 117.140625 157.054688 117.300781 156.664062 C 117.464844 156.273438 117.542969 155.867188 117.542969 155.445312 C 117.542969 155.023438 117.464844 154.617188 117.300781 154.230469 C 117.140625 153.839844 116.910156 153.496094 116.613281 153.195312 C 116.316406 152.898438 115.96875 152.667969 115.582031 152.507812 C 115.191406 152.34375 114.785156 152.265625 114.363281 152.265625 L 103.226562 152.265625 L 103.226562 149.082031 L 114.363281 149.082031 C 114.78125 149.082031 115.195312 149.125 115.605469 149.207031 C 116.015625 149.285156 116.414062 149.40625 116.796875 149.566406 C 117.183594 149.726562 117.550781 149.921875 117.898438 150.15625 C 118.246094 150.386719 118.566406 150.652344 118.863281 150.945312 C 119.15625 151.242188 119.421875 151.5625 119.652344 151.910156 C 119.886719 152.257812 120.082031 152.625 120.242188 153.011719 C 120.402344 153.398438 120.523438 153.796875 120.605469 154.207031 C 120.6875 154.613281 120.726562 155.027344 120.726562 155.445312 C 120.726562 155.863281 120.6875 156.277344 120.605469 156.6875 C 120.523438 157.097656 120.402344 157.496094 120.242188 157.882812 C 120.082031 158.269531 119.886719 158.632812 119.652344 158.980469 C 119.421875 159.328125 119.15625 159.652344 118.863281 159.945312 C 118.566406 160.242188 118.246094 160.503906 117.898438 160.738281 C 117.550781 160.96875 117.183594 161.164062 116.796875 161.324219 C 116.414062 161.484375 116.015625 161.605469 115.605469 161.6875 C 115.195312 161.769531 114.78125 161.808594 114.363281 161.808594 Z M 114.363281 161.808594 " fill-opacity="1" fill-rule="nonzero"/><g clip-path="url(#69b528b550)"><path fill="#ffffff" d="M 68.226562 161.808594 L 58.683594 161.808594 C 58.371094 161.808594 58.058594 161.78125 57.753906 161.71875 C 57.445312 161.65625 57.144531 161.566406 56.855469 161.445312 C 56.566406 161.328125 56.292969 161.179688 56.03125 161.003906 C 55.769531 160.832031 55.53125 160.632812 55.308594 160.414062 C 55.085938 160.191406 54.890625 159.949219 54.714844 159.6875 C 54.539062 159.429688 54.394531 159.152344 54.273438 158.863281 C 54.152344 158.574219 54.0625 158.277344 54.003906 157.96875 C 53.941406 157.660156 53.910156 157.351562 53.910156 157.039062 L 53.910156 122.039062 C 53.910156 121.726562 53.941406 121.414062 54.003906 121.109375 C 54.0625 120.800781 54.152344 120.5 54.273438 120.210938 C 54.394531 119.921875 54.539062 119.648438 54.714844 119.386719 C 54.890625 119.125 55.085938 118.886719 55.308594 118.664062 C 55.53125 118.441406 55.769531 118.246094 56.03125 118.070312 C 56.292969 117.894531 56.566406 117.75 56.855469 117.628906 C 57.144531 117.507812 57.445312 117.417969 57.753906 117.359375 C 58.058594 117.296875 58.371094 117.265625 58.683594 117.265625 L 68.226562 117.265625 C 68.542969 117.265625 68.851562 117.296875 69.160156 117.359375 C 69.46875 117.417969 69.765625 117.507812 70.054688 117.628906 C 70.34375 117.75 70.621094 117.894531 70.878906 118.070312 C 71.140625 118.246094 71.382812 118.441406 71.601562 118.664062 C 71.824219 118.886719 72.023438 119.125 72.195312 119.386719 C 72.371094 119.648438 72.519531 119.921875 72.636719 120.210938 C 72.757812 120.5 72.847656 120.800781 72.910156 121.109375 C 72.96875 121.414062 73 121.726562 73 122.039062 L 73 157.039062 C 73 157.351562 72.96875 157.660156 72.910156 157.96875 C 72.847656 158.277344 72.757812 158.574219 72.636719 158.863281 C 72.519531 159.152344 72.371094 159.429688 72.195312 159.6875 C 72.023438 159.949219 71.824219 160.191406 71.601562 160.414062 C 71.382812 160.632812 71.140625 160.832031 70.878906 161.003906 C 70.621094 161.179688 70.34375 161.328125 70.054688 161.445312 C 69.765625 161.566406 69.46875 161.65625 69.160156 161.71875 C 68.851562 161.78125 68.542969 161.808594 68.226562 161.808594 Z M 58.683594 120.449219 C 58.472656 120.449219 58.269531 120.488281 58.074219 120.570312 C 57.878906 120.648438 57.707031 120.765625 57.558594 120.914062 C 57.410156 121.0625 57.292969 121.234375 57.214844 121.429688 C 57.132812 121.625 57.09375 121.828125 57.09375 122.039062 L 57.09375 157.039062 C 57.09375 157.25 57.132812 157.453125 57.214844 157.644531 C 57.292969 157.839844 57.410156 158.011719 57.558594 158.164062 C 57.707031 158.3125 57.878906 158.425781 58.074219 158.507812 C 58.269531 158.589844 58.472656 158.628906 58.683594 158.628906 L 68.226562 158.628906 C 68.4375 158.628906 68.640625 158.589844 68.835938 158.507812 C 69.03125 158.425781 69.203125 158.3125 69.351562 158.164062 C 69.503906 158.011719 69.617188 157.839844 69.699219 157.644531 C 69.777344 157.453125 69.820312 157.25 69.820312 157.039062 L 69.820312 122.039062 C 69.820312 121.828125 69.777344 121.625 69.699219 121.429688 C 69.617188 121.234375 69.503906 121.0625 69.351562 120.914062 C 69.203125 120.765625 69.03125 120.648438 68.835938 120.570312 C 68.640625 120.488281 68.4375 120.449219 68.226562 120.449219 Z M 58.683594 120.449219 " fill-opacity="1" fill-rule="nonzero"/></g><path fill="#ffffff" d="M 61.863281 123.628906 L 65.046875 123.628906 L 65.046875 126.8125 L 61.863281 126.8125 Z M 61.863281 123.628906 " fill-opacity="1" fill-rule="nonzero"/><path fill="#ffffff" d="M 122.316406 94.996094 C 122.066406 94.992188 121.832031 94.9375 121.605469 94.828125 L 115.953125 92 L 110.300781 94.835938 C 110.023438 94.972656 109.730469 95.027344 109.421875 94.992188 C 109.113281 94.960938 108.835938 94.847656 108.59375 94.652344 C 108.351562 94.457031 108.179688 94.214844 108.082031 93.917969 C 107.984375 93.625 107.972656 93.328125 108.046875 93.023438 L 109.464844 87.34375 L 106.675781 83.160156 C 106.511719 82.914062 106.421875 82.644531 106.40625 82.351562 C 106.390625 82.054688 106.453125 81.777344 106.589844 81.519531 C 106.730469 81.257812 106.925781 81.054688 107.179688 80.902344 C 107.429688 80.75 107.703125 80.675781 108 80.675781 L 111.921875 80.675781 L 114.625 76.613281 C 114.78125 76.402344 114.976562 76.242188 115.207031 76.125 C 115.441406 76.007812 115.6875 75.949219 115.949219 75.949219 C 116.210938 75.949219 116.457031 76.007812 116.6875 76.125 C 116.921875 76.242188 117.117188 76.402344 117.273438 76.613281 L 119.988281 80.675781 L 123.90625 80.675781 C 124.203125 80.675781 124.472656 80.753906 124.726562 80.902344 C 124.976562 81.054688 125.171875 81.257812 125.3125 81.515625 C 125.449219 81.777344 125.511719 82.050781 125.496094 82.34375 C 125.484375 82.636719 125.394531 82.90625 125.230469 83.152344 L 122.441406 87.335938 L 123.859375 93.015625 C 123.921875 93.253906 123.925781 93.492188 123.875 93.734375 C 123.824219 93.972656 123.722656 94.1875 123.570312 94.382812 C 123.421875 94.574219 123.234375 94.726562 123.015625 94.832031 C 122.792969 94.941406 122.5625 94.996094 122.316406 94.996094 Z M 115.953125 88.632812 C 116.203125 88.628906 116.441406 88.6875 116.664062 88.796875 L 119.929688 90.433594 L 119.179688 87.425781 C 119.066406 86.96875 119.136719 86.546875 119.398438 86.152344 L 120.933594 83.859375 L 119.136719 83.859375 C 118.566406 83.859375 118.125 83.621094 117.8125 83.152344 L 115.953125 80.359375 L 114.097656 83.144531 C 113.78125 83.621094 113.339844 83.855469 112.773438 83.859375 L 110.972656 83.859375 L 112.503906 86.15625 C 112.765625 86.550781 112.839844 86.972656 112.722656 87.429688 L 111.972656 90.4375 L 115.242188 88.800781 C 115.464844 88.6875 115.703125 88.632812 115.953125 88.632812 Z M 115.953125 88.632812 " fill-opacity="1" fill-rule="nonzero"/><path fill="#ffffff" d="M 144.589844 94.996094 C 144.339844 94.992188 144.101562 94.9375 143.878906 94.828125 L 138.226562 92 L 132.574219 94.835938 C 132.296875 94.972656 132.003906 95.027344 131.691406 94.992188 C 131.382812 94.960938 131.109375 94.847656 130.867188 94.652344 C 130.625 94.457031 130.453125 94.214844 130.355469 93.917969 C 130.253906 93.625 130.242188 93.328125 130.320312 93.023438 L 131.738281 87.34375 L 128.949219 83.160156 C 128.78125 82.914062 128.691406 82.644531 128.675781 82.351562 C 128.660156 82.054688 128.722656 81.777344 128.863281 81.519531 C 129 81.257812 129.195312 81.054688 129.449219 80.902344 C 129.703125 80.75 129.976562 80.675781 130.273438 80.675781 L 134.191406 80.675781 L 136.898438 76.613281 C 137.054688 76.402344 137.246094 76.242188 137.480469 76.125 C 137.714844 76.007812 137.960938 75.949219 138.222656 75.949219 C 138.480469 75.949219 138.726562 76.007812 138.960938 76.125 C 139.195312 76.242188 139.386719 76.402344 139.542969 76.613281 L 142.257812 80.675781 L 146.179688 80.675781 C 146.472656 80.675781 146.746094 80.753906 146.996094 80.902344 C 147.25 81.054688 147.445312 81.257812 147.582031 81.515625 C 147.722656 81.777344 147.785156 82.050781 147.769531 82.34375 C 147.753906 82.636719 147.667969 82.90625 147.503906 83.152344 L 144.714844 87.335938 L 146.132812 93.015625 C 146.191406 93.253906 146.195312 93.492188 146.144531 93.734375 C 146.09375 93.972656 145.992188 94.1875 145.84375 94.382812 C 145.691406 94.574219 145.507812 94.726562 145.285156 94.832031 C 145.066406 94.941406 144.835938 94.996094 144.589844 94.996094 Z M 138.226562 88.632812 C 138.476562 88.628906 138.714844 88.6875 138.9375 88.796875 L 142.203125 90.433594 L 141.453125 87.425781 C 141.335938 86.96875 141.410156 86.546875 141.671875 86.152344 L 143.207031 83.859375 L 141.40625 83.859375 C 140.839844 83.859375 140.398438 83.621094 140.082031 83.152344 L 138.226562 80.359375 L 136.367188 83.144531 C 136.054688 83.621094 135.613281 83.855469 135.042969 83.859375 L 133.246094 83.859375 L 134.777344 86.15625 C 135.039062 86.550781 135.113281 86.972656 134.996094 87.429688 L 134.246094 90.4375 L 137.515625 88.800781 C 137.738281 88.6875 137.976562 88.632812 138.226562 88.632812 Z M 138.226562 88.632812 " fill-opacity="1" fill-rule="nonzero"/><path fill="#ffffff" d="M 100.046875 94.996094 C 99.796875 94.992188 99.558594 94.9375 99.335938 94.828125 L 93.683594 92 L 88.03125 94.835938 C 87.75 94.972656 87.457031 95.027344 87.148438 94.992188 C 86.839844 94.960938 86.566406 94.847656 86.324219 94.652344 C 86.078125 94.457031 85.910156 94.214844 85.808594 93.917969 C 85.710938 93.625 85.699219 93.328125 85.777344 93.023438 L 87.195312 87.34375 L 84.402344 83.160156 C 84.238281 82.914062 84.148438 82.644531 84.132812 82.351562 C 84.117188 82.054688 84.179688 81.777344 84.320312 81.519531 C 84.457031 81.257812 84.652344 81.054688 84.90625 80.902344 C 85.160156 80.75 85.433594 80.675781 85.726562 80.675781 L 89.648438 80.675781 L 92.355469 76.613281 C 92.507812 76.402344 92.703125 76.242188 92.9375 76.125 C 93.171875 76.007812 93.417969 75.949219 93.675781 75.949219 C 93.9375 75.949219 94.183594 76.007812 94.417969 76.125 C 94.648438 76.242188 94.84375 76.402344 95 76.613281 L 97.714844 80.675781 L 101.636719 80.675781 C 101.929688 80.675781 102.203125 80.753906 102.453125 80.902344 C 102.707031 81.054688 102.902344 81.257812 103.039062 81.515625 C 103.175781 81.777344 103.238281 82.050781 103.226562 82.34375 C 103.210938 82.636719 103.121094 82.90625 102.960938 83.152344 L 100.167969 87.335938 L 101.589844 93.015625 C 101.648438 93.253906 101.652344 93.492188 101.601562 93.734375 C 101.550781 93.972656 101.449219 94.1875 101.300781 94.382812 C 101.148438 94.574219 100.964844 94.726562 100.742188 94.832031 C 100.523438 94.941406 100.289062 94.996094 100.046875 94.996094 Z M 93.683594 88.632812 C 93.933594 88.628906 94.167969 88.6875 94.394531 88.796875 L 97.660156 90.433594 L 96.910156 87.425781 C 96.792969 86.96875 96.867188 86.546875 97.128906 86.152344 L 98.664062 83.859375 L 96.863281 83.859375 C 96.296875 83.859375 95.855469 83.621094 95.539062 83.152344 L 93.683594 80.359375 L 91.824219 83.144531 C 91.511719 83.621094 91.070312 83.855469 90.5 83.859375 L 88.699219 83.859375 L 90.234375 86.15625 C 90.496094 86.550781 90.566406 86.972656 90.453125 87.429688 L 89.703125 90.4375 L 92.972656 88.800781 C 93.195312 88.6875 93.429688 88.632812 93.683594 88.632812 Z M 93.683594 88.632812 " fill-opacity="1" fill-rule="nonzero"/><path fill="#ffffff" d="M 128.679688 123.628906 L 141.40625 123.628906 L 141.40625 126.8125 L 128.679688 126.8125 Z M 128.679688 123.628906 " fill-opacity="1" fill-rule="nonzero"/><path fill="#ffffff" d="M 127.554688 119.324219 L 134.714844 112.164062 L 136.964844 114.414062 L 129.804688 121.574219 Z M 127.554688 119.324219 " fill-opacity="1" fill-rule="nonzero"/><path fill="#ffffff" d="M 127.554688 131.914062 L 129.804688 129.664062 L 136.964844 136.824219 L 134.714844 139.070312 Z M 127.554688 131.914062 " fill-opacity="1" fill-rule="nonzero"/></svg>