<svg xmlns="http://www.w3.org/2000/svg" xmlns:xlink="http://www.w3.org/1999/xlink" width="1920" viewBox="0 0 1440 809.999993" height="1080" preserveAspectRatio="xMidYMid meet"><defs><clipPath id="772acd3aa0"><path d="M 1195.246094 330.183594 L 1345 330.183594 L 1345 480 L 1195.246094 480 Z M 1195.246094 330.183594 " clip-rule="nonzero"></path></clipPath></defs><g clip-path="url(#772acd3aa0)"><path fill="#25a8e0" d="M 1270.058594 479.808594 C 1228.804688 479.808594 1195.246094 446.25 1195.246094 404.996094 C 1195.246094 363.746094 1228.804688 330.183594 1270.058594 330.183594 C 1311.308594 330.183594 1344.871094 363.746094 1344.871094 404.996094 C 1344.871094 446.25 1311.308594 479.808594 1270.058594 479.808594 Z M 1270.058594 479.808594 " fill-opacity="1" fill-rule="nonzero"></path></g><path fill="#ffffff" d="M 1249.308594 424.847656 C 1248.199219 424.847656 1247.078125 424.496094 1246.132812 423.769531 L 1227.289062 409.34375 C 1226.011719 408.367188 1225.253906 406.859375 1225.238281 405.253906 C 1225.21875 403.644531 1225.9375 402.117188 1227.195312 401.113281 L 1245.648438 386.300781 C 1247.902344 384.492188 1251.195312 384.855469 1253.003906 387.105469 C 1254.808594 389.359375 1254.449219 392.652344 1252.195312 394.460938 L 1238.945312 405.09375 L 1252.492188 415.460938 C 1254.785156 417.21875 1255.222656 420.5 1253.464844 422.792969 C 1252.433594 424.140625 1250.878906 424.847656 1249.308594 424.847656 Z M 1249.308594 424.847656 " fill-opacity="1" fill-rule="nonzero"></path><path fill="#ffffff" d="M 1290.808594 424.847656 C 1289.234375 424.847656 1287.679688 424.140625 1286.648438 422.792969 C 1284.894531 420.5 1285.332031 417.21875 1287.625 415.460938 L 1301.167969 405.09375 L 1287.917969 394.460938 C 1285.664062 392.652344 1285.304688 389.359375 1287.113281 387.105469 C 1288.921875 384.855469 1292.214844 384.492188 1294.464844 386.300781 L 1312.921875 401.113281 C 1314.175781 402.117188 1314.894531 403.644531 1314.878906 405.253906 C 1314.859375 406.859375 1314.101562 408.367188 1312.824219 409.34375 L 1293.980469 423.769531 C 1293.035156 424.496094 1291.917969 424.847656 1290.808594 424.847656 Z M 1290.808594 424.847656 " fill-opacity="1" fill-rule="nonzero"></path><path fill="#ffffff" d="M 1261.554688 434.859375 C 1261.101562 434.859375 1260.640625 434.800781 1260.179688 434.675781 C 1257.394531 433.921875 1255.746094 431.046875 1256.5 428.257812 L 1269.855469 379 C 1270.609375 376.210938 1273.484375 374.5625 1276.273438 375.316406 C 1279.058594 376.074219 1280.707031 378.945312 1279.953125 381.734375 L 1266.597656 430.996094 C 1265.964844 433.324219 1263.855469 434.859375 1261.554688 434.859375 Z M 1261.554688 434.859375 " fill-opacity="1" fill-rule="nonzero"></path><path fill="#25a8e0" d="M 1345.785156 218.558594 L 1194.335938 218.558594 C 1184.570312 218.558594 1175.699219 222.546875 1169.277344 228.972656 C 1162.851562 235.394531 1158.863281 244.265625 1158.863281 254.03125 L 1158.863281 555.96875 C 1158.863281 565.730469 1162.851562 574.601562 1169.277344 581.027344 C 1175.699219 587.453125 1184.570312 591.4375 1194.335938 591.4375 L 1345.785156 591.4375 C 1355.550781 591.4375 1364.417969 587.453125 1370.84375 581.027344 C 1377.265625 574.601562 1381.257812 565.730469 1381.257812 555.96875 L 1381.257812 254.03125 C 1381.257812 244.265625 1377.265625 235.394531 1370.84375 228.972656 C 1364.417969 222.546875 1355.550781 218.558594 1345.785156 218.558594 Z M 1255.574219 557.046875 L 1284.546875 557.046875 C 1289.402344 557.046875 1293.375 561.019531 1293.375 565.875 C 1293.375 570.734375 1289.402344 574.707031 1284.546875 574.707031 L 1255.574219 574.707031 C 1250.71875 574.707031 1246.746094 570.734375 1246.746094 565.875 C 1246.746094 561.019531 1250.71875 557.046875 1255.574219 557.046875 Z M 1234.484375 238.253906 C 1237.703125 238.253906 1240.3125 240.863281 1240.3125 244.082031 C 1240.3125 247.300781 1237.703125 249.910156 1234.484375 249.910156 C 1231.265625 249.910156 1228.65625 247.300781 1228.65625 244.082031 C 1228.65625 240.863281 1231.265625 238.253906 1234.484375 238.253906 Z M 1305.636719 249.910156 C 1308.855469 249.910156 1311.464844 247.300781 1311.464844 244.082031 C 1311.464844 240.863281 1308.855469 238.253906 1305.636719 238.253906 L 1252.183594 238.253906 C 1248.964844 238.253906 1246.355469 240.863281 1246.355469 244.082031 C 1246.355469 247.300781 1248.964844 249.910156 1252.183594 249.910156 Z M 1176.351562 270.945312 L 1363.769531 270.945312 L 1363.769531 540.316406 L 1176.351562 540.316406 L 1176.351562 270.945312 " fill-opacity="1" fill-rule="evenodd"></path></svg>